<?xml version="1.0" standalone="no"?>
<!DOCTYPE svg PUBLIC "-//W3C//DTD SVG 1.1//EN" "http://www.w3.org/Graphics/SVG/1.1/DTD/svg11.dtd" >
<svg xmlns="http://www.w3.org/2000/svg" xmlns:xlink="http://www.w3.org/1999/xlink" version="1.1">
<metadata></metadata>
<defs>
<font id="tt_normsthin" horiz-adv-x="1228" >
<font-face units-per-em="2048" ascent="1638" descent="-410" />
<missing-glyph horiz-adv-x="368" />
<glyph unicode="&#xfb01;" horiz-adv-x="1024" d="M72 942v41h164v225q0 115 62 180.5t163 65.5q33 0 63.5 -8t44.5 -16l15 -7v-41q-51 31 -123 31q-86 0 -135.5 -53t-49.5 -152v-225h533v-983h-41v942h-492v-942h-40v942h-164zM748 1351.5q0 16.5 13 29t27.5 12.5t27.5 -12.5t13 -29t-13 -28.5t-27.5 -12t-27.5 12 t-13 28.5z" />
<glyph unicode="&#xfb02;" horiz-adv-x="1044" d="M72 942v41h164v154q0 137 86 227t210.5 90t210.5 -90t86 -227v-1137h-41v1137q0 121 -73.5 198.5t-182 77.5t-182.5 -78t-74 -198v-154h246v-41h-246v-942h-40v942h-164z" />
<glyph unicode="&#xfb03;" horiz-adv-x="1556" d="M72 942v41h164v184q0 115 62 180.5t163 65.5q33 0 63.5 -8t44.5 -16l15 -7v-41q-51 31 -123 31q-86 0 -135.5 -53t-49.5 -152v-184h492v225q0 115 62.5 180.5t162.5 65.5q33 0 63.5 -8t45.5 -16l14 -7v-41q-51 31 -123 31q-86 0 -135 -53t-49 -152v-225h532v-983h-41v942 h-491v-942h-41v942h-492v-942h-40v942h-164zM1280 1351.5q0 16.5 13.5 29t27.5 12.5t27.5 -12.5t13.5 -29t-13.5 -28.5t-27.5 -12t-27.5 12t-13.5 28.5z" />
<glyph horiz-adv-x="0" />
<glyph horiz-adv-x="0" />
<glyph unicode="&#xd;" horiz-adv-x="0" />
<glyph unicode=" "  horiz-adv-x="368" />
<glyph unicode="&#x09;" horiz-adv-x="368" />
<glyph unicode="&#xa0;" horiz-adv-x="368" />
<glyph unicode="!" horiz-adv-x="573" d="M246 41q0 16 12 28.5t28.5 12.5t29 -12.5t12.5 -28.5t-12.5 -28.5t-29 -12.5t-28.5 12.5t-12 28.5zM266 297v1137h41v-1137h-41z" />
<glyph unicode="&#x22;" horiz-adv-x="655" d="M164 1004v430h41v-430h-41zM451 1004v430h41v-430h-41z" />
<glyph unicode="#" horiz-adv-x="1433" d="M61 471l11 41h307l82 410h-318l11 41h317l92 471h41l-92 -471h512l92 471h41l-92 -471h307l-10 -41h-307l-82 -410h317l-10 -41h-317l-93 -471h-41l93 471h-512l-93 -471h-41l93 471h-308zM420 512h512l82 410h-512z" />
<glyph unicode="$" horiz-adv-x="1116" d="M102 184l31 31q4 -8 14.5 -21.5t46 -46t78.5 -58.5t113 -47.5t147 -21.5q186 0 303 102.5t117 246.5q0 92 -45 156.5t-117.5 101.5t-159.5 64.5t-174 57t-160 67.5t-118 105.5t-45 163.5q0 150 116 255.5t304 113.5v205h41v-205q109 -4 204 -48t136 -85l39 -41l-31 -31 q-6 6 -16.5 17.5t-46 40t-74.5 50t-102.5 39t-129.5 17.5q-178 0 -288.5 -96t-110.5 -232q0 -86 45 -148.5t118 -97t160 -61t174 -57.5t159.5 -70t117.5 -110.5t45 -171.5q0 -156 -114.5 -265.5t-305.5 -123.5v-205h-41v205q-84 0 -158.5 21.5t-121.5 51t-83 59t-50 52.5z " />
<glyph unicode="%" horiz-adv-x="1556" d="M102 1136.5q0 137.5 86 227.5t211 90t211 -90t86 -227.5t-86 -227.5t-211 -90t-211 90t-86 227.5zM143 1136.5q0 -120.5 74 -198.5t182.5 -78t182 78t73.5 198.5t-73.5 198.5t-182 78t-182.5 -78t-74 -198.5zM307 0l901 1434h41l-901 -1434h-41zM860 297q0 137 86 227 t211 90t211 -90t86 -227t-86 -227t-211 -90t-211 90t-86 227zM901 297q0 -121 74 -199t182.5 -78t182 78t73.5 199t-73.5 198.5t-182 77.5t-182.5 -77.5t-74 -198.5z" />
<glyph unicode="&#x26;" horiz-adv-x="1239" d="M143 328q0 70 31 137t74 114.5t87 84t75 55.5l30 18q-10 8 -25.5 24.5t-56.5 66t-71.5 96.5t-56 109.5t-25.5 113.5q0 129 87 218t210 89t210 -89t87 -218q0 -63 -32 -129t-77 -114t-90 -87t-76 -59l-32 -21l419 -501q14 20 35 57t54.5 156.5t33.5 246.5h41 q0 -137 -35.5 -260t-72.5 -178l-35 -53q14 -18 36.5 -46t83 -73t105.5 -45q14 0 29.5 3t24 5t8.5 4v-43q-29 -10 -62 -10q-35 0 -72.5 18.5t-67.5 43t-54.5 50t-36.5 44.5l-15 18q-4 -8 -14 -21.5t-46 -46t-77 -58t-109.5 -47t-142.5 -21.5q-160 0 -269.5 103t-109.5 245z M184 328q0 -125 97.5 -216.5t240.5 -91.5q70 0 132.5 19.5t104.5 46.5t72.5 53.5t45.5 44.5l14 21l-430 512q-10 -6 -29.5 -18.5t-67 -53.5t-84 -84t-66.5 -106.5t-30 -126.5zM246 1147q0 -74 56 -171t112 -157l57 -61q12 8 31.5 21.5t69 56.5t87 86t68.5 105.5t31 119.5 q0 115 -74 190.5t-182.5 75.5t-182 -75.5t-73.5 -190.5z" />
<glyph unicode="'" horiz-adv-x="368" d="M164 1004v430h41v-430h-41z" />
<glyph unicode="(" horiz-adv-x="665" d="M164 512q0 160 38 318.5t92 269t108.5 200t93.5 132.5l36 43l31 -21q-14 -14 -38.5 -43t-86 -123t-108.5 -196.5t-86 -261t-39 -318.5t37 -316.5t90 -264t105 -193.5t89 -127l37 -41l-31 -21q-14 16 -39.5 46t-89 127.5t-111.5 203t-88 266t-40 320.5z" />
<glyph unicode=")" horiz-adv-x="665" d="M102 -430q14 14 39 43t86.5 123t108.5 196.5t86 261t39 318.5t-37 316.5t-89 264t-105.5 193.5t-90.5 127l-37 41l31 21q14 -16 40 -46t89.5 -127.5t111.5 -203t88 -266t40 -320.5t-38 -318.5t-92.5 -269t-108.5 -200t-91 -132.5l-39 -43z" />
<glyph unicode="*" horiz-adv-x="798" d="M102 1188l11 41l266 -82v287h41v-287l266 82l10 -41l-266 -82l174 -236l-31 -30l-174 235l-174 -235l-30 30l174 236z" />
<glyph unicode="+" horiz-adv-x="1024" d="M102 584v41h390v399h40v-399h390v-41h-390v-400h-40v400h-390z" />
<glyph unicode="," horiz-adv-x="358" d="M0 -236l164 318l51 -31l-195 -297z" />
<glyph unicode="-" horiz-adv-x="860" d="M102 584v41h656v-41h-656z" />
<glyph unicode="." horiz-adv-x="368" d="M143 41q0 16 12.5 28.5t29 12.5t28.5 -12.5t12 -28.5t-12 -28.5t-28.5 -12.5t-29 12.5t-12.5 28.5z" />
<glyph unicode="/" horiz-adv-x="839" d="M82 -430l635 1884h41l-635 -1884h-41z" />
<glyph unicode="0" horiz-adv-x="1351" d="M143 717q0 332 158 534.5t375 202.5t374.5 -202.5t157.5 -534.5t-157.5 -534.5t-374.5 -202.5t-375 202.5t-158 534.5zM184 716.5q0 -317.5 144.5 -507t347.5 -189.5t347 189.5t144 507t-144 507t-347 189.5t-347.5 -189.5t-144.5 -507z" />
<glyph unicode="1" horiz-adv-x="665" d="M102 1167v41q90 8 162 64.5t98 107.5l27 54h31v-1434h-41v1341q-2 -6 -8 -15t-30 -35.5t-52.5 -48t-78.5 -44t-108 -31.5z" />
<glyph unicode="2" horiz-adv-x="1095" d="M102 0q0 104 46.5 195.5t119 160t160.5 133t177 126t162 126t119 148.5t46 176q0 141 -113.5 244.5t-286.5 103.5q-88 0 -158.5 -28.5t-108.5 -69.5t-62.5 -81t-30.5 -69l-8 -28l-41 10q2 12 8 32.5t36 74t71 94.5t118.5 73.5t175.5 32.5q188 0 314.5 -115.5 t126.5 -273.5q0 -113 -58.5 -211t-145.5 -165.5t-191.5 -142.5t-196.5 -141.5t-158.5 -162t-79.5 -201.5h830v-41h-871z" />
<glyph unicode="3" horiz-adv-x="1085" d="M82 184l31 31q4 -8 14 -21.5t45 -46t76 -58.5t106.5 -47.5t137.5 -21.5q180 0 294.5 104.5t114.5 254t-114.5 254t-294.5 104.5h-123v41h123q166 0 267 92.5t101 225.5t-101.5 225t-266.5 92q-63 0 -122 -16.5t-99 -41t-69.5 -49t-43.5 -40.5l-15 -17l-30 31q6 6 16 18.5 t46 42t77 53t105.5 42t134.5 18.5q180 0 294.5 -104.5t114.5 -253.5q0 -78 -29.5 -141.5t-71.5 -98.5t-84 -58.5t-73 -31.5l-29 -8q14 -2 36 -8.5t78 -34t99 -65.5t79 -110.5t36 -160.5q0 -166 -127 -282.5t-323 -116.5q-78 0 -149 21.5t-116 51t-79.5 59t-49.5 52.5z" />
<glyph unicode="4" horiz-adv-x="1105" d="M41 348v51l747 1035h41v-1045h195v-41h-195v-348h-41v348h-747zM82 389h706v983z" />
<glyph unicode="5" horiz-adv-x="1177" d="M164 184l31 31q4 -8 14 -21.5t45 -46t76 -58.5t106.5 -47.5t136.5 -21.5q184 0 302 116t118 294q0 176 -114.5 293t-284.5 117q-66 0 -125 -20.5t-96 -49.5t-64.5 -56.5t-40.5 -47.5l-12 -21h-41l51 789h676v-41h-635l-51 -697q4 8 12 20.5t39 44.5t67 56.5t95 44 t125 19.5q184 0 312 -130t128 -321q0 -193 -131 -321.5t-330 -128.5q-78 0 -148.5 21.5t-115.5 51t-79.5 59t-49.5 52.5z" />
<glyph unicode="6" horiz-adv-x="1146" d="M123 430q0 74 22.5 147.5t47.5 110.5l22 39l451 707h51l-430 -656q12 12 33.5 28.5t96 45.5t156.5 29q193 0 322 -129t129 -321.5t-129 -321.5t-321.5 -129t-321.5 129t-129 321zM164 430q0 -176 116.5 -293t293 -117t293 117t116.5 293t-116.5 293t-293 117t-293 -117 t-116.5 -293z" />
<glyph unicode="7" horiz-adv-x="931" d="M41 1393v41h850v-41l-676 -1393h-41l676 1393h-809z" />
<glyph unicode="8" horiz-adv-x="1167" d="M143 389q0 92 34 166t82 114t96 66.5t83 34.5l33 8q-10 2 -28.5 8.5t-64.5 31t-81 58t-63.5 95t-28.5 135.5q0 141 109.5 244.5t269 103.5t269.5 -103.5t110 -244.5q0 -74 -28 -135.5t-67 -95t-77.5 -57t-65.5 -32.5l-29 -8q14 -2 36 -8t78 -34.5t99 -67.5t79 -113 t36 -166q0 -172 -125 -290.5t-315.5 -118.5t-315.5 118.5t-125 290.5zM184 389q0 -156 113 -262.5t287 -106.5t286.5 106.5t112.5 262.5t-112.5 262.5t-286.5 106.5t-287 -106.5t-113 -262.5zM246 1106q0 -125 97 -216t240.5 -91t241 91t97.5 216t-97.5 216t-241 91 t-240.5 -91t-97 -216z" />
<glyph unicode="9" horiz-adv-x="1146" d="M123 1003.5q0 192.5 129 321.5t321.5 129t321.5 -129t129 -321q0 -74 -22.5 -148t-47.5 -111l-22 -38l-451 -707h-51l430 655q-12 -12 -33.5 -28.5t-96.5 -45t-157 -28.5q-193 0 -321.5 129t-128.5 321.5zM164 1003.5q0 -176.5 116.5 -293t293 -116.5t293 116.5 t116.5 293t-116.5 293t-293 116.5t-293 -116.5t-116.5 -293z" />
<glyph unicode=":" horiz-adv-x="368" d="M143 41q0 16 12.5 28.5t29 12.5t28.5 -12.5t12 -28.5t-12 -28.5t-28.5 -12.5t-29 12.5t-12.5 28.5zM143 942q0 16 12.5 28.5t29 12.5t28.5 -12.5t12 -28.5t-12 -28.5t-28.5 -12.5t-29 12.5t-12.5 28.5z" />
<glyph unicode=";" horiz-adv-x="368" d="M0 -236l164 318l51 -31l-195 -297zM143 942q0 16 12.5 28.5t29 12.5t28.5 -12.5t12 -28.5t-12 -28.5t-28.5 -12.5t-29 12.5t-12.5 28.5z" />
<glyph unicode="&#x3c;" horiz-adv-x="1003" d="M123 481v41l758 410v-41l-727 -389l727 -389v-41z" />
<glyph unicode="=" horiz-adv-x="1024" d="M123 410v41h778v-41h-778zM123 758v41h778v-41h-778z" />
<glyph unicode="&#x3e;" horiz-adv-x="1003" d="M123 72v41l727 389l-727 389v41l758 -410v-41z" />
<glyph unicode="?" horiz-adv-x="1034" d="M102 1147q2 12 8.5 32.5t36 74t70.5 94.5t119 73.5t176 32.5q180 0 300 -109.5t120 -259.5q0 -96 -43 -172.5t-105.5 -130t-124 -105.5t-104.5 -125t-43 -163v-92h-41v92q0 82 30.5 149.5t78 112.5t101.5 94.5t101 91.5t78 107.5t31 140.5q0 135 -106.5 231.5 t-272.5 96.5q-88 0 -158.5 -28.5t-108.5 -69.5t-62.5 -81t-30.5 -69l-9 -28zM451 41q0 16 12 28.5t28.5 12.5t28.5 -12.5t12 -28.5t-12 -28.5t-28.5 -12.5t-28.5 12.5t-12 28.5z" />
<glyph unicode="@" horiz-adv-x="1802" d="M143 512q0 313 228.5 545.5t529.5 232.5q313 0 535.5 -218t222.5 -519q0 -209 -79 -319.5t-187 -110.5q-82 0 -135.5 56.5t-65.5 111.5l-14 57q-4 -8 -10.5 -23.5t-32 -54.5t-57 -68.5t-85 -54t-112.5 -24.5q-135 0 -231.5 106.5t-96.5 272.5t96.5 272.5t231.5 106.5 q90 0 161.5 -51.5t98.5 -102.5l26 -51v194h41v-440q0 -131 51.5 -198.5t133.5 -67.5q94 0 159.5 97t65.5 292q0 287 -210 491.5t-507 204.5q-287 0 -502 -220t-215 -517t215 -517t502 -220q119 0 228.5 39t160.5 75l51 39l21 -30q-20 -18 -57 -46t-157 -73t-247 -45 q-301 0 -529.5 232.5t-228.5 545.5zM594 501.5q0 -149.5 84 -243.5t202.5 -94t202.5 94t84 243.5t-84 244t-202.5 94.5t-202.5 -94.5t-84 -244z" />
<glyph unicode="A" horiz-adv-x="1351" d="M61 0l594 1434h41l594 -1434h-41l-184 451h-778l-185 -451h-41zM307 492h737l-368 890z" />
<glyph unicode="B" horiz-adv-x="1341" d="M246 0v1434h502q174 0 276 -96.5t102 -252.5q0 -74 -24.5 -134t-58 -93t-68.5 -54.5t-60 -29.5l-24 -6v-10q12 -2 32.5 -6t74 -30t94.5 -61.5t73.5 -107.5t32.5 -164q0 -172 -114.5 -280.5t-305.5 -108.5h-532zM287 41h491q174 0 276.5 96t102.5 252t-102.5 252 t-276.5 96h-491v-696zM287 778h461q160 0 248.5 84t88.5 223.5t-88.5 223.5t-248.5 84h-461v-615z" />
<glyph unicode="C" horiz-adv-x="1525" d="M123 717q0 305 212 521t505 216q109 0 209 -32.5t165.5 -80t114.5 -93.5t72 -79l22 -32l-30 -21q-8 12 -22.5 31.5t-66 71t-110.5 91.5t-155.5 71.5t-198.5 31.5q-279 0 -477.5 -202.5t-198.5 -493.5t198.5 -494t477.5 -203q102 0 197.5 31t156.5 74t108.5 87t69.5 75 l21 30l30 -20q-8 -12 -23.5 -33.5t-69.5 -77t-116.5 -96.5t-164 -75.5t-209.5 -34.5q-293 0 -505 216t-212 521z" />
<glyph unicode="D" horiz-adv-x="1495" d="M246 0v1434h379q328 0 537.5 -204t209.5 -513t-210 -513t-537 -204h-379zM287 41h338q313 0 509.5 190.5t196.5 485.5t-196.5 485.5t-509.5 190.5h-338v-1352z" />
<glyph unicode="E" horiz-adv-x="1280" d="M246 0v1434h932v-41h-891v-625h727v-41h-727v-686h911v-41h-952z" />
<glyph unicode="F" d="M246 0v1434h921v-41h-880v-645h717v-41h-717v-707h-41z" />
<glyph unicode="G" horiz-adv-x="1597" d="M123 717q0 305 212 521t505 216q109 0 209 -32.5t165.5 -80t114.5 -93.5t72 -79l22 -32l-30 -21q-8 12 -22.5 31.5t-66 71t-110.5 91.5t-155.5 71.5t-198.5 31.5q-279 0 -477.5 -202.5t-198.5 -493.5t198.5 -494t477.5 -203q102 0 197.5 31t156.5 74t108.5 87t69.5 75 l21 30v338h-420v41h461v-389q-8 -14 -24.5 -35.5t-73 -78t-120 -99.5t-166 -78.5t-210.5 -35.5q-293 0 -505 216t-212 521z" />
<glyph unicode="H" horiz-adv-x="1525" d="M246 0v1434h41v-686h952v686h41v-1434h-41v707h-952v-707h-41z" />
<glyph unicode="I" horiz-adv-x="532" d="M246 0v1434h41v-1434h-41z" />
<glyph unicode="J" horiz-adv-x="983" d="M20 123l31 31q12 -14 33.5 -37t99.5 -60t164 -37q156 0 262.5 111t106.5 279v1024h41v-1024q0 -182 -120 -306t-290 -124q-59 0 -115.5 14t-93.5 35.5t-64.5 43t-41.5 36.5z" />
<glyph unicode="K" horiz-adv-x="1310" d="M246 0v1434h41v-973l880 973h52l-543 -605l594 -829h-51l-564 799h-10l-358 -389v-410h-41z" />
<glyph unicode="L" horiz-adv-x="1126" d="M246 0v1434h41v-1393h798v-41h-839z" />
<glyph unicode="M" horiz-adv-x="1863" d="M246 0v1434h30l656 -912l655 912h31v-1434h-41v1352l-645 -901l-645 901v-1352h-41z" />
<glyph unicode="N" horiz-adv-x="1587" d="M246 0v1434h30l1024 -1352v1352h41v-1434h-30l-1024 1352v-1352h-41z" />
<glyph unicode="O" horiz-adv-x="1679" d="M123 717q0 305 212 521t505 216t504.5 -216t211.5 -521t-211.5 -521t-504.5 -216t-505 216t-212 521zM164 717q0 -291 198.5 -494t477 -203t477.5 203t199 494t-199 493.5t-477.5 202.5t-477 -202.5t-198.5 -493.5z" />
<glyph unicode="P" horiz-adv-x="1300" d="M246 0v1434h481q197 0 324 -121t127 -299t-127 -299t-324 -121h-440v-594h-41zM287 635h440q182 0 296 107.5t114 271.5t-114 271.5t-296 107.5h-440v-758z" />
<glyph unicode="Q" horiz-adv-x="1679" d="M123 717q0 305 212 521t505 216t504.5 -216t211.5 -521q0 -104 -24.5 -198.5t-64.5 -162t-88 -124t-96 -93.5t-88 -62.5t-65 -35.5l-24 -10q4 -10 13 -29.5t43 -67t76 -84t117 -66.5t161 -30l133 10v-40q-61 -10 -133 -11q-94 0 -175 32t-129.5 76t-82 89t-48.5 78 l-12 30q-103 -38 -223 -38h-6q-293 0 -505 216t-212 521zM164 717q0 -291 198.5 -494t477 -203t477.5 203t199 494t-199 493.5t-477.5 202.5t-477 -202.5t-198.5 -493.5z" />
<glyph unicode="R" horiz-adv-x="1341" d="M246 0v1434h512q190 0 310 -114t120 -286q0 -94 -35 -168.5t-85 -114.5t-99 -66t-84 -34l-35 -6l369 -645h-52l-348 635h-532v-635h-41zM287 676h471q174 0 281.5 101.5t107.5 257t-107.5 257t-281.5 101.5h-471v-717z" />
<glyph unicode="S" horiz-adv-x="1116" d="M102 184l31 31q4 -8 14.5 -21.5t46 -46t78.5 -58.5t113 -47.5t147 -21.5q186 0 303 103t117 246q0 92 -45 156.5t-117.5 101.5t-159.5 64.5t-174 57t-160 67.5t-118 105.5t-45 163.5q0 152 123 260.5t317 108.5q72 0 139.5 -18.5t112.5 -43t80 -50t51 -44.5l17 -18 l-31 -31q-6 6 -16.5 17.5t-46 40t-74.5 50t-102.5 39t-129.5 17.5q-178 0 -288.5 -96t-110.5 -232q0 -86 45 -148.5t118 -97t160 -61t174 -57.5t159.5 -70t117.5 -110.5t45 -171.5q0 -160 -130 -274.5t-331 -114.5q-84 0 -158.5 21.5t-121.5 51t-83 59t-50 52.5z" />
<glyph unicode="T" horiz-adv-x="1105" d="M41 1393v41h1024v-41h-492v-1393h-41v1393h-491z" />
<glyph unicode="U" horiz-adv-x="1536" d="M225 543v891h41v-891q0 -221 146.5 -372t355.5 -151t355.5 151t146.5 372v891h41v-891q0 -236 -159 -399.5t-384 -163.5t-384 163.5t-159 399.5z" />
<glyph unicode="V" horiz-adv-x="1290" d="M61 1434h41l543 -1383l543 1383h41l-563 -1434h-41z" />
<glyph unicode="W" horiz-adv-x="1986" d="M61 1434h41l441 -1373l440 1373h21l440 -1373l440 1373h41l-461 -1434h-41l-430 1341l-430 -1341h-41z" />
<glyph unicode="X" d="M61 0l533 737l-502 697h51l471 -666l471 666h52l-502 -697l532 -737h-51l-502 707l-501 -707h-52z" />
<glyph unicode="Y" d="M61 1434h52l501 -891l502 891h51l-532 -932v-502h-41v502z" />
<glyph unicode="Z" horiz-adv-x="1146" d="M82 0v31l911 1362h-880v41h931v-31l-911 -1362h932v-41h-983z" />
<glyph unicode="[" horiz-adv-x="706" d="M246 -430v1884h358v-41h-317v-1802h317v-41h-358z" />
<glyph unicode="\" horiz-adv-x="839" d="M82 1454h41l635 -1884h-41z" />
<glyph unicode="]" horiz-adv-x="706" d="M102 -389h318v1802h-318v41h359v-1884h-359v41z" />
<glyph unicode="^" horiz-adv-x="778" d="M123 881l246 553h41l245 -553h-41l-225 512l-225 -512h-41z" />
<glyph unicode="_" horiz-adv-x="634" d="M-20 -256h675v-41h-675v41z" />
<glyph unicode="`" horiz-adv-x="327" d="M61 1413h52l153 -246h-41z" />
<glyph unicode="a" horiz-adv-x="1013" d="M82 256q0 109 74.5 180.5t212.5 95.5l409 72v31q0 143 -88 235.5t-219 92.5q-86 0 -160.5 -39t-105.5 -76l-31 -39l-31 31q4 6 13.5 17t40 40t65.5 50.5t92.5 39t116.5 17.5q147 0 247.5 -104.5t100.5 -264.5v-635h-41v236q-4 -10 -11 -28t-37 -62t-66.5 -77.5 t-105.5 -61t-148 -27.5q-141 0 -234.5 82.5t-93.5 193.5zM123 256q0 -96 80 -166t207 -70q156 0 262 111t106 279v153l-409 -71q-246 -43 -246 -236z" />
<glyph unicode="b" d="M195 0v1434h41v-738q4 12 14 33t47 74t80 94t115.5 74t152.5 33q174 0 312.5 -152t138.5 -360.5t-138.5 -360t-312.5 -151.5q-80 0 -151.5 31.5t-116.5 76.5t-79 90t-48 76l-14 33v-287h-41zM236 491.5q0 -194.5 125.5 -333t283.5 -138.5t284 138.5t126 333t-126 333 t-284 138.5t-283.5 -138.5t-125.5 -333z" />
<glyph unicode="c" horiz-adv-x="1064" d="M113 491.5q0 210.5 141 361.5t330 151q70 0 132 -21.5t104 -51.5t73 -59.5t45 -52.5l14 -20l-30 -21q-4 8 -13.5 20.5t-41 44t-67.5 56.5t-94.5 44.5t-121.5 19.5q-172 0 -301 -137.5t-129 -334t129 -334t301 -137.5q100 0 184 46.5t119 93.5l35 45l30 -21 q-4 -8 -14 -22.5t-45 -49t-74 -61t-102.5 -49t-132.5 -22.5q-188 0 -329.5 150.5t-141.5 361z" />
<glyph unicode="d" d="M113 491.5q0 208.5 138 360.5t312 152q80 0 151.5 -32t117 -77t79 -90t47.5 -76l15 -33v738h41v-1434h-41v287q-4 -12 -14.5 -33t-47.5 -74t-80 -94t-115.5 -73.5t-152.5 -32.5q-174 0 -312 151.5t-138 360zM154 491.5q0 -194.5 126 -333t283.5 -138.5t283.5 138.5 t126 333t-126 333t-283.5 138.5t-283.5 -138.5t-126 -333z" />
<glyph unicode="e" horiz-adv-x="1126" d="M113 492q0 217 135 364.5t315 147.5t315.5 -147.5t135.5 -364.5v-21h-860q8 -190 134 -320.5t296 -130.5q100 0 184 46.5t119 93.5l35 45l30 -21q-4 -8 -14 -22.5t-45 -49t-74 -61t-102.5 -49t-132.5 -22.5q-188 0 -329.5 150.5t-141.5 361.5zM154 512h819 q0 188 -123 319.5t-287 131.5t-286.5 -131.5t-122.5 -319.5z" />
<glyph unicode="f" horiz-adv-x="593" d="M72 942v41h164v225q0 115 62 180.5t163 65.5q33 0 63.5 -8t44.5 -16l15 -7v-41q-51 31 -123 31q-86 0 -135.5 -53t-49.5 -152v-225h246v-41h-246v-942h-40v942h-164z" />
<glyph unicode="g" horiz-adv-x="1208" d="M113 512q0 203 134 347.5t306 144.5q80 0 150.5 -31t114.5 -74t76 -87t44 -75l14 -30v276h41v-922q0 -211 -132 -351t-318 -140q-70 0 -132.5 21.5t-104.5 51t-72.5 59.5t-45.5 52l-14 21l31 20q4 -8 13 -20.5t41 -44t67.5 -56t94 -44t122.5 -19.5q172 0 290.5 126.5 t118.5 323.5v256q-4 -12 -13 -31.5t-44 -70.5t-77 -91t-113.5 -72t-151.5 -32q-172 0 -306 144.5t-134 347.5zM154 512q0 -188 120.5 -319.5t278.5 -131.5t278.5 131.5t120.5 319.5t-120.5 319.5t-278.5 131.5t-278.5 -131.5t-120.5 -319.5z" />
<glyph unicode="h" horiz-adv-x="1187" d="M195 0v1434h41v-697q4 10 11 28.5t36.5 65t66.5 81t105.5 63.5t148.5 29q164 0 276.5 -119t112.5 -301v-584h-41v584q0 166 -100 272.5t-248 106.5q-156 0 -262 -113t-106 -287v-563h-41z" />
<glyph unicode="i" horiz-adv-x="450" d="M174 1351.5q0 16.5 13.5 29t27.5 12.5t27.5 -12.5t13.5 -29t-13.5 -28.5t-27.5 -12t-27.5 12t-13.5 28.5zM195 0v983h41v-983h-41z" />
<glyph unicode="j" horiz-adv-x="450" d="M-113 -358q51 -31 123 -31q86 0 135.5 53.5t49.5 151.5v1167h41v-1167q0 -115 -62.5 -180.5t-163.5 -65.5q-33 0 -63.5 8t-44.5 16l-15 7v41zM174 1351.5q0 16.5 13.5 29t27.5 12.5t27.5 -12.5t13.5 -29t-13.5 -28.5t-27.5 -12t-27.5 12t-13.5 28.5z" />
<glyph unicode="k" horiz-adv-x="1013" d="M195 0v1434h41v-1127l614 676h51l-358 -399l420 -584h-52l-389 553h-10l-276 -297v-256h-41z" />
<glyph unicode="l" horiz-adv-x="450" d="M195 0v1434h41v-1434h-41z" />
<glyph unicode="m" horiz-adv-x="1781" d="M195 0v983h41v-225q2 10 9 26.5t32.5 58.5t57.5 74.5t90 59.5t128 27q78 0 141.5 -30t98 -72t58 -84t32.5 -73l8 -28q2 12 8 31.5t31.5 68.5t59.5 87t97.5 69t141.5 31q150 0 254 -117t104 -303v-584h-41v584q0 172 -91 275.5t-226 103.5t-226.5 -103.5t-91.5 -275.5 v-584h-41v584q0 172 -91 275.5t-226 103.5t-226 -106.5t-91 -293.5v-563h-41z" />
<glyph unicode="n" horiz-adv-x="1187" d="M195 0v983h41v-246q4 10 11 28.5t36.5 65t66.5 81t105.5 63.5t148.5 29q164 0 276.5 -119t112.5 -301v-584h-41v584q0 166 -100 272.5t-248 106.5q-156 0 -262 -113t-106 -287v-563h-41z" />
<glyph unicode="o" horiz-adv-x="1187" d="M113 491.5q0 210.5 141 361.5t329.5 151t330 -151t141.5 -361.5t-141.5 -361t-330 -150.5t-329.5 150.5t-141 361zM154 491.5q0 -196.5 129 -334t301 -137.5t301 137.5t129 334t-129 334t-301 137.5t-301 -137.5t-129 -334z" />
<glyph unicode="p" d="M195 -430v1413h41v-287q4 12 14 33t47 74t80 94t115.5 74t152.5 33q174 0 312.5 -152t138.5 -360.5t-138.5 -360t-312.5 -151.5q-80 0 -151.5 31.5t-116.5 76.5t-79 90t-48 76l-14 33v-717h-41zM236 491.5q0 -194.5 125.5 -333t283.5 -138.5t284 138.5t126 333t-126 333 t-284 138.5t-283.5 -138.5t-125.5 -333z" />
<glyph unicode="q" d="M113 491.5q0 208.5 138 360.5t312 152q80 0 151.5 -32t117 -77t79 -90t47.5 -76l15 -33v287h41v-1413h-41v717q-4 -12 -14.5 -33t-47.5 -74t-80 -94t-115.5 -73.5t-152.5 -32.5q-174 0 -312 151.5t-138 360zM154 491.5q0 -194.5 126 -333t283.5 -138.5t283.5 138.5 t126 333t-126 333t-283.5 138.5t-283.5 -138.5t-126 -333z" />
<glyph unicode="r" horiz-adv-x="696" d="M195 0v983h41v-246q4 10 11 28.5t36.5 65t66.5 81t105.5 63.5t148.5 29h41v-41h-41q-156 0 -262 -113t-106 -287v-563h-41z" />
<glyph unicode="s" horiz-adv-x="890" d="M92 143l31 31q4 -6 12 -16.5t36 -37t59.5 -47t83 -37t106.5 -16.5q135 0 216 72t81 174q0 78 -60.5 128t-145.5 76t-171 52.5t-146.5 81.5t-60.5 144q0 102 85 179t212 77q86 0 163 -36t112 -71l32 -37l-30 -31q-12 14 -34 37t-93.5 60t-149.5 37q-113 0 -184.5 -63.5 t-71.5 -151.5q0 -76 60.5 -123t146.5 -73t171 -53.5t145.5 -85t60.5 -147.5q0 -119 -94.5 -202.5t-243.5 -83.5q-59 0 -115.5 16t-93.5 40.5t-64.5 49.5t-40.5 41z" />
<glyph unicode="t" horiz-adv-x="675" d="M51 942v41h144q61 0 61 61v267h41v-328h225v-41h-225v-717q0 -98 49 -151.5t135 -53.5q33 0 63.5 8.5t45.5 16.5l14 6v-41q-49 -30 -119 -30h-4q-100 0 -162.5 65.5t-62.5 179.5v717h-205z" />
<glyph unicode="u" horiz-adv-x="1208" d="M195 399v584h41v-584q0 -166 100 -272.5t248 -106.5q156 0 262 113t106 287v563h41v-983h-41v246q-4 -10 -11 -28.5t-37 -65t-66.5 -81t-105 -63t-148.5 -28.5q-164 0 -276.5 118.5t-112.5 300.5z" />
<glyph unicode="v" horiz-adv-x="962" d="M51 983h41l379 -932l379 932h41l-399 -983h-41z" />
<glyph unicode="w" horiz-adv-x="1413" d="M51 983h41l297 -922l297 922h21l297 -922l296 922h41l-317 -983h-41l-287 891l-286 -891h-41z" />
<glyph unicode="x" horiz-adv-x="921" d="M51 0l379 512l-348 471h51l318 -440l317 440h51l-348 -471l379 -512h-51l-348 481l-349 -481h-51z" />
<glyph unicode="y" horiz-adv-x="962" d="M51 983h41l379 -932l379 932h41l-492 -1208q-82 -205 -235 -205q-23 0 -43.5 5t-30.5 11l-8 4v41q31 -20 82 -20q128 0 194 164l93 225z" />
<glyph unicode="z" horiz-adv-x="870" d="M51 0v31l676 911h-655v41h706v-31l-676 -911h697v-41h-748z" />
<glyph unicode="{" horiz-adv-x="737" d="M143 492v40q84 0 129 43t45 121v502q0 256 277 256h41v-41h-41q-236 0 -236 -215v-502q0 -45 -14 -80.5t-35.5 -54t-43 -31t-36.5 -14.5l-14 -4q6 0 15.5 -3t34 -15.5t44 -30t34.5 -54t15 -81.5v-502q0 -215 236 -215h41v-41h-41q-276 0 -277 256v502q0 78 -45 121 t-129 43z" />
<glyph unicode="|" horiz-adv-x="655" d="M307 -430v1884h41v-1884h-41z" />
<glyph unicode="}" horiz-adv-x="737" d="M102 -389h41q236 0 236 215v502q0 45 14.5 80.5t36 54t43 31t35.5 14.5l14 4q-6 0 -15 3t-33.5 15.5t-44 30t-35 54t-15.5 81.5v502q0 215 -236 215h-41v41h41q276 0 277 -256v-502q0 -78 45 -121t129 -43v-40q-84 0 -129 -43t-45 -121v-502q0 -256 -277 -256h-41v41z " />
<glyph unicode="~" horiz-adv-x="1044" d="M102 543q2 6 8.5 16t27 37t45 47.5t63.5 36.5t82 16q94 0 201.5 -76.5t187.5 -76.5q59 0 107 33.5t69 66.5l18 33l31 -21q-2 -6 -8 -16t-26.5 -37t-45 -47t-63.5 -36.5t-82 -16.5q-94 0 -201.5 76.5t-187.5 76.5q-59 0 -107.5 -32.5t-68.5 -65.5l-19 -35z" />
<glyph unicode="&#xa1;" horiz-adv-x="573" d="M246 942q0 16 12 28.5t28.5 12.5t29 -12.5t12.5 -28.5t-12.5 -28.5t-29 -12.5t-28.5 12.5t-12 28.5zM266 -430v1116h41v-1116h-41z" />
<glyph unicode="&#xa2;" horiz-adv-x="1064" d="M113 491.5q0 204.5 135 354t315 158.5v204h41v-204q66 -2 126.5 -25t99 -52.5t67.5 -58t41 -49.5l14 -20l-30 -21q-4 8 -13.5 20.5t-41 44t-67.5 56.5t-94.5 44.5t-121.5 19.5q-172 0 -301 -137.5t-129 -334t129 -334t301 -137.5q100 0 184 46.5t119 93.5l35 45l30 -21 q-4 -8 -13 -21t-41 -47t-69.5 -60.5t-98 -50t-126.5 -25.5v-205h-41v205q-180 8 -315 157.5t-135 354z" />
<glyph unicode="&#xa3;" horiz-adv-x="1107" d="M123 0v41q78 0 131 53t53 131v430h-153v41h153v348q0 182 107.5 296t271.5 114q59 0 116.5 -16.5t96.5 -41t68.5 -49t44.5 -40.5l14 -17l-31 -30q-4 6 -13 16t-40 36.5t-63.5 47t-85 37t-107.5 16.5q-147 0 -242.5 -101.5t-95.5 -267.5v-348h430v-41h-430v-430 q0 -63 -28.5 -109t-57.5 -61l-26 -14h788v-41h-901z" />
<glyph unicode="&#xa4;" horiz-adv-x="1320" d="M102 328v41h185v266h-185v41h185v758h481q190 0 310 -114t120 -286t-120 -285.5t-310 -113.5h-440v-266h563v-41h-563v-328h-41v328h-185zM328 676h440q174 0 281.5 101.5t107.5 257t-107.5 257t-281.5 101.5h-440v-717z" />
<glyph unicode="&#xa5;" d="M61 1434h52l501 -891l502 891h51l-481 -840h297v-41h-317l-31 -51v-174h348v-41h-348v-287h-41v287h-348v41h348v174l-31 51h-317v41h297z" />
<glyph unicode="&#xa6;" horiz-adv-x="655" d="M307 348h41v-778h-41v778zM307 676v778h41v-778h-41z" />
<glyph unicode="&#xa7;" horiz-adv-x="1075" d="M143 655q0 59 25 111.5t59.5 83.5t68.5 53.5t58 30.5l25 8q-6 2 -17.5 7t-40 24.5t-50 43t-39 64.5t-17.5 86q0 119 92 203t236 84q86 0 162.5 -36t109.5 -70l35 -37l-31 -31q-12 14 -33.5 36.5t-93 59.5t-149.5 37q-127 0 -207 -71.5t-80 -174.5q0 -86 69.5 -145 t169 -94t199 -72t169 -107.5t69.5 -175.5q0 -59 -24.5 -111t-58.5 -83t-69 -53.5t-59 -30.5l-25 -8q6 -2 17.5 -7.5t40 -24.5t50 -43t39 -65t17.5 -86q0 -119 -94 -202.5t-244 -83.5q-59 0 -115.5 16t-93.5 41t-64.5 49.5t-39.5 40.5l-14 17l30 30q4 -6 12.5 -16t36 -37 t59.5 -47.5t83 -36.5t106 -16q135 0 216 71.5t81 173.5q0 86 -69.5 145.5t-169 94.5t-198.5 72t-169 107.5t-70 174.5zM184 655q0 -49 22.5 -91t53.5 -69.5t85 -55t95 -43t111 -40t104 -39.5q10 2 25.5 7.5t56.5 25t72 45t56.5 73.5t25.5 105q0 49 -22.5 91.5t-53.5 70 t-85 55t-95 43t-110.5 40t-104.5 38.5q-10 -2 -25.5 -7t-56.5 -24.5t-71.5 -45t-56.5 -73.5t-26 -106z" />
<glyph unicode="&#xa8;" horiz-adv-x="532" d="M61 1310.5q0 16.5 12.5 29t29 12.5t28.5 -12.5t12 -29t-12 -28.5t-28.5 -12t-29 12t-12.5 28.5zM389 1310.5q0 16.5 12.5 29t28.5 12.5t28.5 -12.5t12.5 -29t-12.5 -28.5t-28.5 -12t-28.5 12t-12.5 28.5z" />
<glyph unicode="&#xa9;" horiz-adv-x="1740" d="M143 717q0 307 213 522t514 215t514 -215t213 -522t-213 -522t-514 -215t-514 215t-213 522zM184 717q0 -291 201 -494t485.5 -203t485 203t200.5 494t-200.5 493.5t-485 202.5t-485.5 -202.5t-201 -493.5zM522 717q0 166 105.5 277.5t253.5 111.5q82 0 153.5 -36 t102.5 -71l30 -36l-30 -31q-10 14 -30 36.5t-86.5 59.5t-139.5 37q-129 0 -223.5 -99.5t-94.5 -249t94.5 -248.5t223.5 -99q45 0 89 13t72.5 32.5t51 40t32.5 32.5l11 15l30 -31q-12 -16 -33.5 -39.5t-96 -63.5t-156.5 -40q-147 0 -253 111.5t-106 277.5z" />
<glyph unicode="&#xaa;" horiz-adv-x="645" d="M82 993q0 141 186 174l224 41v41q0 78 -43 121t-121 43q-49 0 -93.5 -20.5t-62.5 -40.5l-18 -21l-31 21q8 12 23.5 28.5t68.5 45t113 28.5q92 0 148 -56.5t56 -148.5v-399h-40v113q-2 -6 -6.5 -14.5t-23 -32t-42 -41t-64.5 -32t-90 -14.5q-82 0 -133 47.5t-51 116.5z M123 993q0 -55 38 -89t105 -34q98 0 162 61.5t64 153.5v82l-224 -41q-145 -27 -145 -133z" />
<glyph unicode="&#xab;" horiz-adv-x="819" d="M123 492l225 307h41l-225 -307l225 -308h-41zM430 492l225 307h41l-225 -307l225 -308h-41z" />
<glyph unicode="&#xac;" horiz-adv-x="921" d="M102 707v41h717v-328h-41v287h-676z" />
<glyph unicode="&#xad;" horiz-adv-x="860" d="M102 584v41h656v-41h-656z" />
<glyph unicode="&#xae;" horiz-adv-x="1740" d="M143 717q0 307 213 522t514 215t514 -215t213 -522t-213 -522t-514 -215t-514 215t-213 522zM184 717q0 -291 201 -494t485.5 -203t485 203t200.5 494t-200.5 493.5t-485 202.5t-485.5 -202.5t-201 -493.5zM645 338v758h246q113 0 179.5 -60.5t66.5 -154.5 q0 -78 -44 -129.5t-87 -63.5l-43 -12l194 -338h-51l-174 328h-246v-328h-41zM686 707h205q98 0 151.5 48t53.5 125.5t-53.5 126t-151.5 48.5h-205v-348z" />
<glyph unicode="&#xaf;" horiz-adv-x="634" d="M61 1341v41h512v-41h-512z" />
<glyph unicode="&#xb0;" horiz-adv-x="696" d="M102 1208.5q0 100.5 73 173t173.5 72.5t173 -72.5t72.5 -173t-72.5 -173t-173 -72.5t-173.5 72.5t-73 173zM143 1208q0 -84 60.5 -144t144.5 -60t144.5 60t60.5 144t-60.5 144.5t-144.5 60.5t-144.5 -60.5t-60.5 -144.5z" />
<glyph unicode="&#xb1;" horiz-adv-x="1024" d="M102 143v41h820v-41h-820zM102 758v41h390v399h40v-399h390v-41h-390v-420h-40v420h-390z" />
<glyph unicode="&#xb2;" horiz-adv-x="552" d="M41 922q0 76 42 138t102.5 105t121 83t102.5 92.5t42 113.5q0 63 -49.5 108.5t-125.5 45.5q-63 0 -109 -34t-61 -67l-14 -32l-41 10q2 6 6 17t22.5 40t42 50.5t64.5 39t90 17.5q90 0 153 -58.5t63 -136.5q0 -68 -38 -123t-94.5 -95t-115 -77t-105.5 -87t-57 -109h410v-41 h-451z" />
<glyph unicode="&#xb3;" horiz-adv-x="573" d="M41 1024l31 31q8 -12 23.5 -28.5t71.5 -45.5t120 -29q82 0 133 47.5t51 117t-51 116.5t-133 47h-103v41h92q76 0 120 40t44 103.5t-44 103.5t-120 40q-55 0 -101 -23.5t-64 -46.5l-19 -22l-31 30q8 12 23.5 28.5t72 45.5t119.5 29q90 0 147.5 -53.5t57.5 -131.5 q0 -35 -11 -64.5t-27.5 -47t-34 -29.5t-27.5 -16l-12 -7l15 -5q9 -3 33.5 -16t44 -31.5t35 -53.5t15.5 -78q0 -86 -63.5 -145.5t-161.5 -59.5q-45 0 -88 11.5t-70 28t-48.5 33.5t-31.5 28z" />
<glyph unicode="&#xb4;" horiz-adv-x="327" d="M61 1167l154 246h51l-164 -246h-41z" />
<glyph unicode="&#xb5;" horiz-adv-x="1208" d="M195 -430v1413h41v-594q0 -166 95 -267.5t242.5 -101.5t253 112t105.5 278v573h41v-819q0 -61 33.5 -97t89.5 -36l61 10v-41q-20 -10 -61 -10q-70 0 -117 49t-47 125v72q-4 -10 -11.5 -28t-36 -62t-65.5 -77.5t-102.5 -61t-143.5 -27.5q-72 0 -133 22.5t-97 53 t-61.5 62.5t-35.5 54l-10 23v-625h-41z" />
<glyph unicode="&#xb6;" horiz-adv-x="1024" d="M123 1126.5q0 122.5 92 215t215 92.5h348v-1639h-41v1598h-266v-1598h-41v1024q-123 0 -215 92.5t-92 215z" />
<glyph unicode="&#xb7;" horiz-adv-x="368" d="M143 512q0 16 12.5 28.5t29 12.5t28.5 -12.5t12 -28.5t-12 -28.5t-28.5 -12.5t-29 12.5t-12.5 28.5z" />
<glyph unicode="&#xb8;" horiz-adv-x="440" d="M61 -358l21 30q51 -41 123 -41q59 0 96 33t37 80q0 113 -113 113q-18 0 -35.5 -5.5t-25.5 -11.5l-10 -4l-21 21l92 184h31l-82 -164q20 10 62 10q61 0 102 -41t41 -102q0 -63 -49 -108.5t-125 -45.5q-37 0 -73 12.5t-54 24.5z" />
<glyph unicode="&#xb9;" horiz-adv-x="378" d="M61 1475v41q49 4 90.5 34.5t57.5 59.5l16 28h31v-716h-41v645q-4 -8 -14.5 -22.5t-50 -40t-89.5 -29.5z" />
<glyph unicode="&#xba;" horiz-adv-x="716" d="M61 1136.5q0 137.5 86 227.5t211 90t211 -90t86 -227.5t-86 -227.5t-211 -90t-211 90t-86 227.5zM102 1136.5q0 -120.5 74 -198.5t182.5 -78t182 78t73.5 198.5t-73.5 198.5t-182 78t-182.5 -78t-74 -198.5z" />
<glyph unicode="&#xbb;" horiz-adv-x="819" d="M123 184l225 308l-225 307h41l225 -307l-225 -308h-41zM430 184l225 308l-225 307h41l225 -307l-225 -308h-41z" />
<glyph unicode="&#xbc;" horiz-adv-x="1372" d="M82 1270v41q49 4 90 34.5t57 59.5l17 29h30v-717h-40v645q-4 -8 -14.5 -22.5t-50.5 -40t-89 -29.5zM164 0l901 1434h41l-901 -1434h-41zM758 195v41l358 481h51v-481h103v-41h-103v-195h-41v195h-368zM799 236h327v440z" />
<glyph unicode="&#xbd;" horiz-adv-x="1413" d="M82 1270v41q49 4 90 34.5t57 59.5l17 29h30v-717h-40v645q-4 -8 -14.5 -22.5t-50.5 -40t-89 -29.5zM164 0l901 1434h41l-901 -1434h-41zM860 0q0 76 42 138.5t102.5 105.5t121 83t102.5 92t42 113q0 63 -49.5 108.5t-124.5 45.5q-63 0 -109.5 -34t-60.5 -66l-15 -33 l-41 10q2 6 6.5 17.5t23 40t42 50t64.5 39t90 17.5q90 0 152.5 -58.5t62.5 -136.5q0 -68 -38 -123t-94.5 -95t-114.5 -76.5t-105.5 -87t-57.5 -109.5h410v-41h-451z" />
<glyph unicode="&#xbe;" horiz-adv-x="1495" d="M61 819l31 31q8 -12 23.5 -28.5t72 -45t119.5 -28.5q82 0 133.5 47t51.5 116.5t-51.5 116.5t-133.5 47h-102v41h92q76 0 120 40t44 103.5t-44 103.5t-120 40q-55 0 -101 -23.5t-65 -46.5l-18 -22l-31 30q8 12 23.5 28.5t71.5 45.5t120 29q90 0 147.5 -53.5t57.5 -130.5 q0 -35 -11.5 -65t-28 -47.5t-33.5 -29.5t-28 -16l-12 -6q6 -2 15.5 -5.5t34 -16.5t44 -31.5t34.5 -53.5t15 -78q0 -86 -63 -145t-162 -59q-45 0 -88 11t-69.5 27.5t-48 34t-31.5 27.5zM287 0l901 1434h41l-901 -1434h-41zM881 195v41l358 481h51v-481h103v-41h-103v-195h-41 v195h-368zM922 236h327v440z" />
<glyph unicode="&#xbf;" horiz-adv-x="911" d="M82 -82q0 90 43 163t104.5 124t124 102t105.5 124t43 163v92h41v-92q0 -96 -43 -173t-105.5 -129t-124 -102.5t-104.5 -119t-43 -152.5q0 -135 106.5 -231.5t272.5 -96.5q88 0 158.5 29t108.5 70t62.5 81t32.5 68l6 29l41 -10q-2 -12 -8 -33t-35.5 -74t-70.5 -94 t-119 -74t-176 -33q-180 0 -300 110t-120 259zM481 942q0 16 13.5 28.5t28 12.5t27.5 -12.5t13 -28.5t-13 -28.5t-27.5 -12.5t-28 12.5t-13.5 28.5z" />
<glyph unicode="&#xc0;" horiz-adv-x="1351" d="M61 0l594 1434h41l594 -1434h-41l-184 451h-778l-185 -451h-41zM307 492h737l-368 890zM481 1905h51l154 -246h-41z" />
<glyph unicode="&#xc1;" horiz-adv-x="1351" d="M61 0l594 1434h41l594 -1434h-41l-184 451h-778l-185 -451h-41zM307 492h737l-368 890zM666 1638l153 246h51l-163 -246h-41z" />
<glyph unicode="&#xc2;" horiz-adv-x="1351" d="M61 0l594 1434h41l594 -1434h-41l-184 451h-778l-185 -451h-41zM307 492h737l-368 890zM440 1638l215 246h41l215 -246h-51l-184 215l-184 -215h-52z" />
<glyph unicode="&#xc3;" horiz-adv-x="1351" d="M61 0l594 1434h41l594 -1434h-41l-184 451h-778l-185 -451h-41zM307 492h737l-368 890zM430 1638q0 102 38 153.5t95 51.5q63 0 135 -82t121 -82q92 0 92 164h41q0 -102 -38 -153.5t-95 -51.5q-63 0 -135 82t-121 82q-92 0 -92 -164h-41z" />
<glyph unicode="&#xc4;" horiz-adv-x="1351" d="M61 0l594 1434h41l594 -1434h-41l-184 451h-778l-185 -451h-41zM307 492h737l-368 890zM471 1761.5q0 16.5 12.5 28.5t28.5 12t28.5 -12t12.5 -28.5t-12.5 -29t-28.5 -12.5t-28.5 12.5t-12.5 29zM799 1761.5q0 16.5 12 28.5t28.5 12t29 -12t12.5 -28.5t-12.5 -29 t-29 -12.5t-28.5 12.5t-12 29z" />
<glyph unicode="&#xc5;" horiz-adv-x="1351" d="M61 0l594 1434h41l594 -1434h-41l-184 451h-778l-185 -451h-41zM307 492h737l-368 890zM492 1761q0 78 53 131.5t131 53.5t131 -53.5t53 -131.5t-53 -131t-131 -53t-131 53t-53 131zM532 1761.5q0 -61.5 41 -102.5t102.5 -41t102.5 41t41 102.5t-41 102.5t-102.5 41 t-102.5 -41t-41 -102.5z" />
<glyph unicode="&#xc6;" horiz-adv-x="1904" d="M-41 0l799 1434h1044v-41h-778v-625h614v-41h-614v-686h799v-41h-840v471h-717l-266 -471h-41zM287 512h696v881h-205z" />
<glyph unicode="&#xc7;" horiz-adv-x="1525" d="M123 717q0 305 212 521t505 216q109 0 209 -32.5t165.5 -80t114.5 -93.5t72 -79l22 -32l-30 -21q-8 12 -22.5 31.5t-66 71t-110.5 91.5t-155.5 71.5t-198.5 31.5q-279 0 -477.5 -202.5t-198.5 -493.5t198.5 -494t477.5 -203q102 0 197.5 31t156.5 74t108.5 87t69.5 75 l21 30l30 -20q-8 -12 -23.5 -33.5t-69.5 -77t-116.5 -96.5t-164 -75.5t-209.5 -34.5l-52 -103q20 10 62 10q61 0 102 -41t41 -102q0 -63 -49 -108.5t-125 -45.5q-37 0 -72.5 12.5t-54.5 24.5l-16 15l20 30q51 -41 123 -41q59 0 96 33t37 80q0 113 -112 113q-18 0 -36 -5.5 t-26 -11.5l-10 -4l-20 21l61 123q-287 16 -486.5 228t-199.5 509z" />
<glyph unicode="&#xc8;" horiz-adv-x="1280" d="M246 0v1434h932v-41h-891v-625h727v-41h-727v-686h911v-41h-952zM543 1905h51l154 -246h-41z" />
<glyph unicode="&#xc9;" horiz-adv-x="1280" d="M246 0v1434h932v-41h-891v-625h727v-41h-727v-686h911v-41h-952zM676 1638l153 246h52l-164 -246h-41z" />
<glyph unicode="&#xca;" horiz-adv-x="1280" d="M246 0v1434h932v-41h-891v-625h727v-41h-727v-686h911v-41h-952zM471 1638l215 246h41l215 -246h-51l-184 215l-185 -215h-51z" />
<glyph unicode="&#xcb;" horiz-adv-x="1280" d="M246 0v1434h932v-41h-891v-625h727v-41h-727v-686h911v-41h-952zM502 1761.5q0 16.5 13 28.5t27.5 12t28 -12t13.5 -28.5t-13.5 -29t-28 -12.5t-27.5 12.5t-13 29zM829 1761.5q0 16.5 13.5 28.5t28 12t27.5 -12t13 -28.5t-13 -29t-27.5 -12.5t-28 12.5t-13.5 29z" />
<glyph unicode="&#xcc;" horiz-adv-x="532" d="M82 1905h51l154 -246h-41zM246 0v1434h41v-1434h-41z" />
<glyph unicode="&#xcd;" horiz-adv-x="532" d="M246 0v1434h41v-1434h-41zM246 1638l153 246h52l-164 -246h-41z" />
<glyph unicode="&#xce;" horiz-adv-x="532" d="M31 1638l215 246h41l215 -246h-51l-185 215l-184 -215h-51zM246 0v1434h41v-1434h-41z" />
<glyph unicode="&#xcf;" horiz-adv-x="532" d="M61 1761.5q0 16.5 12.5 28.5t29 12t28.5 -12t12 -28.5t-12 -29t-28.5 -12.5t-29 12.5t-12.5 29zM246 0v1434h41v-1434h-41zM389 1761.5q0 16.5 12.5 28.5t28.5 12t28.5 -12t12.5 -28.5t-12.5 -29t-28.5 -12.5t-28.5 12.5t-12.5 29z" />
<glyph unicode="&#xd0;" horiz-adv-x="1525" d="M61 696v41h215v697h379q328 0 538 -204t210 -513t-210 -513t-538 -204h-379v696h-215zM317 41h338q313 0 510 190.5t197 485.5t-196.5 485.5t-510.5 190.5h-338v-656h379v-41h-379v-655z" />
<glyph unicode="&#xd1;" horiz-adv-x="1587" d="M246 0v1434h30l1024 -1352v1352h41v-1434h-30l-1024 1352v-1352h-41zM543 1638q0 102 37.5 153.5t95.5 51.5q63 0 135 -82t121 -82q92 0 92 164h41q0 -102 -38 -153.5t-95 -51.5q-63 0 -135 82t-121 82q-92 0 -92 -164h-41z" />
<glyph unicode="&#xd2;" horiz-adv-x="1679" d="M123 717q0 305 212 521t505 216t504.5 -216t211.5 -521t-211.5 -521t-504.5 -216t-505 216t-212 521zM164 717q0 -291 198.5 -494t477 -203t477.5 203t199 494t-199 493.5t-477.5 202.5t-477 -202.5t-198.5 -493.5zM676 1905h51l154 -246h-41z" />
<glyph unicode="&#xd3;" horiz-adv-x="1679" d="M123 717q0 305 212 521t505 216t504.5 -216t211.5 -521t-211.5 -521t-504.5 -216t-505 216t-212 521zM164 717q0 -291 198.5 -494t477 -203t477.5 203t199 494t-199 493.5t-477.5 202.5t-477 -202.5t-198.5 -493.5zM840 1638l153 246h51l-163 -246h-41z" />
<glyph unicode="&#xd4;" horiz-adv-x="1679" d="M123 717q0 305 212 521t505 216t504.5 -216t211.5 -521t-211.5 -521t-504.5 -216t-505 216t-212 521zM164 717q0 -291 198.5 -494t477 -203t477.5 203t199 494t-199 493.5t-477.5 202.5t-477 -202.5t-198.5 -493.5zM604 1638l215 246h41l215 -246h-51l-184 215l-185 -215 h-51z" />
<glyph unicode="&#xd5;" horiz-adv-x="1679" d="M123 717q0 305 212 521t505 216t504.5 -216t211.5 -521t-211.5 -521t-504.5 -216t-505 216t-212 521zM164 717q0 -291 198.5 -494t477 -203t477.5 203t199 494t-199 493.5t-477.5 202.5t-477 -202.5t-198.5 -493.5zM580 1638q0 102 37.5 153.5t95.5 51.5q63 0 135 -82 t121 -82q92 0 92 164h41q0 -102 -38 -153.5t-95 -51.5q-63 0 -135 82t-121 82q-92 0 -92 -164h-41z" />
<glyph unicode="&#xd6;" horiz-adv-x="1679" d="M123 717q0 305 212 521t505 216t504.5 -216t211.5 -521t-211.5 -521t-504.5 -216t-505 216t-212 521zM164 717q0 -291 198.5 -494t477 -203t477.5 203t199 494t-199 493.5t-477.5 202.5t-477 -202.5t-198.5 -493.5zM635 1761.5q0 16.5 12 28.5t28.5 12t29 -12t12.5 -28.5 t-12.5 -29t-29 -12.5t-28.5 12.5t-12 29zM963 1761.5q0 16.5 12 28.5t28.5 12t28.5 -12t12 -28.5t-12 -29t-28.5 -12.5t-28.5 12.5t-12 29z" />
<glyph unicode="&#xd7;" horiz-adv-x="880" d="M123 338l287 297l-287 297l31 31l286 -297l287 297l31 -31l-287 -297l287 -297l-31 -31l-287 297l-286 -297z" />
<glyph unicode="&#xd8;" horiz-adv-x="1679" d="M123 717q0 305 212 521t505 216q131 0 254 -49t180 -98l57 -47l185 194l30 -31l-184 -194q8 -8 21.5 -23.5t46 -68t58 -108.5t47 -141t21.5 -171q0 -305 -211.5 -521t-504.5 -216q-131 0 -254 49t-180 98l-58 47l-184 -194l-31 30l184 195q-8 8 -21 23.5t-46 67.5 t-58.5 108.5t-47 141.5t-21.5 171zM164 717q0 -84 19.5 -164t46 -135.5t53 -98.5t45.5 -63l20 -20l952 993q-6 8 -20 20.5t-59 44t-95.5 56t-128 44t-157.5 19.5q-279 0 -477.5 -202.5t-198.5 -493.5zM379 205q6 -8 20.5 -20.5t59.5 -44t95 -56.5t128 -44.5t158 -19.5 q279 0 477.5 203t198.5 494q0 84 -19.5 164t-46.5 135t-53.5 98t-44.5 64l-21 20z" />
<glyph unicode="&#xd9;" horiz-adv-x="1536" d="M225 543v891h41v-891q0 -221 146.5 -372t355.5 -151t355.5 151t146.5 372v891h41v-891q0 -236 -159 -399.5t-384 -163.5t-384 163.5t-159 399.5zM594 1905h51l154 -246h-41z" />
<glyph unicode="&#xda;" horiz-adv-x="1536" d="M225 543v891h41v-891q0 -221 146.5 -372t355.5 -151t355.5 151t146.5 372v891h41v-891q0 -236 -159 -399.5t-384 -163.5t-384 163.5t-159 399.5zM737 1638l154 246h51l-164 -246h-41z" />
<glyph unicode="&#xdb;" horiz-adv-x="1536" d="M225 543v891h41v-891q0 -221 146.5 -372t355.5 -151t355.5 151t146.5 372v891h41v-891q0 -236 -159 -399.5t-384 -163.5t-384 163.5t-159 399.5zM532 1638l216 246h40l216 -246h-52l-184 215l-184 -215h-52z" />
<glyph unicode="&#xdc;" horiz-adv-x="1536" d="M225 543v891h41v-891q0 -221 146.5 -372t355.5 -151t355.5 151t146.5 372v891h41v-891q0 -236 -159 -399.5t-384 -163.5t-384 163.5t-159 399.5zM563 1761.5q0 16.5 13.5 28.5t27.5 12t27.5 -12t13.5 -28.5t-13.5 -29t-27.5 -12.5t-27.5 12.5t-13.5 29zM891 1761.5 q0 16.5 13.5 28.5t27.5 12t27.5 -12t13.5 -28.5t-13.5 -29t-27.5 -12.5t-27.5 12.5t-13.5 29z" />
<glyph unicode="&#xdd;" d="M61 1434h52l501 -891l502 891h51l-532 -932v-502h-41v502zM604 1638l154 246h51l-164 -246h-41z" />
<glyph unicode="&#xde;" horiz-adv-x="1300" d="M246 -41v1516h41v-236h358q227 0 380 -146.5t153 -355.5t-153 -355t-380 -146h-358v-277h-41zM287 276h358q213 0 352.5 133.5t139.5 328t-139.5 327.5t-352.5 133h-358v-922z" />
<glyph unicode="&#xdf;" horiz-adv-x="1167" d="M195 0v1106q0 139 108.5 243.5t260 104.5t260 -104.5t108.5 -243.5q0 -66 -23.5 -123t-56.5 -91t-65.5 -58.5t-57.5 -34.5l-22 -11q14 -2 35.5 -9t78 -36.5t99.5 -68.5t78.5 -113t35.5 -162q0 -164 -123 -281.5t-297 -117.5h-61v41h61q160 0 269.5 105.5t109.5 253 t-109.5 253t-269.5 105.5h-61v41h10q137 0 232.5 91t95.5 216t-95.5 216t-232.5 91t-232 -91t-95 -216v-1106h-41z" />
<glyph unicode="&#xe0;" horiz-adv-x="1034" d="M82 256q0 109 74.5 180.5t212.5 95.5l409 72v31q0 143 -88 235.5t-219 92.5q-86 0 -160.5 -39t-105.5 -76l-31 -39l-31 31q4 6 13.5 17t40 40t65.5 50.5t92.5 39t116.5 17.5q147 0 247.5 -104.5t100.5 -264.5v-635h-41v236q-4 -10 -11 -28t-37 -62t-66.5 -77.5 t-105.5 -61t-148 -27.5q-141 0 -234.5 82.5t-93.5 193.5zM123 256q0 -96 80 -166t207 -70q156 0 262 111t106 279v153l-409 -71q-246 -43 -246 -236zM317 1434h52l153 -246h-41z" />
<glyph unicode="&#xe1;" horiz-adv-x="1034" d="M82 256q0 109 74.5 180.5t212.5 95.5l409 72v31q0 143 -88 235.5t-219 92.5q-86 0 -160.5 -39t-105.5 -76l-31 -39l-31 31q4 6 13.5 17t40 40t65.5 50.5t92.5 39t116.5 17.5q147 0 247.5 -104.5t100.5 -264.5v-635h-41v236q-4 -10 -11 -28t-37 -62t-66.5 -77.5 t-105.5 -61t-148 -27.5q-141 0 -234.5 82.5t-93.5 193.5zM123 256q0 -96 80 -166t207 -70q156 0 262 111t106 279v153l-409 -71q-246 -43 -246 -236zM471 1167l154 246h51l-164 -246h-41z" />
<glyph unicode="&#xe2;" horiz-adv-x="1034" d="M82 256q0 109 74.5 180.5t212.5 95.5l409 72v31q0 143 -88 235.5t-219 92.5q-86 0 -160.5 -39t-105.5 -76l-31 -39l-31 31q4 6 13.5 17t40 40t65.5 50.5t92.5 39t116.5 17.5q147 0 247.5 -104.5t100.5 -264.5v-635h-41v236q-4 -10 -11 -28t-37 -62t-66.5 -77.5 t-105.5 -61t-148 -27.5q-141 0 -234.5 82.5t-93.5 193.5zM123 256q0 -96 80 -166t207 -70q156 0 262 111t106 279v153l-409 -71q-246 -43 -246 -236zM266 1167l215 246h41l215 -246h-51l-184 215l-185 -215h-51z" />
<glyph unicode="&#xe3;" horiz-adv-x="1034" d="M82 256q0 109 74.5 180.5t212.5 95.5l409 72v31q0 143 -88 235.5t-219 92.5q-86 0 -160.5 -39t-105.5 -76l-31 -39l-31 31q4 6 13.5 17t40 40t65.5 50.5t92.5 39t116.5 17.5q147 0 247.5 -104.5t100.5 -264.5v-635h-41v236q-4 -10 -11 -28t-37 -62t-66.5 -77.5 t-105.5 -61t-148 -27.5q-141 0 -234.5 82.5t-93.5 193.5zM123 256q0 -96 80 -166t207 -70q156 0 262 111t106 279v153l-409 -71q-246 -43 -246 -236zM256 1167q0 102 38 153.5t95 51.5q63 0 135 -82t121 -82q92 0 92 164h41q0 -102 -38 -153.5t-95 -51.5q-63 0 -135 82 t-121 82q-92 0 -92 -164h-41z" />
<glyph unicode="&#xe4;" horiz-adv-x="1034" d="M82 256q0 109 74.5 180.5t212.5 95.5l409 72v31q0 143 -88 235.5t-219 92.5q-86 0 -160.5 -39t-105.5 -76l-31 -39l-31 31q4 6 13.5 17t40 40t65.5 50.5t92.5 39t116.5 17.5q147 0 247.5 -104.5t100.5 -264.5v-635h-41v236q-4 -10 -11 -28t-37 -62t-66.5 -77.5 t-105.5 -61t-148 -27.5q-141 0 -234.5 82.5t-93.5 193.5zM123 256q0 -96 80 -166t207 -70q156 0 262 111t106 279v153l-409 -71q-246 -43 -246 -236zM297 1290.5q0 16.5 13.5 28.5t27.5 12t27.5 -12t13.5 -28.5t-13.5 -29t-27.5 -12.5t-27.5 12.5t-13.5 29zM625 1290.5 q0 16.5 13 28.5t27.5 12t28 -12t13.5 -28.5t-13.5 -29t-28 -12.5t-27.5 12.5t-13 29z" />
<glyph unicode="&#xe5;" horiz-adv-x="1034" d="M82 256q0 109 74.5 180.5t212.5 95.5l409 72v31q0 143 -88 235.5t-219 92.5q-86 0 -160.5 -39t-105.5 -76l-31 -39l-31 31q4 6 13.5 17t40 40t65.5 50.5t92.5 39t116.5 17.5q147 0 247.5 -104.5t100.5 -264.5v-635h-41v236q-4 -10 -11 -28t-37 -62t-66.5 -77.5 t-105.5 -61t-148 -27.5q-141 0 -234.5 82.5t-93.5 193.5zM123 256q0 -96 80 -166t207 -70q156 0 262 111t106 279v153l-409 -71q-246 -43 -246 -236zM317 1311q0 78 54.5 131t130.5 53t130 -53t54 -131t-54 -131.5t-130 -53.5t-130.5 53.5t-54.5 131.5zM358 1310.5 q0 -61.5 41 -102.5t102.5 -41t102.5 41t41 102.5t-41 102.5t-102.5 41t-102.5 -41t-41 -102.5z" />
<glyph unicode="&#xe6;" horiz-adv-x="1730" d="M82 256q0 119 87 197.5t230 78.5h379v103q0 143 -88 235.5t-219 92.5q-86 0 -160.5 -39t-105.5 -76l-31 -39l-31 31q4 6 13.5 17t40 40t65.5 50.5t92.5 39t116.5 17.5q84 0 148.5 -32t99.5 -77t56.5 -90t27.5 -76l6 -33q4 12 13 33t44 74t76 94t109.5 74t146.5 33 q160 0 290 -145.5t130 -346.5v-20h-799q8 -211 122 -341.5t278 -130.5q59 0 115.5 19.5t93 46.5t64.5 53.5t40 44.5l14 21l31 -21q-4 -8 -14.5 -22.5t-44 -49t-71.5 -61t-100.5 -49t-127.5 -22.5q-88 0 -164 33.5t-119 81.5t-74 96.5t-43 82.5l-10 33q-2 -14 -9 -35.5 t-37 -78t-71 -99.5t-115.5 -78.5t-166.5 -35.5q-141 0 -234.5 82.5t-93.5 193.5zM123 256q0 -96 80 -166t207 -70q156 0 262 111t106 279v82h-379q-127 0 -201.5 -67t-74.5 -169zM819 532h758q-8 180 -123 305.5t-256 125.5q-147 0 -263 -131.5t-116 -299.5z" />
<glyph unicode="&#xe7;" horiz-adv-x="1064" d="M113 492q0 211 141 361.5t330 150.5q70 0 132 -21.5t104 -51.5t73 -59.5t45 -52.5l14 -20l-30 -21q-4 8 -13.5 20.5t-41 44t-67.5 56.5t-94.5 44.5t-121.5 19.5q-172 0 -301 -137.5t-129 -334t129 -334t301 -137.5q100 0 184 46.5t119 93.5l35 45l30 -21q-4 -8 -14 -22.5 t-45 -49t-74 -61t-102.5 -49t-132.5 -22.5l-52 -103q20 10 62 10q61 0 102 -41t41 -102q0 -63 -49 -108.5t-125 -45.5q-37 0 -72.5 12.5t-52.5 24.5l-18 15l20 30q51 -41 123 -41q59 0 96 33t37 80q0 113 -112 113q-18 0 -36 -5.5t-28 -11.5l-8 -4l-20 21l61 123 q-174 8 -307 155.5t-133 356.5z" />
<glyph unicode="&#xe8;" horiz-adv-x="1126" d="M113 492q0 217 135 364.5t315 147.5t315.5 -147.5t135.5 -364.5v-21h-860q8 -190 134 -320.5t296 -130.5q100 0 184 46.5t119 93.5l35 45l30 -21q-4 -8 -14 -22.5t-45 -49t-74 -61t-102.5 -49t-132.5 -22.5q-188 0 -329.5 150.5t-141.5 361.5zM154 512h819 q0 188 -123 319.5t-287 131.5t-286.5 -131.5t-122.5 -319.5zM399 1434h52l153 -246h-41z" />
<glyph unicode="&#xe9;" horiz-adv-x="1126" d="M113 492q0 217 135 364.5t315 147.5t315.5 -147.5t135.5 -364.5v-21h-860q8 -190 134 -320.5t296 -130.5q100 0 184 46.5t119 93.5l35 45l30 -21q-4 -8 -14 -22.5t-45 -49t-74 -61t-102.5 -49t-132.5 -22.5q-188 0 -329.5 150.5t-141.5 361.5zM154 512h819 q0 188 -123 319.5t-287 131.5t-286.5 -131.5t-122.5 -319.5zM543 1167l153 246h52l-164 -246h-41z" />
<glyph unicode="&#xea;" horiz-adv-x="1126" d="M113 492q0 217 135 364.5t315 147.5t315.5 -147.5t135.5 -364.5v-21h-860q8 -190 134 -320.5t296 -130.5q100 0 184 46.5t119 93.5l35 45l30 -21q-4 -8 -14 -22.5t-45 -49t-74 -61t-102.5 -49t-132.5 -22.5q-188 0 -329.5 150.5t-141.5 361.5zM154 512h819 q0 188 -123 319.5t-287 131.5t-286.5 -131.5t-122.5 -319.5zM338 1167l215 246h41l215 -246h-51l-185 215l-184 -215h-51z" />
<glyph unicode="&#xeb;" horiz-adv-x="1126" d="M113 492q0 217 135 364.5t315 147.5t315.5 -147.5t135.5 -364.5v-21h-860q8 -190 134 -320.5t296 -130.5q100 0 184 46.5t119 93.5l35 45l30 -21q-4 -8 -14 -22.5t-45 -49t-74 -61t-102.5 -49t-132.5 -22.5q-188 0 -329.5 150.5t-141.5 361.5zM154 512h819 q0 188 -123 319.5t-287 131.5t-286.5 -131.5t-122.5 -319.5zM369 1290.5q0 16.5 12 28.5t28.5 12t29 -12t12.5 -28.5t-12.5 -29t-29 -12.5t-28.5 12.5t-12 29zM696 1290.5q0 16.5 12.5 28.5t29 12t28.5 -12t12 -28.5t-12 -29t-28.5 -12.5t-29 12.5t-12.5 29z" />
<glyph unicode="&#xec;" horiz-adv-x="450" d="M31 1434h51l154 -246h-41zM195 0v983h41v-983h-41z" />
<glyph unicode="&#xed;" horiz-adv-x="450" d="M195 0v983h41v-983h-41zM195 1167l153 246h51l-163 -246h-41z" />
<glyph unicode="&#xee;" horiz-adv-x="450" d="M-20 1167l215 246h41l215 -246h-52l-184 215l-184 -215h-51zM195 0v983h41v-983h-41z" />
<glyph unicode="&#xef;" horiz-adv-x="450" d="M10 1290.5q0 16.5 13.5 28.5t28 12t27.5 -12t13 -28.5t-13 -29t-27.5 -12.5t-28 12.5t-13.5 29zM195 0v983h41v-983h-41zM338 1290.5q0 16.5 13.5 28.5t27.5 12t27.5 -12t13.5 -28.5t-13.5 -29t-27.5 -12.5t-27.5 12.5t-13.5 29z" />
<glyph unicode="&#xf0;" horiz-adv-x="1157" d="M113 461q0 195 132 338t298 143q94 0 173 -36t125 -87t77.5 -102t44.5 -86l10 -37q0 150 -42 286t-101.5 223t-122 153.5t-101.5 96t-43 29.5l-235 -174l-21 31l225 164q-63 41 -132.5 73.5t-106.5 47.5l-37 12l20 31q133 -41 287 -144l236 174l20 -30l-225 -164 q16 -10 45 -30.5t101.5 -94.5t128 -160t100.5 -227t45 -297q0 -287 -133 -450.5t-328 -163.5q-172 0 -306 142t-134 339zM154 461q0 -180 120.5 -310.5t278.5 -130.5t278.5 130.5t120.5 310.5t-120.5 310t-278.5 130t-278.5 -130t-120.5 -310z" />
<glyph unicode="&#xf1;" horiz-adv-x="1187" d="M195 0v983h41v-246q4 10 11 28.5t36.5 65t66.5 81t105.5 63.5t148.5 29q164 0 276.5 -119t112.5 -301v-584h-41v584q0 166 -100 272.5t-248 106.5q-156 0 -262 -113t-106 -287v-563h-41zM344 1167q0 102 38 153.5t95 51.5q63 0 135 -82t121 -82q92 0 92 164h41 q0 -102 -38 -153.5t-95 -51.5q-63 0 -135 82t-121 82q-92 0 -92 -164h-41z" />
<glyph unicode="&#xf2;" horiz-adv-x="1187" d="M113 491.5q0 210.5 141 361.5t329.5 151t330 -151t141.5 -361.5t-141.5 -361t-330 -150.5t-329.5 150.5t-141 361zM154 491.5q0 -196.5 129 -334t301 -137.5t301 137.5t129 334t-129 334t-301 137.5t-301 -137.5t-129 -334zM410 1434h51l153 -246h-41z" />
<glyph unicode="&#xf3;" horiz-adv-x="1187" d="M113 491.5q0 210.5 141 361.5t329.5 151t330 -151t141.5 -361.5t-141.5 -361t-330 -150.5t-329.5 150.5t-141 361zM154 491.5q0 -196.5 129 -334t301 -137.5t301 137.5t129 334t-129 334t-301 137.5t-301 -137.5t-129 -334zM563 1167l154 246h51l-164 -246h-41z" />
<glyph unicode="&#xf4;" horiz-adv-x="1187" d="M113 491.5q0 210.5 141 361.5t329.5 151t330 -151t141.5 -361.5t-141.5 -361t-330 -150.5t-329.5 150.5t-141 361zM154 491.5q0 -196.5 129 -334t301 -137.5t301 137.5t129 334t-129 334t-301 137.5t-301 -137.5t-129 -334zM348 1167l215 246h41l215 -246h-51l-184 215 l-185 -215h-51z" />
<glyph unicode="&#xf5;" horiz-adv-x="1187" d="M113 491.5q0 210.5 141 361.5t329.5 151t330 -151t141.5 -361.5t-141.5 -361t-330 -150.5t-329.5 150.5t-141 361zM154 491.5q0 -196.5 129 -334t301 -137.5t301 137.5t129 334t-129 334t-301 137.5t-301 -137.5t-129 -334zM324 1167q0 102 37.5 153.5t95.5 51.5 q63 0 135 -82t121 -82q92 0 92 164h41q0 -102 -38 -153.5t-95 -51.5q-63 0 -135 82t-121 82q-92 0 -92 -164h-41z" />
<glyph unicode="&#xf6;" horiz-adv-x="1187" d="M113 491.5q0 210.5 141 361.5t329.5 151t330 -151t141.5 -361.5t-141.5 -361t-330 -150.5t-329.5 150.5t-141 361zM154 491.5q0 -196.5 129 -334t301 -137.5t301 137.5t129 334t-129 334t-301 137.5t-301 -137.5t-129 -334zM379 1290.5q0 16.5 13.5 28.5t27.5 12 t27.5 -12t13.5 -28.5t-13.5 -29t-27.5 -12.5t-27.5 12.5t-13.5 29zM707 1290.5q0 16.5 13 28.5t27.5 12t27.5 -12t13 -28.5t-13 -29t-27.5 -12.5t-27.5 12.5t-13 29z" />
<glyph unicode="&#xf7;" horiz-adv-x="1003" d="M102 584v41h799v-41h-799zM461 225.5q0 16.5 13 28.5t27.5 12t28 -12t13.5 -28.5t-13.5 -29t-28 -12.5t-27.5 12.5t-13 29zM461 983q0 16 13 28.5t27.5 12.5t28 -12.5t13.5 -28.5t-13.5 -28.5t-28 -12.5t-27.5 12.5t-13 28.5z" />
<glyph unicode="&#xf8;" horiz-adv-x="1187" d="M82 0l154 154q-4 6 -13.5 16t-30 44t-37 71t-29.5 93t-13 114q0 211 141 361.5t330 150.5q86 0 165.5 -36t114.5 -71l37 -37l154 154l30 -31l-153 -154q4 -6 13 -16t29.5 -44t37 -70.5t30 -93t13.5 -113.5q0 -211 -141.5 -361.5t-329.5 -150.5q-86 0 -166 35.5t-115 70.5 l-37 37l-153 -154zM154 492q0 -82 25.5 -159t49.5 -112l27 -37l625 645q-12 14 -36 37t-101.5 60t-159.5 37q-172 0 -301 -137.5t-129 -333.5zM287 154q12 -14 35.5 -37t101.5 -60t160 -37q172 0 301 137.5t129 334.5q0 82 -25.5 158.5t-50.5 111.5l-27 37z" />
<glyph unicode="&#xf9;" horiz-adv-x="1208" d="M195 399v584h41v-584q0 -166 100 -272.5t248 -106.5q156 0 262 113t106 287v563h41v-983h-41v246q-4 -10 -11 -28.5t-37 -65t-66.5 -81t-105 -63t-148.5 -28.5q-164 0 -276.5 118.5t-112.5 300.5zM420 1434h51l154 -246h-41z" />
<glyph unicode="&#xfa;" horiz-adv-x="1208" d="M195 399v584h41v-584q0 -166 100 -272.5t248 -106.5q156 0 262 113t106 287v563h41v-983h-41v246q-4 -10 -11 -28.5t-37 -65t-66.5 -81t-105 -63t-148.5 -28.5q-164 0 -276.5 118.5t-112.5 300.5zM563 1167l154 246h51l-164 -246h-41z" />
<glyph unicode="&#xfb;" horiz-adv-x="1208" d="M195 399v584h41v-584q0 -166 100 -272.5t248 -106.5q156 0 262 113t106 287v563h41v-983h-41v246q-4 -10 -11 -28.5t-37 -65t-66.5 -81t-105 -63t-148.5 -28.5q-164 0 -276.5 118.5t-112.5 300.5zM358 1167l215 246h41l215 -246h-51l-184 215l-184 -215h-52z" />
<glyph unicode="&#xfc;" horiz-adv-x="1208" d="M195 399v584h41v-584q0 -166 100 -272.5t248 -106.5q156 0 262 113t106 287v563h41v-983h-41v246q-4 -10 -11 -28.5t-37 -65t-66.5 -81t-105 -63t-148.5 -28.5q-164 0 -276.5 118.5t-112.5 300.5zM389 1290.5q0 16.5 12.5 28.5t28.5 12t28.5 -12t12.5 -28.5t-12.5 -29 t-28.5 -12.5t-28.5 12.5t-12.5 29zM717 1290.5q0 16.5 12 28.5t28.5 12t29 -12t12.5 -28.5t-12.5 -29t-29 -12.5t-28.5 12.5t-12 29z" />
<glyph unicode="&#xfd;" horiz-adv-x="962" d="M51 983h41l379 -932l379 932h41l-492 -1208q-82 -205 -235 -205q-23 0 -43.5 5t-30.5 11l-8 4v41q31 -20 82 -20q128 0 194 164l93 225zM461 1167l153 246h52l-164 -246h-41z" />
<glyph unicode="&#xfe;" d="M195 -430v1864h41v-738q4 12 14 33t47 74t80 94t115.5 74t152.5 33q174 0 312.5 -152t138.5 -360.5t-138.5 -360t-312.5 -151.5q-80 0 -151.5 31.5t-116.5 76.5t-79 90t-48 76l-14 33v-717h-41zM236 491.5q0 -194.5 125.5 -333t283.5 -138.5t284 138.5t126 333t-126 333 t-284 138.5t-283.5 -138.5t-125.5 -333z" />
<glyph unicode="&#xff;" horiz-adv-x="962" d="M51 983h41l379 -932l379 932h41l-492 -1208q-82 -205 -235 -205q-23 0 -43.5 5t-30.5 11l-8 4v41q31 -20 82 -20q128 0 194 164l93 225zM266 1290.5q0 16.5 12.5 28.5t29 12t28.5 -12t12 -28.5t-12 -29t-28.5 -12.5t-29 12.5t-12.5 29zM594 1290.5q0 16.5 12 28.5 t28.5 12t29 -12t12.5 -28.5t-12.5 -29t-29 -12.5t-28.5 12.5t-12 29z" />
<glyph unicode="&#x152;" horiz-adv-x="1996" d="M123 717q0 309 210 513t537 204h1024v-41h-778v-625h615v-41h-615v-686h799v-41h-1045q-328 0 -537.5 204t-209.5 513zM164 717q0 -295 196.5 -485.5t509.5 -190.5h205v1352h-205q-313 0 -509.5 -190.5t-196.5 -485.5z" />
<glyph unicode="&#x153;" horiz-adv-x="1904" d="M113 491.5q0 217.5 133 365t307 147.5q88 0 165 -37t121 -90.5t76.5 -106.5t45.5 -90l12 -37q2 8 6 20.5t19.5 50.5t35 71.5t53 75.5t72.5 72t94.5 50.5t118.5 20.5q160 0 290 -149.5t130 -362.5v-21h-799q8 -190 126 -320.5t274 -130.5q59 0 115.5 19.5t93 46.5 t64.5 53.5t42 44.5l12 21l31 -21q-4 -8 -14.5 -22.5t-44 -49t-71.5 -61t-100.5 -49t-127.5 -22.5q-88 0 -165 36.5t-121 90t-77 105.5t-45 89l-12 37q-4 -14 -13.5 -39t-44 -86t-77.5 -108.5t-120 -86t-165 -38.5q-174 0 -307 147t-133 364.5zM154 491.5 q0 -200.5 119.5 -336t279.5 -135.5t279.5 135.5t119.5 336t-119.5 336t-279.5 135.5t-279.5 -135.5t-119.5 -336zM993 512h758q-8 195 -122 323t-257 128q-147 0 -263 -134.5t-116 -316.5z" />
<glyph unicode="&#x178;" d="M61 1434h52l501 -891l502 891h51l-532 -932v-502h-41v502zM410 1761.5q0 16.5 12 28.5t28.5 12t29 -12t12.5 -28.5t-12.5 -29t-29 -12.5t-28.5 12.5t-12 29zM737 1761.5q0 16.5 12.5 28.5t29 12t28.5 -12t12 -28.5t-12 -29t-28.5 -12.5t-29 12.5t-12.5 29z" />
<glyph unicode="&#x2c6;" horiz-adv-x="593" d="M61 1167l215 246h41l215 -246h-51l-184 215l-184 -215h-52z" />
<glyph unicode="&#x2da;" horiz-adv-x="491" d="M61 1229q0 78 53.5 131t131.5 53t131 -53t53 -131t-53 -131.5t-131 -53.5t-131.5 53.5t-53.5 131.5zM102 1228.5q0 -61.5 41 -102.5t102.5 -41t102.5 41t41 102.5t-41 102.5t-102.5 41t-102.5 -41t-41 -102.5z" />
<glyph unicode="&#x2dc;" horiz-adv-x="645" d="M61 1188q0 102 38 153.5t96 51.5q63 0 134.5 -82t121.5 -82q92 0 92 164h41q0 -102 -38 -153.5t-95 -51.5q-63 0 -135 82t-121 82q-92 0 -93 -164h-41z" />
<glyph unicode="&#x401;" horiz-adv-x="1280" d="M246 0v1434h932v-41h-891v-625h727v-41h-727v-686h911v-41h-952zM512 1761.5q0 16.5 12.5 28.5t28.5 12t28.5 -12t12.5 -28.5t-12.5 -29t-28.5 -12.5t-28.5 12.5t-12.5 29zM840 1761.5q0 16.5 12 28.5t28.5 12t29 -12t12.5 -28.5t-12.5 -29t-29 -12.5t-28.5 12.5t-12 29z " />
<glyph unicode="&#x402;" horiz-adv-x="1443" d="M0 1393v41h840v-41h-400v-656q20 16 55 40t142.5 64t212.5 40q201 0 315.5 -119t114.5 -332t-114.5 -331.5t-315.5 -118.5v40q186 0 287.5 105.5t101.5 304.5t-101.5 304.5t-287.5 105.5q-104 0 -206.5 -39t-151.5 -76l-52 -39v-686h-41v1393h-399z" />
<glyph unicode="&#x403;" horiz-adv-x="1126" d="M246 0v1434h839v-41h-798v-1393h-41zM655 1638l154 246h51l-164 -246h-41z" />
<glyph unicode="&#x404;" horiz-adv-x="1525" d="M123 717q0 305 212 521t505 216q109 0 209 -32.5t165.5 -80t114.5 -93.5t72 -79l22 -32l-30 -21q-8 12 -22.5 31.5t-66 71t-110.5 91.5t-155.5 71.5t-198.5 31.5q-276 0 -473 -194.5t-203 -470.5h819v-41h-819q0 -283 199.5 -485t476.5 -202q102 0 197.5 31t156.5 74 t108.5 87t69.5 75l21 30l30 -20q-8 -12 -23.5 -33.5t-69.5 -77t-116.5 -96.5t-164 -75.5t-209.5 -34.5q-293 0 -505 216t-212 521z" />
<glyph unicode="&#x405;" horiz-adv-x="1116" d="M102 184l31 31q4 -8 14.5 -21.5t46 -46t78.5 -58.5t113 -47.5t147 -21.5q186 0 303 103t117 246q0 92 -45 156.5t-117.5 101.5t-159.5 64.5t-174 57t-160 67.5t-118 105.5t-45 163.5q0 152 123 260.5t317 108.5q72 0 139.5 -18.5t112.5 -43t80 -50t51 -44.5l17 -18 l-31 -31q-6 6 -16.5 17.5t-46 40t-74.5 50t-102.5 39t-129.5 17.5q-178 0 -288.5 -96t-110.5 -232q0 -86 45 -148.5t118 -97t160 -61t174 -57.5t159.5 -70t117.5 -110.5t45 -171.5q0 -160 -130 -274.5t-331 -114.5q-84 0 -158.5 21.5t-121.5 51t-83 59t-50 52.5z" />
<glyph unicode="&#x406;" horiz-adv-x="532" d="M246 0v1434h41v-1434h-41z" />
<glyph unicode="&#x407;" horiz-adv-x="573" d="M82 1761.5q0 16.5 12 28.5t28.5 12t29 -12t12.5 -28.5t-12.5 -29t-29 -12.5t-28.5 12.5t-12 29zM266 0v1434h41v-1434h-41zM410 1761.5q0 16.5 12 28.5t28.5 12t29 -12t12.5 -28.5t-12.5 -29t-29 -12.5t-28.5 12.5t-12 29z" />
<glyph unicode="&#x408;" horiz-adv-x="983" d="M20 123l31 31q12 -14 33.5 -37t99.5 -60t164 -37q156 0 262.5 111t106.5 279v1024h41v-1024q0 -182 -120 -306t-290 -124q-59 0 -115.5 14t-93.5 35.5t-64.5 43t-41.5 36.5z" />
<glyph unicode="&#x409;" horiz-adv-x="2160" d="M-10 0v41q51 -20 102 -21q63 0 113.5 39t96.5 139.5t71.5 304.5t25.5 501v430h789v-574h389q197 0 329 -126t132 -304t-132 -304t-329 -126h-430v1393h-707v-389q0 -309 -27.5 -520.5t-78.5 -317t-108.5 -146t-133.5 -40.5q-23 0 -48.5 5t-39.5 11zM1188 41h389 q182 0 301 112.5t119 276.5t-119 276.5t-301 112.5h-389v-778z" />
<glyph unicode="&#x40a;" horiz-adv-x="2150" d="M246 0v1434h41v-594h850v594h41v-594h399q197 0 324 -121t127 -299t-127 -299t-324 -121h-440v799h-850v-799h-41zM1178 41h399q182 0 296 107.5t114 271.5t-114 271.5t-296 107.5h-399v-758z" />
<glyph unicode="&#x40b;" horiz-adv-x="1484" d="M0 1393v41h840v-41h-400v-656q20 16 55 40t142.5 64t212.5 40q199 0 314.5 -115t115.5 -315v-451h-41v451q0 184 -102.5 286.5t-286.5 102.5q-104 0 -206.5 -39t-151.5 -76l-52 -39v-686h-41v1393h-399z" />
<glyph unicode="&#x40c;" horiz-adv-x="1310" d="M246 0v1434h41v-973l880 973h52l-543 -605l594 -829h-51l-564 799h-10l-358 -389v-410h-41zM676 1638l153 246h52l-164 -246h-41z" />
<glyph unicode="&#x40e;" horiz-adv-x="1218" d="M61 1434h41l533 -994l481 994h41l-563 -1168q-74 -152 -148.5 -219t-179.5 -67q-23 0 -48 5t-40 11l-14 4v41q51 -20 102 -21q172 0 287 246l61 133zM379 1884h41q0 -92 56 -148.5t148.5 -56.5t148.5 56.5t56 148.5h41q0 -106 -68.5 -176t-177 -70t-177 70t-68.5 176z " />
<glyph unicode="&#x40f;" horiz-adv-x="1515" d="M246 0v1434h41v-1393h942v1393h41v-1434h-492v-307h-41v307h-491z" />
<glyph unicode="&#x410;" horiz-adv-x="1351" d="M61 0l594 1434h41l594 -1434h-41l-184 451h-778l-185 -451h-41zM307 492h737l-368 890z" />
<glyph unicode="&#x411;" horiz-adv-x="1300" d="M246 0v1434h819v-41h-778v-574h450q190 0 315.5 -118.5t125.5 -290.5t-125 -291t-316 -119h-491zM287 41h450q174 0 287 106.5t113 262t-113 262t-287 106.5h-450v-737z" />
<glyph unicode="&#x412;" horiz-adv-x="1341" d="M246 0v1434h502q174 0 276 -96.5t102 -252.5q0 -74 -24.5 -134t-58 -93t-68.5 -54.5t-60 -29.5l-24 -6v-10q12 -2 32.5 -6t74 -30t94.5 -61.5t73.5 -107.5t32.5 -164q0 -172 -114.5 -280.5t-305.5 -108.5h-532zM287 41h491q174 0 276.5 96t102.5 252t-102.5 252 t-276.5 96h-491v-696zM287 778h461q160 0 248.5 84t88.5 223.5t-88.5 223.5t-248.5 84h-461v-615z" />
<glyph unicode="&#x413;" horiz-adv-x="1126" d="M246 0v1434h839v-41h-798v-1393h-41z" />
<glyph unicode="&#x414;" horiz-adv-x="1423" d="M0 41h82q10 8 28.5 28.5t64.5 98.5t81 177t63.5 275.5t28.5 383.5v430h809v-1393h184v-348h-41v307h-1259v-307h-41v348zM133 41h983v1352h-727v-389q0 -201 -26.5 -374t-63.5 -276.5t-75 -178.5t-64 -105z" />
<glyph unicode="&#x415;" horiz-adv-x="1280" d="M246 0v1434h932v-41h-891v-625h727v-41h-727v-686h911v-41h-952z" />
<glyph unicode="&#x416;" horiz-adv-x="1863" d="M41 0l594 829l-543 605h51l768 -850v850h41v-850l768 850h52l-543 -605l594 -829h-51l-564 799h-10l-246 -267v-532h-41v532l-245 267h-11l-563 -799h-51z" />
<glyph unicode="&#x417;" horiz-adv-x="1116" d="M82 184l31 31q4 -8 14 -21.5t46 -46t79 -58.5t112.5 -47.5t147.5 -21.5q186 0 303 104.5t117 254t-117 254t-303 104.5h-164v41h164q172 0 275.5 91.5t103.5 226.5t-103.5 226t-275.5 91q-104 0 -196.5 -41t-131.5 -82l-41 -41l-30 31q6 6 17 18.5t49 42t81 53t111.5 42 t140.5 18.5q186 0 303 -104.5t117 -253.5q0 -78 -30 -141.5t-72 -98.5t-83.5 -58.5t-70.5 -31.5l-31 -8q14 -2 35.5 -8.5t78 -34t99.5 -65.5t79 -110.5t36 -160.5q0 -166 -129 -282.5t-332 -116.5q-84 0 -158.5 21.5t-122 51t-83 59t-50.5 52.5z" />
<glyph unicode="&#x418;" horiz-adv-x="1587" d="M246 0v1434h41v-1352l1024 1352h30v-1434h-41v1352l-1024 -1352h-30z" />
<glyph unicode="&#x419;" horiz-adv-x="1587" d="M246 0v1434h41v-1352l1024 1352h30v-1434h-41v1352l-1024 -1352h-30zM553 1884h41q0 -92 56.5 -148.5t148.5 -56.5t148.5 56.5t56.5 148.5h40q0 -106 -69.5 -176t-176 -70t-176 70t-69.5 176z" />
<glyph unicode="&#x41a;" horiz-adv-x="1310" d="M246 0v1434h41v-973l880 973h52l-543 -605l594 -829h-51l-564 799h-10l-358 -389v-410h-41z" />
<glyph unicode="&#x41b;" horiz-adv-x="1495" d="M-10 0v41q51 -20 102 -21q63 0 113.5 39t96.5 139.5t71.5 304.5t25.5 501v430h850v-1434h-41v1393h-768v-389q0 -309 -27.5 -520.5t-78.5 -317t-108.5 -146t-133.5 -40.5q-23 0 -48.5 5t-39.5 11z" />
<glyph unicode="&#x41c;" horiz-adv-x="1863" d="M246 0v1434h30l656 -912l655 912h31v-1434h-41v1352l-645 -901l-645 901v-1352h-41z" />
<glyph unicode="&#x41d;" horiz-adv-x="1525" d="M246 0v1434h41v-686h952v686h41v-1434h-41v707h-952v-707h-41z" />
<glyph unicode="&#x41e;" horiz-adv-x="1679" d="M123 717q0 305 212 521t505 216t504.5 -216t211.5 -521t-211.5 -521t-504.5 -216t-505 216t-212 521zM164 717q0 -291 198.5 -494t477 -203t477.5 203t199 494t-199 493.5t-477.5 202.5t-477 -202.5t-198.5 -493.5z" />
<glyph unicode="&#x41f;" horiz-adv-x="1525" d="M246 0v1434h1034v-1434h-41v1393h-952v-1393h-41z" />
<glyph unicode="&#x420;" horiz-adv-x="1300" d="M246 0v1434h481q197 0 324 -121t127 -299t-127 -299t-324 -121h-440v-594h-41zM287 635h440q182 0 296 107.5t114 271.5t-114 271.5t-296 107.5h-440v-758z" />
<glyph unicode="&#x421;" horiz-adv-x="1525" d="M123 717q0 305 212 521t505 216q109 0 209 -32.5t165.5 -80t114.5 -93.5t72 -79l22 -32l-30 -21q-8 12 -22.5 31.5t-66 71t-110.5 91.5t-155.5 71.5t-198.5 31.5q-279 0 -477.5 -202.5t-198.5 -493.5t198.5 -494t477.5 -203q102 0 197.5 31t156.5 74t108.5 87t69.5 75 l21 30l30 -20q-8 -12 -23.5 -33.5t-69.5 -77t-116.5 -96.5t-164 -75.5t-209.5 -34.5q-293 0 -505 216t-212 521z" />
<glyph unicode="&#x422;" horiz-adv-x="1105" d="M41 1393v41h1024v-41h-492v-1393h-41v1393h-491z" />
<glyph unicode="&#x423;" horiz-adv-x="1218" d="M61 1434h41l533 -994l481 994h41l-563 -1168q-74 -152 -148.5 -219t-179.5 -67q-23 0 -48 5t-40 11l-14 4v41q51 -20 102 -21q172 0 287 246l61 133z" />
<glyph unicode="&#x424;" horiz-adv-x="1720" d="M123 737.5q0 239.5 195.5 406.5t521.5 167v164h41v-164q326 0 521 -167t195 -406.5t-195.5 -406.5t-520.5 -167v-205h-41v205q-326 0 -521.5 167t-195.5 406.5zM164 737.5q0 -225.5 182.5 -379t493.5 -153.5v1065q-311 0 -493.5 -153.5t-182.5 -379zM881 205 q311 0 493 153.5t182 379t-182 379t-493 153.5v-1065z" />
<glyph unicode="&#x425;" d="M61 0l533 737l-502 697h51l471 -666l471 666h52l-502 -697l532 -737h-51l-502 707l-501 -707h-52z" />
<glyph unicode="&#x426;" horiz-adv-x="1525" d="M246 0v1434h41v-1393h932v1393h41v-1393h184v-348h-41v307h-1157z" />
<glyph unicode="&#x427;" horiz-adv-x="1433" d="M225 1004v430h41v-430q0 -201 115 -316t315 -115q74 0 148 18.5t126 43t94 50.5t62 44l21 19v686h41v-1434h-41v696q-8 -6 -21.5 -17t-59.5 -40t-96 -50.5t-125 -39t-149 -17.5q-215 0 -343 128t-128 344z" />
<glyph unicode="&#x428;" horiz-adv-x="2048" d="M246 0v1434h41v-1393h717v1393h40v-1393h717v1393h41v-1434h-1556z" />
<glyph unicode="&#x429;" horiz-adv-x="2068" d="M246 0v1434h41v-1393h717v1393h40v-1393h717v1393h41v-1393h185v-348h-41v307h-1700z" />
<glyph unicode="&#x42a;" horiz-adv-x="1402" d="M0 1393v41h410v-574h409q197 0 329 -126t132 -304t-132 -304t-329 -126h-450v1393h-369zM410 41h409q182 0 301 112.5t119 276.5t-119 276.5t-301 112.5h-409v-778z" />
<glyph unicode="&#x42b;" horiz-adv-x="1751" d="M246 0v1434h41v-574h409q197 0 329 -126t132 -304t-132 -304t-329 -126h-450zM287 41h409q182 0 301 112.5t119 276.5t-118.5 276.5t-301.5 112.5h-409v-778zM1464 0v1434h41v-1434h-41z" />
<glyph unicode="&#x42c;" horiz-adv-x="1300" d="M246 0v1434h41v-574h430q197 0 329 -126t132 -304t-132 -304t-329 -126h-471zM287 41h430q182 0 301 112.5t119 276.5t-119 276.5t-301 112.5h-430v-778z" />
<glyph unicode="&#x42d;" horiz-adv-x="1525" d="M102 297l31 20q8 -12 22.5 -31.5t65.5 -70.5t110.5 -91t156 -72t198.5 -32q276 0 476 202t200 485h-819v41h819q-6 276 -202.5 470.5t-473.5 194.5q-102 0 -197.5 -30.5t-157 -73.5t-108.5 -87t-67 -75l-23 -31l-31 21q8 12 23.5 33.5t70 77t117 96t164 75.5t209.5 35 q293 0 505 -216t212 -521t-212 -521t-505 -216q-109 0 -209 32.5t-165.5 79.5t-115 93t-71.5 79z" />
<glyph unicode="&#x42e;" horiz-adv-x="2109" d="M246 0v1434h41v-686h348q8 295 208.5 500.5t467.5 205.5q274 0 475 -214t201 -523t-201 -523t-475 -214q-272 0 -470 207.5t-206 519.5h-348v-707h-41zM676 717q0 -295 188.5 -496t446.5 -201t446.5 201t188.5 496t-188.5 495.5t-446.5 200.5t-446.5 -200.5 t-188.5 -495.5z" />
<glyph unicode="&#x42f;" horiz-adv-x="1341" d="M123 0l369 645q-14 2 -37 7t-81.5 33t-102.5 65.5t-80.5 113.5t-36.5 170q0 172 120 286t310 114h512v-1434h-41v635h-533l-348 -635h-51zM195 1034.5q0 -155.5 107.5 -257t281.5 -101.5h471v717h-471q-174 0 -281.5 -101.5t-107.5 -257z" />
<glyph unicode="&#x430;" horiz-adv-x="1034" d="M82 256q0 109 74.5 180.5t212.5 95.5l409 72v31q0 143 -88 235.5t-219 92.5q-86 0 -160.5 -39t-105.5 -76l-31 -39l-31 31q4 6 13.5 17t40 40t65.5 50.5t92.5 39t116.5 17.5q147 0 247.5 -104.5t100.5 -264.5v-635h-41v236q-4 -10 -11 -28t-37 -62t-66.5 -77.5 t-105.5 -61t-148 -27.5q-141 0 -234.5 82.5t-93.5 193.5zM123 256q0 -96 80 -166t207 -70q156 0 262 111t106 279v153l-409 -71q-246 -43 -246 -236z" />
<glyph unicode="&#x431;" horiz-adv-x="1157" d="M123 594q0 698 481 788q104 18 186 47t111 48l31 18l20 -31q-113 -80 -338 -123q-217 -41 -333.5 -213t-116.5 -534q4 14 12 37.5t42 83t78 105.5t124 84t174 38q166 0 298 -143t132 -338q0 -197 -134 -339t-306 -142q-195 0 -328 163.5t-133 450.5zM184 461 q0 -180 121 -310.5t278.5 -130.5t278.5 130.5t121 310.5t-121 310t-278.5 130t-278.5 -130t-121 -310z" />
<glyph unicode="&#x432;" horiz-adv-x="1044" d="M195 0v983h409q129 0 203 -67.5t74 -178.5q0 -51 -16.5 -93t-41 -65.5t-49 -40t-41.5 -22.5l-16 -4q8 -2 22.5 -5t49 -19.5t61.5 -41t49.5 -72.5t22.5 -108q0 -117 -81 -191.5t-216 -74.5h-430zM236 41h389q121 0 188.5 61.5t67.5 164t-67.5 164t-188.5 61.5h-389v-451z M236 532h368q113 0 174.5 55.5t61.5 149.5t-61.5 149.5t-174.5 55.5h-368v-410z" />
<glyph unicode="&#x433;" horiz-adv-x="839" d="M195 0v983h593v-41h-552v-942h-41z" />
<glyph unicode="&#x434;" horiz-adv-x="1105" d="M-10 41h82q8 8 20 24.5t44 76t56.5 129t44 184t19.5 241.5v287h614v-942h164v-287h-41v246h-962v-246h-41v287zM123 41h706v901h-532v-246q0 -190 -44 -354t-87 -231z" />
<glyph unicode="&#x435;" horiz-adv-x="1126" d="M113 492q0 217 135 364.5t315 147.5t315.5 -147.5t135.5 -364.5v-21h-860q8 -190 134 -320.5t296 -130.5q100 0 184 46.5t119 93.5l35 45l30 -21q-4 -8 -14 -22.5t-45 -49t-74 -61t-102.5 -49t-132.5 -22.5q-188 0 -329.5 150.5t-141.5 361.5zM154 512h819 q0 188 -123 319.5t-287 131.5t-286.5 -131.5t-122.5 -319.5z" />
<glyph unicode="&#x436;" horiz-adv-x="1429" d="M31 0l420 584l-359 399h51l541 -594v594h41v-594l541 594h51l-359 -399l420 -584h-51l-389 553h-10l-203 -215v-338h-41v338l-203 215h-10l-389 -553h-51z" />
<glyph unicode="&#x437;" horiz-adv-x="860" d="M72 143l30 31q4 -6 12.5 -16.5t36 -37t59.5 -47t83 -37t106 -16.5q133 0 215 70t82 166t-82 166t-215 70h-102v40h102q113 0 184.5 63.5t71.5 152t-71.5 152t-184.5 63.5q-78 0 -146.5 -33t-98.5 -66l-31 -35l-31 31q4 6 13.5 15.5t39 34t62.5 44t85 35t107 15.5 q127 0 212 -77t85 -179q0 -82 -49 -140.5t-98 -77.5l-47 -18q10 -2 25.5 -6t56.5 -22.5t71.5 -44t56 -75t25.5 -108.5q0 -113 -94 -194.5t-244 -81.5q-59 0 -115.5 16t-93 40.5t-64.5 49.5t-40 41z" />
<glyph unicode="&#x438;" horiz-adv-x="1208" d="M195 0v983h41v-901l727 901h30v-983h-41v901l-727 -901h-30z" />
<glyph unicode="&#x439;" horiz-adv-x="1208" d="M195 0v983h41v-901l727 901h30v-983h-41v901l-727 -901h-30zM348 1413h41q0 -92 56.5 -148.5t148.5 -56.5t148.5 56.5t56.5 148.5h41q0 -106 -70 -176t-176.5 -70t-176 70t-69.5 176z" />
<glyph unicode="&#x43a;" horiz-adv-x="1013" d="M195 0v983h41v-676l614 676h51l-358 -399l420 -584h-52l-389 553h-10l-276 -297v-256h-41z" />
<glyph unicode="&#x43b;" horiz-adv-x="1157" d="M-10 0v41q41 -20 82 -21q51 0 86 25t66.5 93.5t47 207.5t15.5 350v287h655v-983h-41v942h-573v-246q0 -219 -19.5 -365.5t-56.5 -220t-79 -102t-101 -28.5q-18 0 -39 5t-33 11z" />
<glyph unicode="&#x43c;" horiz-adv-x="1351" d="M195 0v983h30l441 -614l440 614h31v-983h-41v901l-430 -604l-430 604v-901h-41z" />
<glyph unicode="&#x43d;" horiz-adv-x="1198" d="M195 0v983h41v-461h706v461h41v-983h-41v481h-706v-481h-41z" />
<glyph unicode="&#x43e;" horiz-adv-x="1187" d="M113 491.5q0 210.5 141 361.5t329.5 151t330 -151t141.5 -361.5t-141.5 -361t-330 -150.5t-329.5 150.5t-141 361zM154 491.5q0 -196.5 129 -334t301 -137.5t301 137.5t129 334t-129 334t-301 137.5t-301 -137.5t-129 -334z" />
<glyph unicode="&#x43f;" horiz-adv-x="1198" d="M195 0v983h788v-983h-41v942h-706v-942h-41z" />
<glyph unicode="&#x440;" d="M195 -430v1413h41v-287q4 12 14 33t47 74t80 94t115.5 74t152.5 33q174 0 312.5 -152t138.5 -360.5t-138.5 -360t-312.5 -151.5q-80 0 -151.5 31.5t-116.5 76.5t-79 90t-48 76l-14 33v-717h-41zM236 491.5q0 -194.5 125.5 -333t283.5 -138.5t284 138.5t126 333t-126 333 t-284 138.5t-283.5 -138.5t-125.5 -333z" />
<glyph unicode="&#x441;" horiz-adv-x="1064" d="M113 491.5q0 210.5 141 361.5t330 151q70 0 132 -21.5t104 -51.5t73 -59.5t45 -52.5l14 -20l-30 -21q-4 8 -13.5 20.5t-41 44t-67.5 56.5t-94.5 44.5t-121.5 19.5q-172 0 -301 -137.5t-129 -334t129 -334t301 -137.5q100 0 184 46.5t119 93.5l35 45l30 -21 q-4 -8 -14 -22.5t-45 -49t-74 -61t-102.5 -49t-132.5 -22.5q-188 0 -329.5 150.5t-141.5 361z" />
<glyph unicode="&#x442;" horiz-adv-x="901" d="M31 942v41h819v-41h-389v-942h-41v942h-389z" />
<glyph unicode="&#x443;" horiz-adv-x="962" d="M51 983h41l379 -932l379 932h41l-492 -1208q-82 -205 -235 -205q-23 0 -43.5 5t-30.5 11l-8 4v41q31 -20 82 -20q128 0 194 164l93 225z" />
<glyph unicode="&#x444;" horiz-adv-x="1392" d="M113 491.5q0 217.5 155.5 365t397.5 147.5v430h41v-430q242 0 397.5 -147.5t155.5 -365t-155.5 -364.5t-397.5 -147v-410h-41v410q-242 0 -397.5 147t-155.5 364.5zM154 491.5q0 -202.5 142 -337t370 -134.5v943q-227 0 -369.5 -134.5t-142.5 -337zM707 20 q227 0 369.5 134.5t142.5 337t-142.5 337t-369.5 134.5v-943z" />
<glyph unicode="&#x445;" horiz-adv-x="921" d="M51 0l379 512l-348 471h51l318 -440l317 440h51l-348 -471l379 -512h-51l-348 481l-349 -481h-51z" />
<glyph unicode="&#x446;" horiz-adv-x="1198" d="M195 0v983h41v-942h686v942h41v-942h163v-287h-41v246h-890z" />
<glyph unicode="&#x447;" horiz-adv-x="1126" d="M174 707v276h41v-276q0 -147 82 -227.5t235 -80.5q96 0 180.5 26t121.5 50l36 27v481h41v-983h-41v461q-14 -12 -39.5 -28.5t-113.5 -45.5t-185 -29q-168 0 -263 93.5t-95 255.5z" />
<glyph unicode="&#x448;" horiz-adv-x="1617" d="M195 0v983h41v-942h542v942h41v-942h543v942h41v-983h-1208z" />
<glyph unicode="&#x449;" horiz-adv-x="1638" d="M195 0v983h41v-942h542v942h41v-942h543v942h41v-942h164v-287h-41v246h-1331z" />
<glyph unicode="&#x44a;" horiz-adv-x="1064" d="M-10 942v41h327v-369h297q152 0 245 -87t93 -220t-93 -220t-245 -87h-338v942h-286zM317 41h297q135 0 216 74.5t81 191.5t-80.5 191.5t-216.5 74.5h-297v-532z" />
<glyph unicode="&#x44b;" horiz-adv-x="1392" d="M195 0v983h41v-369h296q152 0 245 -87t93 -220t-93 -220t-245 -87h-337zM236 41h296q135 0 216 74.5t81 191.5t-80.5 191.5t-216.5 74.5h-296v-532zM1137 0v983h41v-983h-41z" />
<glyph unicode="&#x44c;" horiz-adv-x="1003" d="M195 0v983h41v-369h317q152 0 245 -87t93 -220t-93 -220t-245 -87h-358zM236 41h317q135 0 216 74.5t81 191.5t-81 191.5t-216 74.5h-317v-532z" />
<glyph unicode="&#x44d;" horiz-adv-x="1064" d="M92 184l31 21q4 -8 13 -20.5t41 -44t68 -56.5t94 -44.5t122 -19.5q172 0 301 137.5t129 334.5h-543v40h543q-14 182 -140 306.5t-290 124.5q-100 0 -184 -46.5t-119 -93.5l-35 -45l-31 21q4 8 14.5 22.5t45 49t73.5 61t102.5 49.5t133.5 23q188 0 329.5 -151 t141.5 -361.5t-141.5 -361t-329.5 -150.5q-70 0 -132.5 21.5t-104.5 51t-72.5 59t-45.5 52.5z" />
<glyph unicode="&#x44e;" horiz-adv-x="1536" d="M195 0v983h41v-461h266q14 211 146 346.5t304 135.5q180 0 315.5 -147.5t135.5 -365t-135 -364.5t-315.5 -147t-311.5 141t-139 360h-266v-481h-41zM543 491.5q0 -202.5 121.5 -337t287.5 -134.5t288 134.5t122 337t-122 337t-288 134.5t-287.5 -134.5t-121.5 -337z" />
<glyph unicode="&#x44f;" horiz-adv-x="1034" d="M113 0l235 399q-10 2 -25.5 6.5t-56.5 25t-71.5 49t-56 82.5t-25.5 124q0 133 88 215t239 82h379v-983h-41v389h-399l-215 -389h-51zM154 686q0 -117 75.5 -186.5t210.5 -69.5h338v512h-338q-135 0 -210.5 -69.5t-75.5 -186.5z" />
<glyph unicode="&#x451;" horiz-adv-x="1136" d="M113 492q0 217 135 364.5t315 147.5t315.5 -147.5t135.5 -364.5v-21h-860q8 -190 134 -320.5t296 -130.5q100 0 184 46.5t119 93.5l35 45l30 -21q-4 -8 -14 -22.5t-45 -49t-74 -61t-102.5 -49t-132.5 -22.5q-188 0 -329.5 150.5t-141.5 361.5zM154 512h819 q0 188 -123 319.5t-287 131.5t-286.5 -131.5t-122.5 -319.5zM358 1290.5q0 16.5 13.5 28.5t28 12t27.5 -12t13 -28.5t-13 -29t-27.5 -12.5t-28 12.5t-13.5 29zM686 1290.5q0 16.5 13.5 28.5t27.5 12t27.5 -12t13.5 -28.5t-13.5 -29t-27.5 -12.5t-27.5 12.5t-13.5 29z" />
<glyph unicode="&#x452;" horiz-adv-x="1177" d="M31 1167v41h194v226h41v-226h318v-41h-318v-532q4 10 11.5 28.5t37 64.5t66.5 81t105.5 63.5t148.5 28.5q172 0 290.5 -129t118.5 -331.5t-116.5 -331.5t-282.5 -129v40q150 0 254.5 117t104.5 303q0 188 -105.5 304t-263.5 116q-156 0 -262.5 -112.5t-106.5 -286.5v-461 h-41v1167h-194z" />
<glyph unicode="&#x453;" horiz-adv-x="839" d="M195 0v983h593v-41h-552v-942h-41zM461 1167l153 246h52l-164 -246h-41z" />
<glyph unicode="&#x454;" horiz-adv-x="1064" d="M113 491.5q0 210.5 141 361.5t330 151q70 0 132 -21.5t104 -51.5t73 -59.5t45 -52.5l14 -20l-30 -21q-4 8 -13.5 20.5t-41 44t-67.5 56.5t-94.5 44.5t-121.5 19.5q-164 0 -290 -124t-140 -307h542v-40h-542q0 -197 129 -334.5t301 -137.5q100 0 184 46.5t119 93.5l35 45 l30 -21q-4 -8 -14 -22.5t-45 -49t-74 -61t-102.5 -49t-132.5 -22.5q-188 0 -329.5 150.5t-141.5 361z" />
<glyph unicode="&#x455;" horiz-adv-x="890" d="M92 143l31 31q4 -6 12 -16.5t36 -37t59.5 -47t83 -37t106.5 -16.5q135 0 216 72t81 174q0 78 -60.5 128t-145.5 76t-171 52.5t-146.5 81.5t-60.5 144q0 102 85 179t212 77q86 0 163 -36t112 -71l32 -37l-30 -31q-12 14 -34 37t-93.5 60t-149.5 37q-113 0 -184.5 -63.5 t-71.5 -151.5q0 -76 60.5 -123t146.5 -73t171 -53.5t145.5 -85t60.5 -147.5q0 -119 -94.5 -202.5t-243.5 -83.5q-59 0 -115.5 16t-93.5 40.5t-64.5 49.5t-40.5 41z" />
<glyph unicode="&#x456;" horiz-adv-x="450" d="M174 1351.5q0 16.5 13.5 29t27.5 12.5t27.5 -12.5t13.5 -29t-13.5 -28.5t-27.5 -12t-27.5 12t-13.5 28.5zM195 0v983h41v-983h-41z" />
<glyph unicode="&#x457;" horiz-adv-x="491" d="M31 1290.5q0 16.5 13 28.5t27.5 12t28 -12t13.5 -28.5t-13.5 -29t-28 -12.5t-27.5 12.5t-13 29zM215 0v983h41v-983h-41zM358 1290.5q0 16.5 13.5 28.5t28 12t27.5 -12t13 -28.5t-13 -29t-27.5 -12.5t-28 12.5t-13.5 29z" />
<glyph unicode="&#x458;" horiz-adv-x="450" d="M-113 -358q51 -31 123 -31q86 0 135.5 53.5t49.5 151.5v1167h41v-1167q0 -115 -62.5 -180.5t-163.5 -65.5q-33 0 -63.5 8t-44.5 16l-15 7v41zM174 1351.5q0 16.5 13.5 29t27.5 12.5t27.5 -12.5t13.5 -29t-13.5 -28.5t-27.5 -12t-27.5 12t-13.5 28.5z" />
<glyph unicode="&#x459;" horiz-adv-x="1597" d="M-10 0v41q41 -20 82 -21q51 0 86 25t66.5 93.5t47 207.5t15.5 350v287h583v-410h308q143 0 230 -80.5t87 -205.5t-87 -206t-230 -81h-349v942h-501v-246q0 -219 -19.5 -365.5t-56.5 -220t-79 -102t-101 -28.5q-18 0 -39 5t-33 11zM870 41h308q129 0 202.5 67.5t73.5 178 t-73.5 178t-202.5 67.5h-308v-491z" />
<glyph unicode="&#x45a;" horiz-adv-x="1617" d="M195 0v983h41v-410h614v410h41v-410h307q143 0 230.5 -80.5t87.5 -205.5t-87.5 -206t-230.5 -81h-348v532h-614v-532h-41zM891 41h307q129 0 203 67.5t74 178t-74 178t-203 67.5h-307v-491z" />
<glyph unicode="&#x45b;" horiz-adv-x="1218" d="M31 1167v41h194v226h41v-226h318v-41h-318v-532q4 10 11.5 28.5t37 64.5t66.5 81t105.5 63.5t148.5 28.5q164 0 276.5 -118.5t112.5 -301.5v-481h-41v481q0 166 -100.5 272.5t-247.5 106.5q-156 0 -262.5 -112.5t-106.5 -286.5v-461h-41v1167h-194z" />
<glyph unicode="&#x45c;" horiz-adv-x="1013" d="M195 0v983h41v-676l614 676h51l-358 -399l420 -584h-52l-389 553h-10l-276 -297v-256h-41zM492 1167l153 246h51l-164 -246h-40z" />
<glyph unicode="&#x45e;" horiz-adv-x="962" d="M51 983h41l379 -932l379 932h41l-492 -1208q-82 -205 -235 -205q-23 0 -43.5 5t-30.5 11l-8 4v41q31 -20 82 -20q128 0 194 164l93 225zM236 1413h40q0 -92 56.5 -148.5t148.5 -56.5t148.5 56.5t56.5 148.5h41q0 -106 -68.5 -176t-177 -70t-177 70t-68.5 176z" />
<glyph unicode="&#x45f;" horiz-adv-x="1187" d="M195 0v983h41v-942h696v942h41v-983h-369v-246h-41v246h-368z" />
<glyph unicode="&#x490;" horiz-adv-x="1126" d="M246 0v1434h798v286h41v-327h-798v-1393h-41z" />
<glyph unicode="&#x491;" horiz-adv-x="839" d="M195 0v983h553v246h40v-287h-552v-942h-41z" />
<glyph unicode="&#x2000;" horiz-adv-x="973" />
<glyph unicode="&#x2001;" horiz-adv-x="1946" />
<glyph unicode="&#x2002;" horiz-adv-x="973" />
<glyph unicode="&#x2003;" horiz-adv-x="1946" />
<glyph unicode="&#x2004;" horiz-adv-x="648" />
<glyph unicode="&#x2005;" horiz-adv-x="486" />
<glyph unicode="&#x2006;" horiz-adv-x="324" />
<glyph unicode="&#x2007;" horiz-adv-x="324" />
<glyph unicode="&#x2008;" horiz-adv-x="243" />
<glyph unicode="&#x2009;" horiz-adv-x="389" />
<glyph unicode="&#x200a;" horiz-adv-x="108" />
<glyph unicode="&#x2010;" horiz-adv-x="860" d="M102 584v41h656v-41h-656z" />
<glyph unicode="&#x2011;" horiz-adv-x="860" d="M102 584v41h656v-41h-656z" />
<glyph unicode="&#x2012;" horiz-adv-x="860" d="M102 584v41h656v-41h-656z" />
<glyph unicode="&#x2013;" horiz-adv-x="962" d="M102 584v41h758v-41h-758z" />
<glyph unicode="&#x2014;" horiz-adv-x="1454" d="M102 584v41h1250v-41h-1250z" />
<glyph unicode="&#x2018;" horiz-adv-x="378" d="M82 1180l194 297l21 -11l-164 -317z" />
<glyph unicode="&#x2019;" horiz-adv-x="378" d="M82 1159l164 318l51 -31l-195 -297z" />
<glyph unicode="&#x201a;" horiz-adv-x="358" d="M0 -236l164 318l51 -31l-195 -297z" />
<glyph unicode="&#x201c;" horiz-adv-x="624" d="M82 1180l194 297l21 -11l-164 -317zM328 1180l194 297l21 -11l-164 -317z" />
<glyph unicode="&#x201d;" horiz-adv-x="624" d="M82 1159l164 318l51 -31l-195 -297zM328 1159l164 318l51 -31l-195 -297z" />
<glyph unicode="&#x201e;" horiz-adv-x="604" d="M0 -236l164 318l51 -31l-195 -297zM246 -236l164 318l51 -31l-195 -297z" />
<glyph unicode="&#x2022;" horiz-adv-x="737" d="M246 491.5q0 53.5 34.5 88t88 34.5t88.5 -34.5t35 -88t-35 -88t-88.5 -34.5t-88 34.5t-34.5 88z" />
<glyph unicode="&#x2026;" horiz-adv-x="1146" d="M143 41q0 16 12.5 28.5t29 12.5t28.5 -12.5t12 -28.5t-12 -28.5t-28.5 -12.5t-29 12.5t-12.5 28.5zM532 41q0 16 12.5 28.5t29 12.5t28.5 -12.5t12 -28.5t-12 -28.5t-28.5 -12.5t-29 12.5t-12.5 28.5zM922 41q0 16 12 28.5t28.5 12.5t29 -12.5t12.5 -28.5t-12.5 -28.5 t-29 -12.5t-28.5 12.5t-12 28.5z" />
<glyph unicode="&#x202f;" horiz-adv-x="389" />
<glyph unicode="&#x2039;" horiz-adv-x="512" d="M123 492l225 307h41l-225 -307l225 -308h-41z" />
<glyph unicode="&#x203a;" horiz-adv-x="512" d="M123 184l225 308l-225 307h41l225 -307l-225 -308h-41z" />
<glyph unicode="&#x205f;" horiz-adv-x="486" />
<glyph unicode="&#x20ac;" horiz-adv-x="1515" d="M82 532v41h194q-10 72 -10 144l10 143h-194v41h205q47 231 227 392t418 161q84 0 164 -23.5t135 -56.5t98 -65.5t64 -55.5l20 -24l-31 -31q-6 8 -20 22.5t-58 52.5t-93.5 65.5t-125 51t-153.5 23.5q-223 0 -390 -148.5t-214 -363.5h573v-41h-584q-10 -72 -10 -143 l10 -144h584v-41h-573q47 -215 214 -363.5t390 -148.5q78 0 152.5 23t126 53.5t92 62t61.5 54.5l18 23l31 -31q-8 -8 -22.5 -23.5t-61.5 -54.5t-99 -68.5t-133 -54t-165 -24.5q-238 0 -418 160.5t-227 391.5h-205z" />
<glyph unicode="&#x2122;" horiz-adv-x="1402" d="M41 1393v41h471v-41h-215v-574h-41v574h-215zM645 819v615h31l266 -369l266 369h31v-615h-41v533l-256 -359l-256 359v-533h-41z" />
<glyph unicode="&#x25fc;" horiz-adv-x="985" d="M0 0v985h985v-985h-985z" />
</font>
</defs>
</svg>
