<?xml version="1.0" standalone="no"?>
<!DOCTYPE svg PUBLIC "-//W3C//DTD SVG 1.1//EN" "http://www.w3.org/Graphics/SVG/1.1/DTD/svg11.dtd" >
<svg xmlns="http://www.w3.org/2000/svg" xmlns:xlink="http://www.w3.org/1999/xlink" version="1.1">
<metadata></metadata>
<defs>
<font id="tt_normsregular" horiz-adv-x="1187" >
<font-face units-per-em="2048" ascent="1638" descent="-410" />
<missing-glyph horiz-adv-x="389" />
<glyph unicode="&#xfb01;" horiz-adv-x="1105" d="M51 850v133h154v184q0 137 70.5 212t195.5 75q37 0 73 -8t54 -16l16 -7v-133q-61 31 -133 31q-133 0 -133 -154v-184h584v-983h-144v850h-440v-850h-143v850h-154zM768 1311q0 39 26.5 65.5t65.5 26.5t65.5 -26.5t26.5 -65.5t-26.5 -65.5t-65.5 -26.5t-65.5 26.5 t-26.5 65.5z" />
<glyph unicode="&#xfb02;" horiz-adv-x="1126" d="M51 850v133h154v104q0 152 107.5 259.5t261 107.5t261 -107.5t107.5 -259.5v-1087h-143v1087q0 98 -66.5 166t-159 68t-159 -67.5t-66.5 -166.5v-104h236v-133h-236v-850h-143v850h-154z" />
<glyph unicode="&#xfb03;" horiz-adv-x="1689" d="M51 850v133h154v143q0 137 70.5 212t195.5 75q37 0 73 -8t54 -16l16 -7v-133q-61 31 -133 31q-133 0 -133 -154v-143h440v184q0 137 71 212t196 75q37 0 72.5 -8t52.5 -16l18 -7v-133q-61 31 -133 31q-133 0 -133 -154v-184h584v-983h-144v850h-440v-850h-144v850h-440 v-850h-143v850h-154zM1352 1311q0 39 26.5 65.5t65.5 26.5t65.5 -26.5t26.5 -65.5t-26.5 -65.5t-65.5 -26.5t-65.5 26.5t-26.5 65.5z" />
<glyph horiz-adv-x="0" />
<glyph horiz-adv-x="0" />
<glyph unicode="&#xd;" horiz-adv-x="0" />
<glyph unicode=" "  horiz-adv-x="389" />
<glyph unicode="&#x09;" horiz-adv-x="389" />
<glyph unicode="&#xa0;" horiz-adv-x="389" />
<glyph unicode="!" horiz-adv-x="634" d="M215 82q0 45 27.5 73.5t75 28.5t75 -28.5t27.5 -73.5t-27.5 -73.5t-75 -28.5t-75 28.5t-27.5 73.5zM225 1434h185l-31 -1086h-123z" />
<glyph unicode="&#x22;" horiz-adv-x="716" d="M133 1004v430h133v-430h-133zM451 1004v430h133v-430h-133z" />
<glyph unicode="#" horiz-adv-x="1484" d="M41 420l20 133h322l63 328h-303l21 133h307l82 420h133l-82 -420h389l82 420h133l-82 -420h318l-21 -133h-321l-64 -328h303l-20 -133h-309l-80 -420h-133l80 420h-390l-79 -420h-134l80 420h-315zM516 553h389l64 328h-389z" />
<glyph unicode="$" horiz-adv-x="1157" d="M92 195l94 104q4 -6 14.5 -18.5t45.5 -43t75.5 -53t109.5 -42t142 -19.5q158 0 243 73.5t85 192.5q0 74 -43 126t-111.5 81t-151.5 52.5t-166 52t-151.5 69.5t-111.5 116t-43 179q0 147 105.5 256t283.5 129v209h143v-209q100 -12 187.5 -57t124.5 -84l37 -39l-103 -103 q-4 6 -12 15.5t-38 34t-63.5 44t-89 35t-114.5 15.5q-141 0 -224.5 -72t-83.5 -174q0 -74 43 -126t112 -81t152 -52.5t165.5 -52t151.5 -69.5t112 -115.5t43 -179.5q0 -164 -105.5 -274.5t-294.5 -130.5v-209h-143v207q-80 6 -152.5 30.5t-119.5 55t-82 59.5t-52 49z" />
<glyph unicode="%" horiz-adv-x="1556" d="M82 1137q0 131 93 224t224 93t224.5 -93t93.5 -224t-93.5 -224.5t-224.5 -93.5t-224 93.5t-93 224.5zM215 1137q0 -84 53.5 -139.5t131 -55.5t131 55.5t53.5 139.5t-53.5 139t-131 55t-131 -55t-53.5 -139zM256 0l901 1434h143l-901 -1434h-143zM840 297q0 131 93 224 t224 93t224.5 -93t93.5 -224t-93.5 -224t-224.5 -93t-224 93t-93 224zM973 297q0 -84 53 -139.5t131 -55.5t131 55.5t53 139.5t-53 139.5t-131 55.5t-131 -55.5t-53 -139.5z" />
<glyph unicode="&#x26;" horiz-adv-x="1280" d="M143 328q0 72 29 141.5t69 117.5t80.5 86t69.5 56l29 19q-8 8 -22.5 23t-52.5 62.5t-65.5 91.5t-51 103t-23.5 109q0 131 95 224t232.5 93t232.5 -91t95 -216q0 -59 -27.5 -122.5t-66.5 -111t-78 -86.5t-65 -59l-29 -20l328 -400q10 14 25.5 43t41 119t25.5 186h133 q0 -78 -13.5 -153.5t-33 -129t-40 -95.5t-32.5 -62l-14 -20q8 -14 23.5 -35t58.5 -54.5t82 -33.5l61 10v-133q-37 -10 -72 -10q-41 0 -79.5 16t-65.5 40.5t-48.5 49.5t-31.5 41l-10 16q-6 -6 -16.5 -17t-46 -40t-76.5 -50.5t-105.5 -38.5t-134.5 -17q-180 0 -295 102 t-115 246zM276 328q0 -98 74 -156.5t203 -58.5q82 0 153.5 30.5t102.5 61.5l31 31l-338 430q-8 -6 -23.5 -18.5t-54.5 -50.5t-68.5 -76t-54.5 -91t-25 -102zM338 1137q0 -55 46 -129t91 -121l47 -47q8 6 22.5 17t49.5 45t61.5 68t49 80t22.5 87q0 78 -55.5 131t-139 53 t-139 -53t-55.5 -131z" />
<glyph unicode="'" horiz-adv-x="399" d="M133 1004v430h133v-430h-133z" />
<glyph unicode="(" horiz-adv-x="686" d="M164 512q0 166 34.5 326.5t84 270.5t99.5 196t85 129l35 41l112 -62q-12 -14 -33.5 -42t-76.5 -119t-96 -189t-76 -248.5t-35 -302.5t32.5 -300.5t79 -252.5t93.5 -186t80 -121l32 -41l-112 -62q-14 14 -37 43t-81 124.5t-102 199.5t-81 267t-37 329z" />
<glyph unicode=")" horiz-adv-x="686" d="M72 -389q12 14 33.5 42t77 119t96 189t75.5 248.5t35 302.5t-32.5 300.5t-80 252.5t-93.5 186t-79 121l-32 41l112 62q14 -14 37 -43t81 -124.5t102.5 -199.5t81 -267t36.5 -329t-34.5 -326.5t-85 -270.5t-99.5 -196t-84 -129l-35 -41z" />
<glyph unicode="*" horiz-adv-x="798" d="M72 1137l41 112l245 -82l-20 267h123l-21 -267l246 82l41 -112l-256 -62l174 -215l-92 -72l-154 226l-153 -226l-92 72l174 215z" />
<glyph unicode="+" horiz-adv-x="1054" d="M82 532v134h379v389h133v-389h379v-134h-379v-389h-133v389h-379z" />
<glyph unicode="," horiz-adv-x="440" d="M0 -215l184 399l144 -82l-236 -368z" />
<glyph unicode="-" horiz-adv-x="870" d="M92 543v133h686v-133h-686z" />
<glyph unicode="." horiz-adv-x="430" d="M113 82q0 45 27.5 73.5t74.5 28.5t74.5 -28.5t27.5 -73.5t-27.5 -73.5t-74.5 -28.5t-74.5 28.5t-27.5 73.5z" />
<glyph unicode="/" horiz-adv-x="890" d="M72 -430l614 1884h133l-614 -1884h-133z" />
<glyph unicode="0" horiz-adv-x="1392" d="M123 717q0 332 170 534.5t403.5 202.5t403.5 -202.5t170 -534.5t-169 -534.5t-403 -202.5q-236 0 -405.5 202.5t-169.5 534.5zM276 716.5q0 -278.5 124 -436t298 -157.5q172 0 295 158.5t123 435.5q0 279 -124 436.5t-296 157.5t-296 -158t-124 -436.5z" />
<glyph unicode="1" horiz-adv-x="716" d="M82 1147v92q70 2 126 23.5t89 49t54.5 55.5t29.5 46l8 21h113v-1434h-154v1147h-266z" />
<glyph unicode="2" horiz-adv-x="1126" d="M82 0q0 141 57.5 258t142.5 188.5t184 143.5t184 128t142.5 139t57.5 177q0 125 -82 201t-225 76q-72 0 -130.5 -25.5t-90 -61.5t-52 -72t-28.5 -62l-6 -25l-134 61q2 14 9.5 36t40 78t76.5 99t128 79t187 36q205 0 333 -120t128 -300q0 -104 -47.5 -193t-119 -149.5 t-161.5 -126t-171 -121t-150.5 -134.5t-98.5 -167h748v-143h-922z" />
<glyph unicode="3" horiz-adv-x="1146" d="M61 195l103 102q4 -6 14 -18.5t45 -42t76 -53t106.5 -42t137.5 -18.5q156 0 247 79t91 197q0 115 -93.5 196t-244.5 81h-144v143h144q129 0 202.5 69.5t73.5 186.5q0 102 -74.5 169t-201.5 67q-59 0 -115.5 -16.5t-93.5 -41t-64.5 -49t-40.5 -41.5l-14 -16l-102 113 q6 8 17 21t51 46t86 58.5t121 47t155 21.5q188 0 309 -110.5t121 -268.5q0 -70 -22.5 -127t-54.5 -91t-62.5 -57.5t-53.5 -33.5l-22 -8q10 -2 28.5 -8.5t64.5 -33t81 -62.5t63.5 -103.5t28.5 -151.5q0 -170 -133 -294.5t-348 -124.5q-92 0 -175 22.5t-136.5 53t-94.5 62.5 t-59 54z" />
<glyph unicode="4" horiz-adv-x="1198" d="M61 307v174l687 953h194v-983h184v-144h-184v-307h-154v307h-727zM205 451h583v809z" />
<glyph unicode="5" horiz-adv-x="1249" d="M154 195l102 102q4 -6 14.5 -18.5t45 -42t73.5 -53t102.5 -42t133.5 -18.5q154 0 246 90t92 238q0 145 -91.5 236t-236.5 91q-96 0 -176 -39t-111 -75l-31 -39h-112l51 809h768v-144h-635l-31 -450q12 8 34 22.5t93.5 37t149.5 22.5q207 0 344 -135.5t137 -335.5 q0 -209 -135 -340t-356 -131q-88 0 -170 22.5t-134.5 53t-92.5 62.5t-56 54z" />
<glyph unicode="6" horiz-adv-x="1208" d="M113 451q0 78 25.5 154.5t49.5 115.5l27 37l430 676h154l-338 -533q59 21 153 21q207 0 344.5 -135.5t137.5 -336t-139.5 -335.5t-352.5 -135t-352 135t-139 336zM266 450.5q0 -147.5 92.5 -237.5t246 -90t245.5 90t92 237.5t-92 237.5t-245.5 90t-246 -90t-92.5 -237.5z " />
<glyph unicode="7" horiz-adv-x="1013" d="M61 1290v144h902v-144l-635 -1290h-154l635 1290h-748z" />
<glyph unicode="8" horiz-adv-x="1208" d="M123 420q0 74 25.5 138.5t61.5 103t71.5 66.5t62.5 38l25 12q-8 4 -20.5 10.5t-44.5 32t-56.5 57t-44 85t-19.5 112.5q0 150 123 264.5t297 114.5t297 -114.5t123 -264.5q0 -59 -19.5 -112.5t-46 -85t-53 -55t-45.5 -34.5l-20 -10q10 -4 26.5 -11t58.5 -38t74.5 -67.5 t59 -102t26.5 -139.5q0 -180 -138 -310t-343 -130t-343 130t-138 310zM276 420q0 -121 90.5 -209t238 -88t237.5 88t90 209q0 117 -96.5 207t-231.5 90t-231.5 -90t-96.5 -207zM338 1075.5q0 -102.5 72.5 -169t193.5 -66.5t193.5 66.5t72.5 169t-72.5 169t-193.5 66.5 t-193.5 -66.5t-72.5 -169z" />
<glyph unicode="9" horiz-adv-x="1208" d="M113 983q0 201 139 336t352 135t352.5 -135t139.5 -336q0 -78 -26 -154.5t-50 -115.5l-27 -37l-430 -676h-153l338 532q-60 -20 -154 -20q-207 0 -344 135t-137 336zM266 983q0 -147 92.5 -237.5t246 -90.5t245.5 90.5t92 237.5t-92 237.5t-245.5 90.5t-246 -90.5 t-92.5 -237.5z" />
<glyph unicode=":" horiz-adv-x="430" d="M113 82q0 45 27.5 73.5t74.5 28.5t74.5 -28.5t27.5 -73.5t-27.5 -73.5t-74.5 -28.5t-74.5 28.5t-27.5 73.5zM113 901q0 45 27.5 74t74.5 29t74.5 -29t27.5 -74t-27.5 -73.5t-74.5 -28.5t-74.5 28.5t-27.5 73.5z" />
<glyph unicode=";" horiz-adv-x="450" d="M0 -215l184 399l144 -82l-236 -368zM133 901q0 45 27.5 74t75 29t75 -29t27.5 -74t-27.5 -73.5t-75 -28.5t-75 28.5t-27.5 73.5z" />
<glyph unicode="&#x3c;" horiz-adv-x="1013" d="M92 461v82l830 440v-143l-646 -338l646 -338v-144z" />
<glyph unicode="=" horiz-adv-x="1013" d="M92 358v134h830v-134h-830zM92 717v133h830v-133h-830z" />
<glyph unicode="&#x3e;" horiz-adv-x="1013" d="M92 20v144l645 338l-645 338v143l830 -440v-82z" />
<glyph unicode="?" horiz-adv-x="1075" d="M82 1126q4 14 11 36t41 78t80 99t131 79t187 36q195 0 323 -115.5t128 -273.5q0 -90 -29.5 -160.5t-73.5 -111.5t-96.5 -84t-96.5 -80t-73.5 -99.5t-29.5 -140.5v-41h-144q-10 45 -10 92q0 90 41 163t100.5 121t118 94t99 108.5t40.5 138.5q0 102 -80.5 174t-216.5 72 q-74 0 -134 -23.5t-93 -56.5t-54.5 -65.5t-29.5 -55.5l-6 -25zM410 82q0 45 28.5 73.5t73.5 28.5t73.5 -28.5t28.5 -73.5t-28.5 -73.5t-73.5 -28.5t-73.5 28.5t-28.5 73.5z" />
<glyph unicode="@" horiz-adv-x="1843" d="M143 512q0 315 231.5 546.5t547.5 231.5q326 0 552 -217t226 -520q0 -209 -90 -319.5t-228 -110.5q-47 0 -87 14.5t-64.5 36t-42 43t-25.5 35.5l-6 14q-2 -6 -8 -15t-29.5 -33.5t-51.5 -44t-75 -35t-102 -15.5q-141 0 -244.5 109.5t-103.5 269.5t103.5 269.5t244.5 109.5 q78 0 139.5 -29t83.5 -57l23 -27v102h123v-467q0 -158 122 -157q80 0 132.5 73.5t52.5 233.5q0 262 -183.5 438t-461.5 176q-270 0 -458 -189.5t-188 -465.5t187.5 -465.5t458.5 -189.5q109 0 206 32.5t140 65.5l43 35l71 -92q-6 -6 -19 -17.5t-57 -40t-93.5 -50t-128 -39 t-162.5 -17.5q-315 0 -547 231.5t-232 546.5zM676 501.5q0 -112.5 65.5 -184t159.5 -71.5q100 0 168 71.5t68 184t-68 184.5t-168 72q-94 0 -159.5 -72t-65.5 -184.5z" />
<glyph unicode="A" horiz-adv-x="1433" d="M51 0l594 1434h143l594 -1434h-163l-164 399h-676l-164 -399h-164zM440 543h553l-276 676z" />
<glyph unicode="B" horiz-adv-x="1372" d="M215 0v1434h553q174 0 286.5 -106.5t112.5 -262.5q0 -63 -16 -116.5t-41 -85.5t-49.5 -54.5t-40.5 -30.5l-16 -10q10 -4 25 -11t56 -38t72 -68t56.5 -102.5t25.5 -138.5q0 -178 -122 -294t-318 -116h-584zM369 143h430q129 0 207.5 75t78.5 192q0 119 -79.5 202.5 t-206.5 83.5h-430v-553zM369 831h399q115 0 180.5 62.5t65.5 171.5q0 100 -65.5 162.5t-180.5 62.5h-399v-459z" />
<glyph unicode="C" horiz-adv-x="1536" d="M123 717q0 307 215 522t522 215q109 0 209 -30.5t165.5 -73.5t115 -87t71.5 -75l23 -31l-103 -92q-6 10 -18 26.5t-56 58.5t-95.5 74.5t-135.5 59.5t-176 27q-246 0 -415 -171t-169 -423t169 -423t415 -171q92 0 176 25.5t139.5 61.5t97.5 71.5t60 62.5l19 25l102 -93 q-8 -12 -24.5 -31.5t-73 -70.5t-119.5 -91t-165.5 -71.5t-211.5 -31.5q-307 0 -522 215t-215 522z" />
<glyph unicode="D" horiz-adv-x="1536" d="M215 0v1434h451q313 0 530 -211t217 -506t-217 -506t-530 -211h-451zM369 143h297q252 0 423 167t171 406.5t-171 406.5t-423 167h-297v-1147z" />
<glyph unicode="E" horiz-adv-x="1310" d="M215 0v1434h983v-144h-829v-471h665v-143h-665v-533h850v-143h-1004z" />
<glyph unicode="F" horiz-adv-x="1259" d="M215 0v1434h973v-144h-819v-491h655v-144h-655v-655h-154z" />
<glyph unicode="G" horiz-adv-x="1628" d="M123 717q0 307 215 522t522 215q109 0 209 -30.5t165.5 -73.5t115 -87t71.5 -75l23 -31l-103 -92q-6 10 -18 26.5t-56 58.5t-95.5 74.5t-135.5 59.5t-176 27q-246 0 -415 -171t-169 -423t169 -423t415 -171q86 0 164 20.5t128 49t88 56t54 48.5l17 20v277h-328v143h481 v-461q-8 -12 -25.5 -31.5t-74.5 -70.5t-122.5 -91t-169 -71.5t-212.5 -31.5q-307 0 -522 215t-215 522z" />
<glyph unicode="H" horiz-adv-x="1536" d="M215 0v1434h154v-635h798v635h154v-1434h-154v655h-798v-655h-154z" />
<glyph unicode="I" horiz-adv-x="583" d="M215 0v1434h154v-1434h-154z" />
<glyph unicode="J" horiz-adv-x="1013" d="M20 143l103 103q4 -4 10 -13.5t28.5 -30t49.5 -36.5t70 -29.5t88 -13.5q131 0 208.5 80t77.5 217v1014h154v-1014q0 -193 -124 -316.5t-316 -123.5q-63 0 -122 16t-98.5 40.5t-69.5 49.5t-44 41z" />
<glyph unicode="K" horiz-adv-x="1372" d="M215 0v1434h154v-809l737 809h194l-542 -594l594 -840h-185l-512 727l-286 -307v-420h-154z" />
<glyph unicode="L" horiz-adv-x="1146" d="M215 0v1434h154v-1291h737v-143h-891z" />
<glyph unicode="M" horiz-adv-x="1884" d="M215 0v1434h133l594 -779l594 779h133v-1434h-153v1167l-574 -757l-573 757v-1167h-154z" />
<glyph unicode="N" horiz-adv-x="1597" d="M215 0v1434h133l881 -1158v1158h153v-1434h-133l-880 1157v-1157h-154z" />
<glyph unicode="O" horiz-adv-x="1720" d="M123 717q0 307 215 522t522 215t522 -215t215 -522t-215 -522t-522 -215t-522 215t-215 522zM276 717q0 -252 169 -423t415 -171t415 171t169 423t-169 423t-415 171t-415 -171t-169 -423z" />
<glyph unicode="P" horiz-adv-x="1331" d="M215 0v1434h543q199 0 330 -129t131 -321.5t-131.5 -322t-329.5 -129.5h-389v-532h-154zM369 676h389q139 0 223 84t84 223t-84 223t-223 84h-389v-614z" />
<glyph unicode="Q" horiz-adv-x="1720" d="M123 717q0 307 215 522t522 215t522 -215t215 -522q0 -100 -23.5 -191.5t-60 -156t-80.5 -120.5t-89.5 -91t-82 -60.5t-61.5 -36.5l-22 -10q4 -8 13 -22.5t44 -49t76 -61.5t109.5 -49.5t146.5 -22.5l92 11v-133q-31 -10 -92 -11q-109 0 -204 30t-152.5 72t-99.5 84 t-58 72l-19 29q-72 -20 -174 -20q-307 0 -522 215t-215 522zM276 717q0 -252 169 -423t415 -171t415 171t169 423t-169 423t-415 171t-415 -171t-169 -423z" />
<glyph unicode="R" horiz-adv-x="1382" d="M215 0v1434h573q190 0 315.5 -123t125.5 -307q0 -92 -31 -168t-74 -119t-87 -73t-74 -40l-31 -10l338 -594h-174l-318 573h-409v-573h-154zM369 717h419q131 0 209 77.5t78 209t-78 209t-209 77.5h-419v-573z" />
<glyph unicode="S" horiz-adv-x="1157" d="M92 195l94 104q4 -6 14.5 -18.5t45.5 -43t75.5 -53t109.5 -42t142 -19.5q158 0 243 73.5t85 192.5q0 74 -43 126t-111.5 81t-151.5 52.5t-166 52t-151.5 69.5t-111.5 116t-43 179q0 162 127 275.5t334 113.5q78 0 148.5 -19.5t117.5 -46t84 -53t53 -45.5l17 -20 l-103 -103q-4 6 -12 15.5t-38 34t-63.5 44t-89 35t-114.5 15.5q-141 0 -224.5 -72t-83.5 -174q0 -74 43 -126t112 -81t152 -52.5t165.5 -52t151.5 -69.5t112 -115.5t43 -179.5q0 -182 -128 -295.5t-354 -113.5q-92 0 -175 22.5t-136 53t-94 62.5t-57 54z" />
<glyph unicode="T" horiz-adv-x="1136" d="M41 1290v144h1055v-144h-451v-1290h-153v1290h-451z" />
<glyph unicode="U" horiz-adv-x="1556" d="M195 563v871h153v-871q0 -184 126 -312t304 -128t304 128t126 312v871h154v-871q0 -238 -173 -410.5t-410.5 -172.5t-410.5 173t-173 410z" />
<glyph unicode="V" horiz-adv-x="1392" d="M61 1434h164l471 -1219l471 1219h164l-563 -1434h-143z" />
<glyph unicode="W" horiz-adv-x="2129" d="M61 1434h164l379 -1198l389 1198h144l389 -1198l379 1198h163l-471 -1434h-153l-379 1198l-379 -1198h-154z" />
<glyph unicode="X" horiz-adv-x="1331" d="M41 0l532 748l-491 686h184l400 -564l399 564h184l-491 -686l532 -748h-184l-440 625l-441 -625h-184z" />
<glyph unicode="Y" horiz-adv-x="1300" d="M41 1434h174l430 -768h10l430 768h175l-533 -932v-502h-154v502z" />
<glyph unicode="Z" horiz-adv-x="1228" d="M92 0v143l840 1147h-809v144h993v-144l-840 -1147h861v-143h-1045z" />
<glyph unicode="[" horiz-adv-x="686" d="M184 -430v1884h420v-133h-276v-1618h276v-133h-420z" />
<glyph unicode="\" horiz-adv-x="890" d="M72 1454h133l614 -1884h-133z" />
<glyph unicode="]" horiz-adv-x="686" d="M82 -297h276v1618h-276v133h420v-1884h-420v133z" />
<glyph unicode="^" horiz-adv-x="819" d="M92 860l266 574h103l266 -574h-133l-184 410l-185 -410h-133z" />
<glyph unicode="_" horiz-adv-x="675" d="M-20 -215h716v-133h-716v133z" />
<glyph unicode="`" horiz-adv-x="430" d="M61 1434h154l154 -277h-113z" />
<glyph unicode="a" horiz-adv-x="1064" d="M82 266q0 123 74 198.5t213 98.5l379 62q0 109 -69 177t-177 68q-78 0 -146.5 -35.5t-99.5 -72.5l-31 -35l-92 92q6 8 16.5 20.5t46 44t74.5 56.5t102.5 44.5t129.5 19.5q168 0 278.5 -109t110.5 -270v-625h-143v133q-4 -6 -12.5 -16.5t-38 -37t-63.5 -47t-89.5 -36.5 t-114.5 -16q-147 0 -247.5 87t-100.5 199zM225 266q0 -66 54.5 -109.5t150.5 -43.5q139 0 228.5 91t89.5 236v62l-338 -62q-184 -35 -185 -174z" />
<glyph unicode="b" horiz-adv-x="1228" d="M164 0v1434h143v-605q4 6 14.5 18.5t43 42.5t70.5 53.5t97.5 42t122.5 18.5q188 0 329.5 -151t141.5 -361.5t-141 -361t-330 -150.5q-63 0 -121.5 18t-98.5 43t-69.5 50.5t-43.5 43.5l-15 19v-154h-143zM307 491.5q0 -151.5 107.5 -265t240.5 -113.5q127 0 227.5 110.5 t100.5 268t-100.5 268t-227.5 110.5q-133 0 -240.5 -113.5t-107.5 -265z" />
<glyph unicode="c" horiz-adv-x="1054" d="M82 492q0 213 145.5 362.5t345.5 149.5q115 0 214.5 -49.5t142.5 -98.5l43 -47l-103 -102q-4 6 -12 17t-35.5 40t-59.5 50.5t-83 38.5t-107 17q-141 0 -244.5 -109.5t-103.5 -269t103.5 -269t244.5 -109.5q86 0 163 41t112 82l33 40l102 -92q-6 -8 -18.5 -22.5t-52.5 -49 t-84 -61t-113.5 -49t-141.5 -22.5q-201 0 -346 149.5t-145 362.5z" />
<glyph unicode="d" horiz-adv-x="1228" d="M82 491.5q0 210.5 141.5 361.5t329.5 151q63 0 121.5 -18.5t98.5 -43t69.5 -50.5t44.5 -44l14 -19v605h143v-1434h-143v154q-4 -6 -14 -18.5t-43 -42.5t-71 -53.5t-97.5 -41.5t-122.5 -18q-188 0 -329.5 150.5t-141.5 361zM225 491.5q0 -157.5 100.5 -268t227.5 -110.5 q133 0 240.5 113.5t107.5 265t-107.5 265t-240.5 113.5q-127 0 -227.5 -110.5t-100.5 -268z" />
<glyph unicode="e" horiz-adv-x="1136" d="M82 492q0 213 143.5 362.5t337.5 149.5q201 0 336 -139.5t135 -352.5l-10 -74l-799 2q8 -133 109.5 -230t238.5 -97q92 0 171 41t112 82l35 40l92 -92q-6 -8 -17.5 -22.5t-50 -49t-83 -61t-115 -49t-144.5 -22.5q-201 0 -346 149.5t-145 362.5zM225 563h666 q-16 133 -107.5 220t-220.5 87t-225 -91t-113 -216z" />
<glyph unicode="f" horiz-adv-x="655" d="M51 850v133h154v184q0 137 70.5 212t195.5 75q37 0 73 -8t54 -16l16 -7v-133q-61 31 -133 31q-133 0 -133 -154v-184h236v-133h-236v-850h-143v850h-154z" />
<glyph unicode="g" d="M82 512q0 205 137 348.5t324 143.5q63 0 119.5 -16.5t93.5 -41t63.5 -49.5t38.5 -41l12 -16v143h144v-922q0 -207 -140.5 -349t-341.5 -142q-78 0 -148.5 21.5t-115.5 51t-79.5 59.5t-49.5 52l-16 21l92 92q4 -6 13.5 -17.5t40 -40t64.5 -50t88 -39t111 -17.5 q139 0 238.5 103t99.5 255v123q-4 -6 -12 -17t-37.5 -40t-64.5 -50.5t-92.5 -39t-120.5 -17.5q-186 0 -323.5 143.5t-137.5 348.5zM225 512q0 -150 96.5 -254t221.5 -104q133 0 230 103t97 255t-97 255t-230 103q-125 0 -221.5 -104t-96.5 -254z" />
<glyph unicode="h" horiz-adv-x="1198" d="M164 0v1434h143v-594q4 6 12.5 17t38 40t63.5 50.5t89 39t115 17.5q178 0 288.5 -115t110.5 -305v-584h-143v584q0 129 -75 207.5t-192 78.5q-131 0 -219 -92t-88 -235v-543h-143z" />
<glyph unicode="i" horiz-adv-x="471" d="M133 1311q0 39 26.5 65.5t65.5 26.5t65.5 -26.5t26.5 -65.5t-26.5 -65.5t-65.5 -26.5t-65.5 26.5t-26.5 65.5zM154 0v983h143v-983h-143z" />
<glyph unicode="j" horiz-adv-x="471" d="M-92 -266q51 -31 112 -31q134 0 134 154v1126h143v-1126q0 -287 -266 -287q-33 0 -63.5 8t-45.5 16l-14 7v133zM133 1311q0 39 26.5 65.5t65.5 26.5t65.5 -26.5t26.5 -65.5t-26.5 -65.5t-65.5 -26.5t-65.5 26.5t-26.5 65.5z" />
<glyph unicode="k" horiz-adv-x="1044" d="M164 0v1434h143v-973l492 522h174l-379 -399l420 -584h-164l-348 481l-195 -205v-276h-143z" />
<glyph unicode="l" horiz-adv-x="491" d="M164 0v1434h143v-1434h-143z" />
<glyph unicode="m" horiz-adv-x="1781" d="M154 0v983h143v-123q4 6 10 15.5t30.5 34t54.5 44t78 35t103 15.5q66 0 123.5 -18.5t91 -43t58 -50.5t35.5 -44l10 -19q4 6 11 18.5t37 42.5t64.5 53.5t95 42t130.5 18.5q168 0 273.5 -111t105.5 -309v-584h-144v584q0 137 -67.5 211.5t-177.5 74.5q-113 0 -190 -89 t-77 -238v-543h-143v584q0 135 -67.5 210.5t-178.5 75.5q-113 0 -189.5 -89t-76.5 -238v-543h-143z" />
<glyph unicode="n" d="M154 0v983h143v-143q4 6 12 17t38 40t63.5 50.5t89 39t114.5 17.5q178 0 289 -115t111 -305v-584h-144v584q0 129 -74.5 207.5t-191.5 78.5q-131 0 -219 -92t-88 -235v-543h-143z" />
<glyph unicode="o" d="M82 491.5q0 215.5 146.5 364t355.5 148.5t355 -148.5t146 -364t-146 -363.5t-355 -148t-355.5 148t-146.5 363.5zM225 492q0 -158 105.5 -268.5t253 -110.5t253 109.5t105.5 269t-105.5 269t-253 109.5t-253 -109.5t-105.5 -268.5z" />
<glyph unicode="p" horiz-adv-x="1218" d="M154 -430v1413h143v-154q4 6 14.5 18.5t43 42.5t70.5 53.5t97.5 42t122.5 18.5q188 0 329.5 -151t141.5 -361.5t-141 -361t-330 -150.5q-63 0 -121.5 18t-98.5 43t-69.5 50.5t-44.5 43.5l-14 19v-584h-143zM297 491.5q0 -151.5 107.5 -265t240.5 -113.5 q127 0 227.5 110.5t100.5 268t-100.5 268t-227.5 110.5q-133 0 -240.5 -113.5t-107.5 -265z" />
<glyph unicode="q" horiz-adv-x="1218" d="M82 491.5q0 210.5 141.5 361.5t329.5 151q63 0 121.5 -18.5t98.5 -43t69.5 -50.5t44.5 -44l14 -19v154h143v-1413h-143v584q-4 -6 -14 -18.5t-43 -42.5t-71 -53.5t-97.5 -41.5t-122.5 -18q-188 0 -329.5 150.5t-141.5 361zM225 491.5q0 -157.5 100.5 -268t227.5 -110.5 q133 0 240.5 113.5t107.5 265t-107.5 265t-240.5 113.5q-127 0 -227.5 -110.5t-100.5 -268z" />
<glyph unicode="r" horiz-adv-x="706" d="M154 0v983h143v-133q4 6 12 16.5t38 37t64.5 47t92 37t121.5 16.5h41v-144h-62q-127 0 -217 -88t-90 -229v-543h-143z" />
<glyph unicode="s" horiz-adv-x="880" d="M61 154l103 102q4 -6 11 -15.5t31.5 -34t52.5 -44t72 -34.5t89 -15q104 0 159.5 46t55.5 117q0 61 -55.5 99.5t-133 61t-155.5 50t-133.5 87t-55.5 153.5q0 111 93.5 194t234.5 83q57 0 111.5 -13.5t89.5 -33t62.5 -40t39.5 -32.5l15 -15l-103 -102q-8 12 -23.5 28.5 t-71.5 45t-120 28.5q-82 0 -133 -43t-51 -100q0 -59 55 -95t133 -57.5t156 -49t133 -90t55 -159.5q0 -127 -97 -211.5t-261 -84.5q-70 0 -131.5 18t-101.5 43t-69.5 50.5t-43.5 43.5z" />
<glyph unicode="t" horiz-adv-x="737" d="M51 850v133h113q82 0 82 102v226h133v-328h215v-133h-215v-584q0 -153 131 -153h2q33 0 65.5 8t49.5 14l18 8v-133q-59 -30 -134 -30h-5q-127 0 -198.5 74.5t-71.5 211.5v584h-185z" />
<glyph unicode="u" horiz-adv-x="1198" d="M154 410v573h143v-573q0 -129 80 -213t196 -84q125 0 211 92t86 235v543h144v-983h-144v133q-4 -6 -12 -16.5t-37.5 -37t-63.5 -47t-89.5 -36.5t-114.5 -16q-172 0 -285.5 119.5t-113.5 310.5z" />
<glyph unicode="v" horiz-adv-x="1003" d="M20 983h154l318 -788l317 788h154l-400 -983h-143z" />
<glyph unicode="w" horiz-adv-x="1495" d="M20 983h154l256 -758l246 758h123l245 -758l256 758h154l-338 -983h-133l-246 748l-245 -748h-134z" />
<glyph unicode="x" horiz-adv-x="983" d="M20 0l369 512l-338 471h174l256 -358l256 358h174l-338 -471l369 -512h-174l-287 399l-286 -399h-175z" />
<glyph unicode="y" horiz-adv-x="1003" d="M20 983h154l318 -799l317 799h154l-451 -1126q-61 -156 -131 -221.5t-176 -65.5q-33 0 -63.5 5t-45.5 11l-14 4v134q51 -20 102 -21q130 0 185 154l51 143z" />
<glyph unicode="z" horiz-adv-x="952" d="M72 0v133l594 717h-574v133h748v-133l-594 -717h614v-133h-788z" />
<glyph unicode="{" horiz-adv-x="727" d="M123 451v122q143 0 143 144v461q0 125 82 200.5t225 75.5h82v-123h-82q-84 0 -129 -42t-45 -111v-461q0 -49 -12 -88t-30.5 -59.5t-37 -35t-30.5 -18.5l-13 -4q4 -2 13.5 -5t30 -17.5t37 -35t29.5 -59.5t13 -88v-461q0 -70 45 -111.5t129 -41.5h82v-123h-82 q-143 0 -225 75.5t-82 200.5v461q0 144 -143 144z" />
<glyph unicode="|" horiz-adv-x="686" d="M276 -430v1884h134v-1884h-134z" />
<glyph unicode="}" horiz-adv-x="727" d="M72 -307h82q84 0 129 42t45 111v461q0 49 12 88t30.5 59.5t37 35t30.5 18.5l13 4q-4 2 -13.5 5t-30 17.5t-37 35t-29.5 59.5t-13 88v461q0 70 -45 111.5t-129 41.5h-82v123h82q143 0 225 -75.5t82 -200.5v-461q0 -144 143 -144v-122q-143 0 -143 -144v-461 q0 -125 -82 -200.5t-225 -75.5h-82v123z" />
<glyph unicode="~" horiz-adv-x="1085" d="M72 563q4 6 11 18.5t32.5 42t55.5 53t78 42t99 18.5q86 0 151.5 -35.5t120 -71.5t117.5 -36q59 0 105.5 30.5t62.5 61.5l17 31l92 -72q-4 -6 -11.5 -18.5t-33 -42t-55 -53t-78 -42t-99.5 -18.5q-86 0 -151.5 36t-120 71.5t-117.5 35.5q-59 0 -105 -30.5t-63 -61.5 l-16 -30z" />
<glyph unicode="&#xa1;" horiz-adv-x="573" d="M184 901q0 45 29 74t74 29t73.5 -29t28.5 -74t-28.5 -73.5t-73.5 -28.5t-74 28.5t-29 73.5zM195 -430l30 1065h123l31 -1065h-184z" />
<glyph unicode="&#xa2;" horiz-adv-x="1024" d="M82 492q0 195 123 337t297 168v211h133v-213q90 -14 170 -58t113 -81l34 -37l-92 -92q-12 16 -33.5 40t-96.5 63.5t-157 39.5q-141 0 -244.5 -109.5t-103.5 -269t103.5 -269t244.5 -109.5q82 0 154 35.5t102 72.5l31 35l92 -92q-12 -16 -36.5 -43t-107.5 -75t-173 -58 v-213h-133v211q-176 27 -298 166t-122 340z" />
<glyph unicode="&#xa3;" horiz-adv-x="1146" d="M133 0v143q61 0 102 39t41 94v318h-133v143h133v267q0 199 124 324.5t317 125.5q70 0 132 -18.5t104 -43t73 -50t45 -44.5l14 -18l-102 -102q-10 14 -30.5 36.5t-89 59.5t-146.5 37q-123 0 -210 -89t-87 -218v-267h420v-143h-420v-318q0 -41 -13.5 -73.5t-25.5 -46.5 l-12 -13h716v-143h-952z" />
<glyph unicode="&#xa4;" horiz-adv-x="1372" d="M102 256v143h164v174h-164v144h164v717h533q199 0 324.5 -122t125.5 -308.5t-126 -308.5t-324 -122h-379v-174h502v-143h-502v-256h-154v256h-164zM420 717h379q129 0 213 82t84 204.5t-84 204.5t-213 82h-379v-573z" />
<glyph unicode="&#xa5;" horiz-adv-x="1300" d="M41 1434h174l430 -768h10l430 768h175l-447 -779h242v-133h-318l-10 -20v-133h328v-133h-328v-236h-154v236h-327v133h327v133l-12 20h-315v133h239z" />
<glyph unicode="&#xa6;" horiz-adv-x="686" d="M276 348h134v-778h-134v778zM276 676v778h134v-778h-134z" />
<glyph unicode="&#xa7;" horiz-adv-x="1105" d="M133 655q0 55 21.5 103.5t51.5 79t59.5 53t49.5 31.5l23 10q-6 2 -15.5 7t-34 24.5t-44 42t-34.5 60.5t-15 81q0 127 102 217t266 90q92 0 174 -36t119 -70l35 -37l-103 -94q-10 12 -28.5 29.5t-77.5 46t-119 28.5q-104 0 -164.5 -51t-60.5 -123q0 -68 65.5 -114 t158.5 -76.5t186.5 -68.5t159 -111.5t65.5 -182.5q0 -86 -51.5 -152.5t-102.5 -89.5l-51 -24q6 -2 16.5 -8.5t37 -27t47 -45t37 -63.5t16.5 -82q0 -135 -111 -231t-289 -96q-70 0 -132 19.5t-104 46t-73 53t-45 45.5l-14 20l102 102q4 -6 11 -16t33 -36.5t53.5 -47t73.5 -37 t95 -16.5q119 0 187.5 57.5t68.5 136.5q0 66 -66.5 112t-161.5 78t-189.5 69.5t-161 111.5t-66.5 182zM276 655q0 -63 50.5 -112t104.5 -71.5t129 -45.5t85 -27q8 2 20.5 5.5t44 17.5t56.5 33.5t44 56.5t19 82q0 51 -29.5 94t-80.5 70.5t-96 46t-97.5 34t-64.5 21.5 q-8 -2 -20.5 -5t-44 -19.5t-56.5 -37t-44.5 -59.5t-19.5 -84z" />
<glyph unicode="&#xa8;" horiz-adv-x="696" d="M61 1300.5q0 38.5 27 65.5t66 27t65.5 -27t26.5 -65.5t-26.5 -65.5t-65.5 -27t-66 27t-27 65.5zM451 1300.5q0 38.5 26.5 65.5t65.5 27t65.5 -27t26.5 -65.5t-26.5 -65.5t-65.5 -27t-65.5 27t-26.5 65.5z" />
<glyph unicode="&#xa9;" horiz-adv-x="1802" d="M154 717q0 307 217 522t530 215t530.5 -215t217.5 -522t-217.5 -522t-530.5 -215t-530 215t-217 522zM287 717q0 -262 176 -438.5t438 -176.5t438.5 176.5t176.5 438.5t-176.5 438t-438.5 176t-438 -176t-176 -438zM522 717q0 168 109.5 278.5t279.5 110.5q90 0 167 -39 t110 -76l31 -39l-82 -82q-2 4 -8.5 12.5t-27 28t-45 33.5t-63.5 26.5t-82 12.5q-115 0 -190.5 -76t-75.5 -190.5t76 -190t190 -75.5q68 0 124.5 28.5t78.5 57.5l23 26l82 -82q-4 -6 -12.5 -16t-37 -37t-61.5 -47.5t-86 -36.5t-111 -16q-170 0 -279.5 110.5t-109.5 278.5z " />
<glyph unicode="&#xaa;" horiz-adv-x="675" d="M72 993q0 150 184 185l215 41q0 61 -36 97t-97 36q-45 0 -84 -20.5t-53 -41.5l-17 -20l-71 61q8 14 24.5 34.5t74.5 54.5t126 34q115 0 175 -58.5t60 -166.5v-379h-102v82q-6 -12 -18.5 -28.5t-65.5 -45.5t-121 -29q-82 0 -138 50.5t-56 113.5zM184 1004q0 -82 103 -82 q78 0 131 52t53 132v20l-195 -41q-92 -18 -92 -81z" />
<glyph unicode="&#xab;" horiz-adv-x="952" d="M92 492l236 337h153l-235 -337l235 -338h-153zM471 492l236 337h153l-235 -337l235 -338h-153z" />
<glyph unicode="&#xac;" horiz-adv-x="942" d="M92 666v133h768v-420h-143v287h-625z" />
<glyph unicode="&#xad;" horiz-adv-x="870" d="M92 532v134h686v-134h-686z" />
<glyph unicode="&#xae;" horiz-adv-x="1802" d="M154 717q0 307 217 522t530 215t530.5 -215t217.5 -522t-217.5 -522t-530.5 -215t-530 215t-217 522zM287 717q0 -262 176 -438.5t438 -176.5t438.5 176.5t176.5 438.5t-176.5 438t-438.5 176t-438 -176t-176 -438zM645 338v758h289q113 0 183.5 -67.5t70.5 -168.5 q0 -68 -36 -119t-71 -69l-37 -17l185 -317h-131l-156 287h-174v-287h-123zM768 748h174q133 0 133 112.5t-133 112.5h-174v-225z" />
<glyph unicode="&#xaf;" horiz-adv-x="716" d="M61 1300v113h594v-113h-594z" />
<glyph unicode="&#xb0;" horiz-adv-x="737" d="M82 1177.5q0 116.5 82 196.5t205 80t204.5 -80t81.5 -196.5t-81.5 -196.5t-204.5 -80t-205 80t-82 196.5zM205 1177.5q0 -69.5 47 -116.5t116.5 -47t116.5 47t47 116.5t-47 116.5t-116.5 47t-116.5 -47t-47 -116.5z" />
<glyph unicode="&#xb1;" horiz-adv-x="1054" d="M82 707v133h379v389h133v-389h379v-133h-379v-390h-133v390h-379zM92 51v133h871v-133h-871z" />
<glyph unicode="&#xb2;" horiz-adv-x="614" d="M61 922q0 86 38 154.5t92.5 112.5t108.5 81t92 78t38 86q0 47 -35 79.5t-88 32.5q-45 0 -81 -27.5t-50 -56.5l-12 -28l-92 30q2 8 6 20.5t21.5 44.5t41 56.5t67.5 44t99 19.5q106 0 171 -60.5t65 -154.5q0 -63 -29 -112.5t-74 -83.5t-92 -63.5t-91 -68.5t-62 -82h348 v-102h-482z" />
<glyph unicode="&#xb3;" horiz-adv-x="634" d="M51 1034l72 82q8 -12 23.5 -28.5t65.5 -45t105 -28.5q133 0 134 112q0 55 -38 89t-106 34h-82v103h82q53 0 83 27.5t30 74.5q0 41 -32 66.5t-91 25.5q-43 0 -81 -22.5t-54 -44.5l-17 -23l-73 76q8 12 24.5 31.5t75.5 52.5t125 33q104 0 169.5 -57.5t65.5 -137.5 q0 -55 -20 -93t-41 -50l-20 -11q4 -2 12 -4t27.5 -15t34 -30.5t26.5 -50.5t12 -74q0 -94 -66.5 -154.5t-179.5 -60.5q-82 0 -148.5 31t-90.5 62z" />
<glyph unicode="&#xb4;" horiz-adv-x="430" d="M61 1157l154 277h154l-195 -277h-113z" />
<glyph unicode="&#xb5;" d="M154 -430v1413h143v-584q0 -129 74.5 -207.5t191.5 -78.5q125 0 206 87t81 230v553h143v-778q0 -39 27 -65.5t65 -26.5l52 10v-133q-20 -10 -62 -10q-57 0 -100 16t-64.5 40.5t-34 49.5t-14.5 41l-2 16q-4 -6 -11 -17t-35 -40t-60.5 -50.5t-87 -38.5t-113.5 -17 q-78 0 -141.5 20t-87.5 41l-27 20v-491h-143z" />
<glyph unicode="&#xb6;" horiz-adv-x="1105" d="M92 1095.5q0 137.5 99.5 238t238.5 100.5h481v-1639h-133v1505h-215v-1505h-133v963q-139 0 -238.5 100t-99.5 237.5z" />
<glyph unicode="&#xb7;" horiz-adv-x="389" d="M92 512q0 45 27.5 73.5t75 28.5t75 -28.5t27.5 -73.5t-27.5 -73.5t-75 -28.5t-75 28.5t-27.5 73.5z" />
<glyph unicode="&#xb8;" horiz-adv-x="491" d="M61 -354l41 67q51 -51 134 -51q45 0 73.5 24.5t28.5 57.5q0 31 -22.5 51.5t-59.5 20.5q-16 0 -31.5 -5.5t-23.5 -11.5l-6 -4l-52 51l93 195h92l-72 -154h10q76 0 120 -41t44 -106q0 -68 -52 -114t-142 -46q-45 0 -89.5 16.5t-64.5 32.5z" />
<glyph unicode="&#xb9;" horiz-adv-x="430" d="M61 1464v82q55 0 93.5 23.5t50.5 46.5l10 22h92v-716h-112v542h-134z" />
<glyph unicode="&#xba;" horiz-adv-x="737" d="M61 1136.5q0 137.5 88.5 227.5t219.5 90t219 -90t88 -227.5t-88 -227.5t-219 -90t-219.5 90t-88.5 227.5zM174 1136.5q0 -98.5 54.5 -156.5t140.5 -58t140 58t54 156.5t-54 157t-140 58.5t-140.5 -58.5t-54.5 -157z" />
<glyph unicode="&#xbb;" horiz-adv-x="952" d="M92 154l236 338l-236 337h154l235 -337l-235 -338h-154zM471 154l236 338l-236 337h154l235 -337l-235 -338h-154z" />
<glyph unicode="&#xbc;" horiz-adv-x="1361" d="M82 1260v81q55 0 93 24t50 46l11 23h92v-717h-113v543h-133zM133 0l881 1434h133l-881 -1434h-133zM748 164v102l317 451h133v-451h82v-102h-82v-164h-113v164h-337zM860 266h225v318z" />
<glyph unicode="&#xbd;" horiz-adv-x="1423" d="M82 1260v81q55 0 93 24t50 46l11 23h92v-717h-113v543h-133zM133 0l881 1434h133l-881 -1434h-133zM850 0q0 86 38 154.5t92 112.5t108.5 81t92.5 78t38 86q0 47 -35 80t-88 33q-45 0 -81 -28t-48 -56l-15 -29l-92 31q2 8 6 20t21.5 44t41 56.5t67.5 44t100 19.5 q106 0 170.5 -60.5t64.5 -154.5q0 -63 -28.5 -112.5t-73.5 -83t-92 -63.5t-91.5 -69t-62.5 -82h348v-102h-481z" />
<glyph unicode="&#xbe;" horiz-adv-x="1495" d="M61 829l72 82q8 -12 23.5 -28.5t65.5 -45t106 -28.5q133 0 133 113q0 55 -38 88.5t-106 33.5h-81v103h81q53 0 83 27.5t30 74.5q0 41 -31.5 66.5t-91.5 25.5q-43 0 -81 -22.5t-54 -44.5l-16 -23l-74 76q8 12 24.5 31.5t76 52.5t124.5 33q104 0 170 -57.5t66 -137.5 q0 -55 -20.5 -93t-41.5 -50l-20 -10q4 -2 12 -4t27.5 -15.5t34 -31t26.5 -50t12 -73.5q0 -94 -66.5 -154.5t-178.5 -60.5q-82 0 -148.5 30.5t-93.5 61.5zM266 0l881 1434h133l-881 -1434h-133zM881 164v102l317 451h133v-451h82v-102h-82v-164h-112v164h-338zM993 266h226 v318z" />
<glyph unicode="&#xbf;" horiz-adv-x="952" d="M61 -61q0 90 30 159.5t74 108.5t96 79t96 74.5t74 95t30 138.5v41h143q10 -45 10 -92q0 -76 -29.5 -139.5t-73.5 -102.5t-96.5 -80t-96.5 -75.5t-73.5 -89t-29.5 -117.5q0 -102 81 -174t216 -72q74 0 133.5 23.5t90 56t51 65.5t26.5 56l6 24l133 -41q-2 -14 -9 -35.5 t-40 -78t-77 -99.5t-128 -79t-186 -36q-195 0 -323 116t-128 274zM430 901q0 45 28.5 74t74 29t74 -29t28.5 -74t-28.5 -73.5t-74 -28.5t-74 28.5t-28.5 73.5z" />
<glyph unicode="&#xc0;" horiz-adv-x="1433" d="M51 0l594 1434h143l594 -1434h-163l-164 399h-676l-164 -399h-164zM440 543h553l-276 676zM461 1905h153l154 -277h-113z" />
<glyph unicode="&#xc1;" horiz-adv-x="1433" d="M51 0l594 1434h143l594 -1434h-163l-164 399h-676l-164 -399h-164zM440 543h553l-276 676zM676 1628l153 277h154l-195 -277h-112z" />
<glyph unicode="&#xc2;" horiz-adv-x="1433" d="M51 0l594 1434h143l594 -1434h-163l-164 399h-676l-164 -399h-164zM420 1628l225 277h143l226 -277h-133l-164 195l-164 -195h-133zM440 543h553l-276 676z" />
<glyph unicode="&#xc3;" horiz-adv-x="1433" d="M51 0l594 1434h143l594 -1434h-163l-164 399h-676l-164 -399h-164zM399 1628q0 119 52.5 182.5t132.5 63.5q61 0 108 -34t84 -66.5t74 -32.5q33 0 57.5 33.5t24.5 99.5h102q0 -119 -52 -182.5t-132 -63.5q-61 0 -108.5 34t-84 66.5t-73.5 32.5q-33 0 -57.5 -33.5 t-24.5 -99.5h-103zM440 543h553l-276 676z" />
<glyph unicode="&#xc4;" horiz-adv-x="1433" d="M51 0l594 1434h143l594 -1434h-163l-164 399h-676l-164 -399h-164zM430 1753q0 39 26.5 65.5t65.5 26.5t65.5 -26.5t26.5 -65.5t-26.5 -65.5t-65.5 -26.5t-65.5 26.5t-26.5 65.5zM440 543h553l-276 676zM819 1753q0 39 26.5 65.5t65.5 26.5t66 -26.5t27 -65.5t-27 -65.5 t-66 -26.5t-65.5 26.5t-26.5 65.5z" />
<glyph unicode="&#xc5;" horiz-adv-x="1433" d="M51 0l594 1434h143l594 -1434h-163l-164 399h-676l-164 -399h-164zM440 543h553l-276 676zM522 1761q0 84 55.5 139.5t139.5 55.5t139 -55.5t55 -139.5t-55 -139t-139 -55t-139.5 55t-55.5 139zM625 1761q0 -45 26.5 -73.5t65.5 -28.5t65.5 28.5t26.5 73.5t-26.5 74 t-65.5 29t-65.5 -29t-26.5 -74z" />
<glyph unicode="&#xc6;" horiz-adv-x="1966" d="M-41 0l799 1434h1095v-144h-737v-471h574v-143h-574v-533h758v-143h-911v420h-605l-235 -420h-164zM430 563h533v727h-123z" />
<glyph unicode="&#xc7;" horiz-adv-x="1536" d="M123 717q0 307 215 522t522 215q109 0 209 -30.5t165.5 -73.5t115 -87t71.5 -75l23 -31l-103 -92q-6 10 -18 26.5t-56 58.5t-95.5 74.5t-135.5 59.5t-176 27q-246 0 -415 -171t-169 -423t169 -423t415 -171q92 0 176 25.5t139.5 61.5t97.5 71.5t60 62.5l19 25l102 -93 q-8 -12 -23.5 -30.5t-69.5 -68.5t-115.5 -88t-160 -71.5t-202.5 -35.5l-43 -95h10q76 0 120 -41t44 -106q0 -68 -52.5 -114t-142.5 -46q-45 0 -89 16.5t-64 32.5l-21 17l41 67q51 -51 133 -51q45 0 74 24.5t29 57.5q0 31 -22.5 51.5t-59.5 20.5q-16 0 -31.5 -5.5 t-22.5 -11.5l-8 -4l-51 51l64 138q-285 25 -476.5 234.5t-191.5 498.5z" />
<glyph unicode="&#xc8;" horiz-adv-x="1310" d="M215 0v1434h983v-144h-829v-471h665v-143h-665v-533h850v-143h-1004zM492 1905h153l154 -277h-113z" />
<glyph unicode="&#xc9;" horiz-adv-x="1310" d="M215 0v1434h983v-144h-829v-471h665v-143h-665v-533h850v-143h-1004zM645 1628l154 277h153l-194 -277h-113z" />
<glyph unicode="&#xca;" horiz-adv-x="1310" d="M215 0v1434h983v-144h-829v-471h665v-143h-665v-533h850v-143h-1004zM420 1618l225 276h143l226 -276h-133l-164 194l-164 -194h-133z" />
<glyph unicode="&#xcb;" horiz-adv-x="1310" d="M215 0v1434h983v-144h-829v-471h665v-143h-665v-533h850v-143h-1004zM430 1751q0 39 26.5 65.5t65.5 26.5t65.5 -26.5t26.5 -65.5t-26.5 -65.5t-65.5 -26.5t-65.5 26.5t-26.5 65.5zM819 1751q0 39 26.5 65.5t65.5 26.5t66 -26.5t27 -65.5t-27 -65.5t-66 -26.5t-65.5 26.5 t-26.5 65.5z" />
<glyph unicode="&#xcc;" horiz-adv-x="583" d="M41 1905h154l153 -277h-112zM215 0v1434h154v-1434h-154z" />
<glyph unicode="&#xcd;" horiz-adv-x="583" d="M215 0v1434h154v-1434h-154zM246 1628l153 277h154l-195 -277h-112z" />
<glyph unicode="&#xce;" horiz-adv-x="583" d="M0 1618l225 276h144l225 -276h-133l-164 194l-164 -194h-133zM215 0v1434h154v-1434h-154z" />
<glyph unicode="&#xcf;" horiz-adv-x="583" d="M10 1751q0 39 26.5 65.5t65.5 26.5t66 -26.5t27 -65.5t-27 -65.5t-66 -26.5t-65.5 26.5t-26.5 65.5zM215 0v1434h154v-1434h-154zM399 1751q0 39 27 65.5t65.5 26.5t65.5 -26.5t27 -65.5t-27 -65.5t-65.5 -26.5t-65.5 26.5t-27 65.5z" />
<glyph unicode="&#xd0;" horiz-adv-x="1566" d="M51 645v143h195v646h450q313 0 530.5 -211t217.5 -506t-217 -506t-531 -211h-450v645h-195zM399 143h297q252 0 423 167t171 406.5t-171 406.5t-423 167h-297v-502h349v-143h-349v-502z" />
<glyph unicode="&#xd1;" horiz-adv-x="1597" d="M215 0v1434h133l881 -1158v1158h153v-1434h-133l-880 1157v-1157h-154zM481 1628q0 119 52.5 182.5t132.5 63.5q61 0 108 -34t84 -66.5t74 -32.5q33 0 57.5 33.5t24.5 99.5h102q0 -119 -52 -182.5t-132 -63.5q-61 0 -108.5 34t-84 66.5t-73.5 32.5q-33 0 -57.5 -33.5 t-24.5 -99.5h-103z" />
<glyph unicode="&#xd2;" horiz-adv-x="1720" d="M123 717q0 307 215 522t522 215t522 -215t215 -522t-215 -522t-522 -215t-522 215t-215 522zM276 717q0 -252 169 -423t415 -171t415 171t169 423t-169 423t-415 171t-415 -171t-169 -423zM614 1905h154l154 -277h-113z" />
<glyph unicode="&#xd3;" horiz-adv-x="1720" d="M123 717q0 307 215 522t522 215t522 -215t215 -522t-215 -522t-522 -215t-522 215t-215 522zM276 717q0 -252 169 -423t415 -171t415 171t169 423t-169 423t-415 171t-415 -171t-169 -423zM819 1628l154 277h153l-194 -277h-113z" />
<glyph unicode="&#xd4;" horiz-adv-x="1720" d="M123 717q0 307 215 522t522 215t522 -215t215 -522t-215 -522t-522 -215t-522 215t-215 522zM276 717q0 -252 169 -423t415 -171t415 171t169 423t-169 423t-415 171t-415 -171t-169 -423zM563 1618l225 276h144l225 -276h-133l-164 194l-164 -194h-133z" />
<glyph unicode="&#xd5;" horiz-adv-x="1720" d="M123 717q0 307 215 522t522 215t522 -215t215 -522t-215 -522t-522 -215t-522 215t-215 522zM276 717q0 -252 169 -423t415 -171t415 171t169 423t-169 423t-415 171t-415 -171t-169 -423zM553 1628q0 119 52 182.5t132 63.5q61 0 108.5 -34t84.5 -66.5t74 -32.5 q33 0 57 33.5t24 99.5h103q0 -119 -52.5 -182.5t-131.5 -63.5q-61 0 -108.5 34t-84.5 66.5t-74 32.5q-33 0 -57.5 -33.5t-24.5 -99.5h-102z" />
<glyph unicode="&#xd6;" horiz-adv-x="1720" d="M123 717q0 307 215 522t522 215t522 -215t215 -522t-215 -522t-522 -215t-522 215t-215 522zM276 717q0 -252 169 -423t415 -171t415 171t169 423t-169 423t-415 171t-415 -171t-169 -423zM573 1751q0 39 27 65.5t66 26.5t65.5 -26.5t26.5 -65.5t-26.5 -65.5t-65.5 -26.5 t-66 26.5t-27 65.5zM963 1751q0 39 26.5 65.5t65.5 26.5t65.5 -26.5t26.5 -65.5t-26.5 -65.5t-65.5 -26.5t-65.5 26.5t-26.5 65.5z" />
<glyph unicode="&#xd7;" horiz-adv-x="942" d="M92 348l287 287l-287 287l92 92l287 -287l287 287l92 -92l-287 -287l287 -287l-92 -92l-287 287l-287 -287z" />
<glyph unicode="&#xd8;" horiz-adv-x="1720" d="M102 61l185 185q-6 8 -17.5 21.5t-40 61.5t-50 99t-39 130t-17.5 159q0 307 215 522t522 215q127 0 245 -41t173 -82l53 -41l185 185l102 -103l-184 -184q6 -8 17 -21.5t40 -61.5t50.5 -99.5t38.5 -130t17 -158.5q0 -307 -215 -522t-522 -215q-127 0 -244.5 40.5 t-173.5 81.5l-53 41l-184 -184zM276 717q0 -100 28 -192.5t56 -135.5l29 -41l840 840q-16 14 -46 34.5t-126 54.5t-197 34q-246 0 -415 -171t-169 -423zM492 246q16 -14 45.5 -35t126 -54.5t196.5 -33.5q246 0 415 171t169 423q0 100 -27.5 192t-56.5 135l-29 41z" />
<glyph unicode="&#xd9;" horiz-adv-x="1556" d="M195 563v871h153v-871q0 -184 126 -312t304 -128t304 128t126 312v871h154v-871q0 -238 -173 -410.5t-410.5 -172.5t-410.5 173t-173 410zM553 1905h154l153 -277h-112z" />
<glyph unicode="&#xda;" horiz-adv-x="1556" d="M195 563v871h153v-871q0 -184 126 -312t304 -128t304 128t126 312v871h154v-871q0 -238 -173 -410.5t-410.5 -172.5t-410.5 173t-173 410zM707 1628l153 277h154l-195 -277h-112z" />
<glyph unicode="&#xdb;" horiz-adv-x="1556" d="M195 563v871h153v-871q0 -184 126 -312t304 -128t304 128t126 312v871h154v-871q0 -238 -173 -410.5t-410.5 -172.5t-410.5 173t-173 410zM481 1618l226 276h143l225 -276h-133l-164 194l-164 -194h-133z" />
<glyph unicode="&#xdc;" horiz-adv-x="1556" d="M195 563v871h153v-871q0 -184 126 -312t304 -128t304 128t126 312v871h154v-871q0 -238 -173 -410.5t-410.5 -172.5t-410.5 173t-173 410zM481 1751q0 39 27 65.5t65.5 26.5t65.5 -26.5t27 -65.5t-27 -65.5t-65.5 -26.5t-65.5 26.5t-27 65.5zM870 1751q0 39 27 65.5 t65.5 26.5t65.5 -26.5t27 -65.5t-27 -65.5t-65.5 -26.5t-65.5 26.5t-27 65.5z" />
<glyph unicode="&#xdd;" horiz-adv-x="1300" d="M41 1434h174l430 -768h10l430 768h175l-533 -932v-502h-154v502zM604 1628l154 277h153l-194 -277h-113z" />
<glyph unicode="&#xde;" horiz-adv-x="1331" d="M215 -41v1516h154v-185h245q258 0 426 -159.5t168 -393t-168 -393.5t-426 -160h-245v-225h-154zM369 328h245q197 0 319 115.5t122 293.5t-122 294t-319 116h-245v-819z" />
<glyph unicode="&#xdf;" horiz-adv-x="1198" d="M164 0v1065q0 162 117.5 275.5t292 113.5t292 -111.5t117.5 -267.5q0 -55 -18.5 -105t-43 -82t-50 -55.5t-44.5 -33.5l-18 -11q10 -4 29.5 -11t66.5 -36.5t84 -66.5t66.5 -105.5t29.5 -148.5q0 -178 -124.5 -299t-315.5 -121h-92v143h92q129 0 213 80t84 197t-84 196.5 t-213 79.5h-92v144h20q109 0 188 68.5t79 166.5q0 100 -77 173t-190 73q-115 0 -190.5 -73.5t-75.5 -182.5v-1065h-143z" />
<glyph unicode="&#xe0;" horiz-adv-x="1064" d="M82 266q0 123 74 198.5t213 98.5l379 62q0 109 -69 177t-177 68q-78 0 -146.5 -35.5t-99.5 -72.5l-31 -35l-92 92q6 8 16.5 20.5t46 44t74.5 56.5t102.5 44.5t129.5 19.5q168 0 278.5 -109t110.5 -270v-625h-143v133q-4 -6 -12.5 -16.5t-38 -37t-63.5 -47t-89.5 -36.5 t-114.5 -16q-147 0 -247.5 87t-100.5 199zM225 266q0 -66 54.5 -109.5t150.5 -43.5q139 0 228.5 91t89.5 236v62l-338 -62q-184 -35 -185 -174zM287 1434h153l154 -277h-113z" />
<glyph unicode="&#xe1;" horiz-adv-x="1064" d="M82 266q0 123 74 198.5t213 98.5l379 62q0 109 -69 177t-177 68q-78 0 -146.5 -35.5t-99.5 -72.5l-31 -35l-92 92q6 8 16.5 20.5t46 44t74.5 56.5t102.5 44.5t129.5 19.5q168 0 278.5 -109t110.5 -270v-625h-143v133q-4 -6 -12.5 -16.5t-38 -37t-63.5 -47t-89.5 -36.5 t-114.5 -16q-147 0 -247.5 87t-100.5 199zM225 266q0 -66 54.5 -109.5t150.5 -43.5q139 0 228.5 91t89.5 236v62l-338 -62q-184 -35 -185 -174zM471 1157l154 277h153l-194 -277h-113z" />
<glyph unicode="&#xe2;" horiz-adv-x="1064" d="M82 266q0 123 74 198.5t213 98.5l379 62q0 109 -69 177t-177 68q-78 0 -146.5 -35.5t-99.5 -72.5l-31 -35l-92 92q6 8 16.5 20.5t46 44t74.5 56.5t102.5 44.5t129.5 19.5q168 0 278.5 -109t110.5 -270v-625h-143v133q-4 -6 -12.5 -16.5t-38 -37t-63.5 -47t-89.5 -36.5 t-114.5 -16q-147 0 -247.5 87t-100.5 199zM225 266q0 -66 54.5 -109.5t150.5 -43.5q139 0 228.5 91t89.5 236v62l-338 -62q-184 -35 -185 -174zM246 1157l225 277h143l226 -277h-133l-164 195l-164 -195h-133z" />
<glyph unicode="&#xe3;" horiz-adv-x="1064" d="M82 266q0 123 74 198.5t213 98.5l379 62q0 109 -69 177t-177 68q-78 0 -146.5 -35.5t-99.5 -72.5l-31 -35l-92 92q6 8 16.5 20.5t46 44t74.5 56.5t102.5 44.5t129.5 19.5q168 0 278.5 -109t110.5 -270v-625h-143v133q-4 -6 -12.5 -16.5t-38 -37t-63.5 -47t-89.5 -36.5 t-114.5 -16q-147 0 -247.5 87t-100.5 199zM215 1157q0 119 52 182.5t132 63.5q61 0 108.5 -34t84.5 -66.5t74 -32.5q33 0 57.5 33.5t24.5 99.5h102q0 -119 -52.5 -182.5t-131.5 -63.5q-61 0 -108.5 34t-84.5 66.5t-74 32.5q-33 0 -57.5 -33.5t-24.5 -99.5h-102zM225 266 q0 -66 54.5 -109.5t150.5 -43.5q139 0 228.5 91t89.5 236v62l-338 -62q-184 -35 -185 -174z" />
<glyph unicode="&#xe4;" horiz-adv-x="1064" d="M82 266q0 123 74 198.5t213 98.5l379 62q0 109 -69 177t-177 68q-78 0 -146.5 -35.5t-99.5 -72.5l-31 -35l-92 92q6 8 16.5 20.5t46 44t74.5 56.5t102.5 44.5t129.5 19.5q168 0 278.5 -109t110.5 -270v-625h-143v133q-4 -6 -12.5 -16.5t-38 -37t-63.5 -47t-89.5 -36.5 t-114.5 -16q-147 0 -247.5 87t-100.5 199zM225 266q0 -66 54.5 -109.5t150.5 -43.5q139 0 228.5 91t89.5 236v62l-338 -62q-184 -35 -185 -174zM246 1290q0 39 26.5 65.5t65.5 26.5t65.5 -26.5t26.5 -65.5t-26.5 -65.5t-65.5 -26.5t-65.5 26.5t-26.5 65.5zM635 1290 q0 39 26.5 65.5t65.5 26.5t65.5 -26.5t26.5 -65.5t-26.5 -65.5t-65.5 -26.5t-65.5 26.5t-26.5 65.5z" />
<glyph unicode="&#xe5;" horiz-adv-x="1064" d="M82 266q0 123 74 198.5t213 98.5l379 62q0 109 -69 177t-177 68q-78 0 -146.5 -35.5t-99.5 -72.5l-31 -35l-92 92q6 8 16.5 20.5t46 44t74.5 56.5t102.5 44.5t129.5 19.5q168 0 278.5 -109t110.5 -270v-625h-143v133q-4 -6 -12.5 -16.5t-38 -37t-63.5 -47t-89.5 -36.5 t-114.5 -16q-147 0 -247.5 87t-100.5 199zM225 266q0 -66 54.5 -109.5t150.5 -43.5q139 0 228.5 91t89.5 236v62l-338 -62q-184 -35 -185 -174zM338 1311q0 84 55.5 139t139 55t139 -55t55.5 -139t-55.5 -139.5t-139 -55.5t-139 55.5t-55.5 139.5zM440 1311q0 -45 27 -74 t65.5 -29t65.5 29t27 74t-27 73.5t-65.5 28.5t-65.5 -28.5t-27 -73.5z" />
<glyph unicode="&#xe6;" horiz-adv-x="1781" d="M82 266q0 125 97 216t241 91h338v31q0 119 -68.5 192.5t-177.5 73.5q-78 0 -144.5 -35.5t-93.5 -72.5l-28 -35l-92 92q4 8 14 20.5t44 44t72 56.5t99 44.5t127 19.5q70 0 130 -21.5t97 -51.5t63.5 -59.5t39.5 -52.5l10 -20q6 8 16.5 22.5t46 49t76.5 61t105.5 49.5 t134.5 23q188 0 319 -141.5t131 -360.5l-10 -62h-768q8 -131 109.5 -229t232.5 -98q90 0 167 41t110 82l30 40l95 -92q-6 -8 -16.5 -22.5t-48.5 -49t-81 -61t-112.5 -49t-143.5 -22.5q-78 0 -149.5 25.5t-117.5 61t-81 71.5t-51 63l-15 24q-4 -10 -13 -26.5t-42 -58.5 t-75 -74.5t-113.5 -59t-155.5 -26.5q-156 0 -252 83.5t-96 202.5zM225 266q0 -66 54.5 -109.5t150.5 -43.5q143 0 235.5 96t92.5 231h-338q-90 0 -142.5 -48t-52.5 -126zM901 573h645q-23 133 -109.5 215t-207.5 82t-216 -89t-112 -208z" />
<glyph unicode="&#xe7;" horiz-adv-x="1054" d="M82 492q0 213 145.5 362.5t345.5 149.5q115 0 214.5 -49.5t142.5 -98.5l43 -47l-103 -102q-4 6 -12 17t-35.5 40t-59.5 50.5t-83 38.5t-107 17q-141 0 -244.5 -109.5t-103.5 -269t103.5 -269t244.5 -109.5q86 0 163 41t112 82l33 40l102 -92q-6 -8 -16.5 -20t-48 -45 t-78.5 -59.5t-104.5 -50t-129.5 -27.5l-43 -95h10q76 0 120 -41t44 -106q0 -68 -52 -114t-142 -46q-45 0 -89 16.5t-65 32.5l-20 17l41 67q51 -51 133 -51q45 0 73.5 24.5t28.5 57.5q0 31 -22.5 51.5t-59.5 20.5q-16 0 -31.5 -5.5t-23.5 -11.5l-6 -4l-51 51l63 138 q-182 23 -307 167t-125 341z" />
<glyph unicode="&#xe8;" horiz-adv-x="1136" d="M82 492q0 213 143.5 362.5t337.5 149.5q201 0 336 -139.5t135 -352.5l-10 -74l-799 2q8 -133 109.5 -230t238.5 -97q92 0 171 41t112 82l35 40l92 -92q-6 -8 -17.5 -22.5t-50 -49t-83 -61t-115 -49t-144.5 -22.5q-201 0 -346 149.5t-145 362.5zM225 563h666 q-16 133 -107.5 220t-220.5 87t-225 -91t-113 -216zM328 1434h153l154 -277h-113z" />
<glyph unicode="&#xe9;" horiz-adv-x="1136" d="M82 492q0 213 143.5 362.5t337.5 149.5q201 0 336 -139.5t135 -352.5l-10 -74l-799 2q8 -133 109.5 -230t238.5 -97q92 0 171 41t112 82l35 40l92 -92q-6 -8 -17.5 -22.5t-50 -49t-83 -61t-115 -49t-144.5 -22.5q-201 0 -346 149.5t-145 362.5zM225 563h666 q-16 133 -107.5 220t-220.5 87t-225 -91t-113 -216zM512 1157l154 277h153l-194 -277h-113z" />
<glyph unicode="&#xea;" horiz-adv-x="1136" d="M82 492q0 213 143.5 362.5t337.5 149.5q201 0 336 -139.5t135 -352.5l-10 -74l-799 2q8 -133 109.5 -230t238.5 -97q92 0 171 41t112 82l35 40l92 -92q-6 -8 -17.5 -22.5t-50 -49t-83 -61t-115 -49t-144.5 -22.5q-201 0 -346 149.5t-145 362.5zM225 563h666 q-16 133 -107.5 220t-220.5 87t-225 -91t-113 -216zM276 1157l226 277h143l225 -277h-133l-164 195l-163 -195h-134z" />
<glyph unicode="&#xeb;" horiz-adv-x="1136" d="M82 492q0 213 143.5 362.5t337.5 149.5q201 0 336 -139.5t135 -352.5l-10 -74l-799 2q8 -133 109.5 -230t238.5 -97q92 0 171 41t112 82l35 40l92 -92q-6 -8 -17.5 -22.5t-50 -49t-83 -61t-115 -49t-144.5 -22.5q-201 0 -346 149.5t-145 362.5zM225 563h666 q-16 133 -107.5 220t-220.5 87t-225 -91t-113 -216zM276 1290q0 39 27 65.5t66 26.5t65.5 -26.5t26.5 -65.5t-26.5 -65.5t-65.5 -26.5t-66 26.5t-27 65.5zM666 1290q0 39 26.5 65.5t65.5 26.5t65.5 -26.5t26.5 -65.5t-26.5 -65.5t-65.5 -26.5t-65.5 26.5t-26.5 65.5z" />
<glyph unicode="&#xec;" horiz-adv-x="471" d="M-31 1434h154l153 -277h-112zM154 0v983h143v-983h-143z" />
<glyph unicode="&#xed;" horiz-adv-x="471" d="M154 0v983h143v-983h-143zM164 1157l153 277h154l-195 -277h-112z" />
<glyph unicode="&#xee;" horiz-adv-x="471" d="M-72 1157l226 277h143l225 -277h-133l-164 195l-164 -195h-133zM154 0v983h143v-983h-143z" />
<glyph unicode="&#xef;" horiz-adv-x="471" d="M-61 1290q0 39 26.5 65.5t65.5 26.5t65.5 -26.5t26.5 -65.5t-26.5 -65.5t-65.5 -26.5t-65.5 26.5t-26.5 65.5zM154 0v983h143v-983h-143zM328 1290q0 39 26.5 65.5t65.5 26.5t65.5 -26.5t26.5 -65.5t-26.5 -65.5t-65.5 -26.5t-65.5 26.5t-26.5 65.5z" />
<glyph unicode="&#xf0;" horiz-adv-x="1177" d="M82 471q0 199 142.5 345.5t328.5 146.5q104 0 191 -49.5t122 -98.5l35 -47q-16 94 -56 181t-83 142.5t-84 98.5t-68 61l-26 19l-236 -174l-72 112l185 133q-102 72 -236 103l41 123q78 -23 155 -58.5t116 -60.5l36 -25l246 174l72 -102l-205 -143q14 -8 39 -26.5 t86 -86.5t108.5 -147.5t86 -214t38.5 -283.5q0 -291 -138 -452.5t-353 -161.5q-195 0 -333 143t-138 348zM225 471q0 -152 97.5 -255t230.5 -103t230.5 103t97.5 255t-97.5 255t-230.5 103t-230.5 -103t-97.5 -255z" />
<glyph unicode="&#xf1;" d="M154 0v983h143v-143q4 6 12 17t38 40t63.5 50.5t89 39t114.5 17.5q178 0 289 -115t111 -305v-584h-144v584q0 129 -74.5 207.5t-191.5 78.5q-131 0 -219 -92t-88 -235v-543h-143zM266 1157q0 119 52.5 182.5t132.5 63.5q61 0 108 -34t84 -66.5t74 -32.5q33 0 57.5 33.5 t24.5 99.5h102q0 -119 -52 -182.5t-132 -63.5q-61 0 -108.5 34t-84 66.5t-73.5 32.5q-33 0 -57.5 -33.5t-24.5 -99.5h-103z" />
<glyph unicode="&#xf2;" d="M82 491.5q0 215.5 146.5 364t355.5 148.5t355 -148.5t146 -364t-146 -363.5t-355 -148t-355.5 148t-146.5 363.5zM225 492q0 -158 105.5 -268.5t253 -110.5t253 109.5t105.5 269t-105.5 269t-253 109.5t-253 -109.5t-105.5 -268.5zM328 1434h153l154 -277h-113z" />
<glyph unicode="&#xf3;" d="M82 491.5q0 215.5 146.5 364t355.5 148.5t355 -148.5t146 -364t-146 -363.5t-355 -148t-355.5 148t-146.5 363.5zM225 492q0 -158 105.5 -268.5t253 -110.5t253 109.5t105.5 269t-105.5 269t-253 109.5t-253 -109.5t-105.5 -268.5zM522 1157l154 277h153l-194 -277h-113z " />
<glyph unicode="&#xf4;" d="M82 491.5q0 215.5 146.5 364t355.5 148.5t355 -148.5t146 -364t-146 -363.5t-355 -148t-355.5 148t-146.5 363.5zM225 492q0 -158 105.5 -268.5t253 -110.5t253 109.5t105.5 269t-105.5 269t-253 109.5t-253 -109.5t-105.5 -268.5zM287 1157l225 277h143l226 -277h-133 l-164 195l-164 -195h-133z" />
<glyph unicode="&#xf5;" d="M82 491.5q0 215.5 146.5 364t355.5 148.5t355 -148.5t146 -364t-146 -363.5t-355 -148t-355.5 148t-146.5 363.5zM225 492q0 -158 105.5 -268.5t253 -110.5t253 109.5t105.5 269t-105.5 269t-253 109.5t-253 -109.5t-105.5 -268.5zM266 1157q0 119 52.5 182.5t132.5 63.5 q61 0 108 -34t84 -66.5t74 -32.5q33 0 57.5 33.5t24.5 99.5h102q0 -119 -52 -182.5t-132 -63.5q-61 0 -108.5 34t-84 66.5t-73.5 32.5q-33 0 -57.5 -33.5t-24.5 -99.5h-103z" />
<glyph unicode="&#xf6;" d="M82 491.5q0 215.5 146.5 364t355.5 148.5t355 -148.5t146 -364t-146 -363.5t-355 -148t-355.5 148t-146.5 363.5zM225 492q0 -158 105.5 -268.5t253 -110.5t253 109.5t105.5 269t-105.5 269t-253 109.5t-253 -109.5t-105.5 -268.5zM287 1290q0 39 26.5 65.5t65.5 26.5 t65.5 -26.5t26.5 -65.5t-26.5 -65.5t-65.5 -26.5t-65.5 26.5t-26.5 65.5zM676 1290q0 39 26.5 65.5t65.5 26.5t65.5 -26.5t26.5 -65.5t-26.5 -65.5t-65.5 -26.5t-65.5 26.5t-26.5 65.5z" />
<glyph unicode="&#xf7;" horiz-adv-x="1044" d="M92 532v134h860v-134h-860zM420 235.5q0 47.5 27.5 75t74.5 27.5t75 -27.5t28 -75t-28 -75t-75 -27.5t-74.5 27.5t-27.5 75zM420 963q0 45 27.5 73.5t74.5 28.5t75 -28.5t28 -73.5t-28 -74t-75 -29t-74.5 29t-27.5 74z" />
<glyph unicode="&#xf8;" d="M61 41l134 133q-12 12 -31 37t-50.5 107.5t-31.5 173.5q0 215 146.5 363.5t355.5 148.5q82 0 156.5 -26t107.5 -52l33 -25l133 133l92 -92l-133 -133q12 -12 30.5 -36.5t50 -107.5t31.5 -173q0 -215 -146 -363.5t-355 -148.5q-82 0 -157 25.5t-108 51.5l-32 25l-133 -133 zM225 492q0 -59 15.5 -112.5t29.5 -78.5l17 -25l501 523q-82 72 -204 71q-147 0 -253 -109.5t-106 -268.5zM379 184q82 -72 205 -71q147 0 252.5 109.5t105.5 269.5q0 59 -15.5 112t-29.5 78l-16 25z" />
<glyph unicode="&#xf9;" horiz-adv-x="1198" d="M154 410v573h143v-573q0 -129 80 -213t196 -84q125 0 211 92t86 235v543h144v-983h-144v133q-4 -6 -12 -16.5t-37.5 -37t-63.5 -47t-89.5 -36.5t-114.5 -16q-172 0 -285.5 119.5t-113.5 310.5zM338 1434h154l153 -277h-113z" />
<glyph unicode="&#xfa;" horiz-adv-x="1198" d="M154 410v573h143v-573q0 -129 80 -213t196 -84q125 0 211 92t86 235v543h144v-983h-144v133q-4 -6 -12 -16.5t-37.5 -37t-63.5 -47t-89.5 -36.5t-114.5 -16q-172 0 -285.5 119.5t-113.5 310.5zM512 1157l154 277h153l-194 -277h-113z" />
<glyph unicode="&#xfb;" horiz-adv-x="1198" d="M154 410v573h143v-573q0 -129 80 -213t196 -84q125 0 211 92t86 235v543h144v-983h-144v133q-4 -6 -12 -16.5t-37.5 -37t-63.5 -47t-89.5 -36.5t-114.5 -16q-172 0 -285.5 119.5t-113.5 310.5zM287 1157l225 277h143l226 -277h-133l-164 195l-164 -195h-133z" />
<glyph unicode="&#xfc;" horiz-adv-x="1198" d="M154 410v573h143v-573q0 -129 80 -213t196 -84q125 0 211 92t86 235v543h144v-983h-144v133q-4 -6 -12 -16.5t-37.5 -37t-63.5 -47t-89.5 -36.5t-114.5 -16q-172 0 -285.5 119.5t-113.5 310.5zM287 1280q0 39 26.5 65.5t65.5 26.5t65.5 -26.5t26.5 -65.5t-26.5 -65.5 t-65.5 -26.5t-65.5 26.5t-26.5 65.5zM676 1280q0 39 26.5 65.5t65.5 26.5t65.5 -26.5t26.5 -65.5t-26.5 -65.5t-65.5 -26.5t-65.5 26.5t-26.5 65.5z" />
<glyph unicode="&#xfd;" horiz-adv-x="1003" d="M20 983h154l318 -799l317 799h154l-451 -1126q-61 -156 -131 -221.5t-176 -65.5q-33 0 -63.5 5t-45.5 11l-14 4v134q51 -20 102 -21q130 0 185 154l51 143zM451 1157l153 277h154l-195 -277h-112z" />
<glyph unicode="&#xfe;" horiz-adv-x="1228" d="M164 -430v1864h143v-605q4 6 14.5 18.5t43 42.5t70.5 53.5t97.5 42t122.5 18.5q188 0 329.5 -151t141.5 -361.5t-141 -361t-330 -150.5q-63 0 -121.5 18t-98.5 43t-69.5 50.5t-43.5 43.5l-15 19v-584h-143zM307 491.5q0 -151.5 107.5 -265t240.5 -113.5 q127 0 227.5 110.5t100.5 268t-100.5 268t-227.5 110.5q-133 0 -240.5 -113.5t-107.5 -265z" />
<glyph unicode="&#xff;" horiz-adv-x="1003" d="M20 983h154l318 -799l317 799h154l-451 -1126q-61 -156 -131 -221.5t-176 -65.5q-33 0 -63.5 5t-45.5 11l-14 4v134q51 -20 102 -21q130 0 185 154l51 143zM195 1290q0 39 26.5 65.5t65.5 26.5t65.5 -26.5t26.5 -65.5t-26.5 -65.5t-65.5 -26.5t-65.5 26.5t-26.5 65.5z M584 1290q0 39 26.5 65.5t65.5 26.5t65.5 -26.5t26.5 -65.5t-26.5 -65.5t-65.5 -26.5t-65.5 26.5t-26.5 65.5z" />
<glyph unicode="&#x152;" horiz-adv-x="2058" d="M123 717q0 301 210 509t517 208h1096v-144h-738v-471h574v-143h-574v-533h758v-143h-1116q-307 0 -517 208t-210 509zM276 717q0 -246 164 -410t410 -164h205v1147h-205q-246 0 -410 -163.5t-164 -409.5z" />
<glyph unicode="&#x153;" horiz-adv-x="1925" d="M82 492q0 213 143.5 362.5t337.5 149.5q78 0 148.5 -27t116.5 -63.5t80 -74.5t50 -65l15 -26q4 10 14 27.5t46 61.5t78 77.5t112.5 61.5t148.5 28q188 0 319.5 -141.5t131.5 -360.5l-11 -72h-768q16 -133 112.5 -225t225.5 -92q90 0 167 41t110 82l31 40l92 -92 q-6 -8 -16.5 -22.5t-47.5 -49t-80 -61t-112.5 -49t-143.5 -22.5q-80 0 -151.5 26.5t-116.5 63t-79 74.5t-48 65l-14 27q-6 -10 -16.5 -28t-48.5 -62t-82 -77.5t-114.5 -61t-148.5 -27.5q-195 0 -338 149.5t-143 362.5zM225 491.5q0 -157.5 102.5 -268t235.5 -110.5 t235.5 110.5t102.5 268t-102.5 268t-235.5 110.5t-235.5 -110.5t-102.5 -268zM1044 563h635q-16 137 -100 222t-207 85q-121 0 -216 -91t-112 -216z" />
<glyph unicode="&#x178;" horiz-adv-x="1300" d="M41 1434h174l430 -768h10l430 768h175l-533 -932v-502h-154v502zM369 1751q0 39 26.5 65.5t65.5 26.5t65.5 -26.5t26.5 -65.5t-26.5 -65.5t-65.5 -26.5t-65.5 26.5t-26.5 65.5zM758 1751q0 39 26.5 65.5t65.5 26.5t65.5 -26.5t26.5 -65.5t-26.5 -65.5t-65.5 -26.5 t-65.5 26.5t-26.5 65.5z" />
<glyph unicode="&#x2c6;" horiz-adv-x="716" d="M61 1157l226 277h143l225 -277h-133l-164 195l-163 -195h-134z" />
<glyph unicode="&#x2da;" horiz-adv-x="512" d="M61 1229q0 84 55.5 139t139.5 55t139.5 -55t55.5 -139t-55.5 -139.5t-139.5 -55.5t-139.5 55.5t-55.5 139.5zM164 1229q0 -45 26.5 -74t65.5 -29t65.5 29t26.5 74t-26.5 73.5t-65.5 28.5t-65.5 -28.5t-26.5 -73.5z" />
<glyph unicode="&#x2dc;" horiz-adv-x="757" d="M61 1178q0 119 52.5 182t132.5 63q61 0 108 -33.5t84 -66.5t74 -33q33 0 57.5 34t24.5 99h102q0 -119 -52 -182t-132 -63q-61 0 -108.5 33.5t-84 66.5t-73.5 33q-33 0 -57.5 -34t-24.5 -99h-103z" />
<glyph unicode="&#x401;" horiz-adv-x="1310" d="M215 0v1434h983v-144h-829v-471h665v-143h-665v-533h850v-143h-1004zM420 1751q0 39 26.5 65.5t65.5 26.5t65.5 -26.5t26.5 -65.5t-26.5 -65.5t-65.5 -26.5t-65.5 26.5t-26.5 65.5zM809 1751q0 39 26.5 65.5t65.5 26.5t65.5 -26.5t26.5 -65.5t-26.5 -65.5t-65.5 -26.5 t-65.5 26.5t-26.5 65.5z" />
<glyph unicode="&#x402;" horiz-adv-x="1464" d="M0 1290v144h891v-144h-369v-491q16 14 49 36.5t134.5 59.5t205.5 37q195 0 312.5 -126t117.5 -345q0 -221 -128 -351t-343 -130v143q147 0 232.5 89t85.5 249q0 152 -82 239.5t-215 87.5q-96 0 -188.5 -40.5t-137.5 -81.5l-43 -41v-625h-153v1290h-369z" />
<glyph unicode="&#x403;" horiz-adv-x="1126" d="M215 0v1434h891v-144h-737v-1290h-154zM604 1628l154 277h153l-194 -277h-113z" />
<glyph unicode="&#x404;" horiz-adv-x="1536" d="M123 717q0 307 215 522t522 215q109 0 209 -30.5t165.5 -73.5t115 -87t71.5 -75l23 -31l-103 -92q-6 10 -18 26.5t-57 58.5t-96.5 74.5t-134.5 59.5t-175 27q-233 0 -393 -145.5t-191 -366.5h758v-144h-758q23 -227 187 -379.5t397 -152.5q92 0 176 25.5t138.5 61.5 t96.5 71.5t60 62.5l21 25l102 -93q-8 -12 -24.5 -31.5t-73 -70.5t-119.5 -91t-165.5 -71.5t-211.5 -31.5q-307 0 -522 215t-215 522z" />
<glyph unicode="&#x405;" horiz-adv-x="1157" d="M92 195l94 104q4 -6 14.5 -18.5t45.5 -43t75.5 -53t109.5 -42t142 -19.5q158 0 243 73.5t85 192.5q0 74 -43 126t-111.5 81t-151.5 52.5t-166 52t-151.5 69.5t-111.5 116t-43 179q0 162 127 275.5t334 113.5q78 0 148.5 -19.5t117.5 -46t84 -53t53 -45.5l17 -20 l-103 -103q-4 6 -12 15.5t-38 34t-63.5 44t-89 35t-114.5 15.5q-141 0 -224.5 -72t-83.5 -174q0 -74 43 -126t112 -81t152 -52.5t165.5 -52t151.5 -69.5t112 -115.5t43 -179.5q0 -182 -128 -295.5t-354 -113.5q-92 0 -175 22.5t-136 53t-94 62.5t-57 54z" />
<glyph unicode="&#x406;" horiz-adv-x="583" d="M215 0v1434h154v-1434h-154z" />
<glyph unicode="&#x407;" horiz-adv-x="583" d="M10 1751q0 39 26.5 65.5t65.5 26.5t66 -26.5t27 -65.5t-27 -65.5t-66 -26.5t-65.5 26.5t-26.5 65.5zM215 0v1434h154v-1434h-154zM399 1751q0 39 27 65.5t65.5 26.5t65.5 -26.5t27 -65.5t-27 -65.5t-65.5 -26.5t-65.5 26.5t-27 65.5z" />
<glyph unicode="&#x408;" horiz-adv-x="1013" d="M20 143l103 103q4 -4 10 -13.5t28.5 -30t49.5 -36.5t70 -29.5t88 -13.5q131 0 208.5 80t77.5 217v1014h154v-1014q0 -193 -124 -316.5t-316 -123.5q-63 0 -122 16t-98.5 40.5t-69.5 49.5t-44 41z" />
<glyph unicode="&#x409;" horiz-adv-x="2211" d="M-10 0v154q61 -20 112 -21q63 0 107.5 31t83.5 119t57.5 267t18.5 454v430h891v-533h368q199 0 330 -129t131 -321.5t-131 -321.5t-330 -129h-522v1290h-584v-286q0 -317 -26.5 -525.5t-82 -315t-123 -145t-167.5 -38.5q-33 0 -65.5 5t-49.5 11zM1260 143h368 q137 0 222 84t85 223.5t-85 223.5t-222 84h-368v-615z" />
<glyph unicode="&#x40a;" horiz-adv-x="2211" d="M215 0v1434h154v-533h737v533h154v-533h368q199 0 330 -129t131 -321.5t-131 -321.5t-330 -129h-522v758h-737v-758h-154zM1260 143h368q137 0 222 84t85 223.5t-85 223.5t-222 84h-368v-615z" />
<glyph unicode="&#x40b;" horiz-adv-x="1515" d="M0 1290v144h891v-144h-369v-491q16 14 49 36.5t134.5 59.5t205.5 37q193 0 311.5 -121t118.5 -319v-492h-153v492q0 131 -83 213.5t-214 82.5q-96 0 -188.5 -40.5t-137.5 -81.5l-43 -41v-625h-153v1290h-369z" />
<glyph unicode="&#x40c;" horiz-adv-x="1372" d="M215 0v1434h154v-809l737 809h194l-542 -594l594 -840h-185l-512 727l-286 -307v-420h-154zM666 1628l153 277h154l-195 -277h-112z" />
<glyph unicode="&#x40e;" horiz-adv-x="1249" d="M51 1434h164l451 -840l389 840h164l-533 -1117q-88 -184 -179 -260.5t-241 -76.5q-33 0 -65.5 5t-48.5 11l-19 4v143q51 -20 123 -20q96 0 152.5 44t113.5 150l62 113q-66 125 -250 470t-283 534zM358 1905h113q0 -70 47 -117t117 -47t117 47t47 117h112 q0 -123 -76.5 -200t-199.5 -77t-200 77t-77 200z" />
<glyph unicode="&#x40f;" horiz-adv-x="1525" d="M215 0v1434h154v-1291h788v1291h154v-1434h-471v-307h-154v307h-471z" />
<glyph unicode="&#x410;" horiz-adv-x="1433" d="M51 0l594 1434h143l594 -1434h-163l-164 399h-676l-164 -399h-164zM440 543h553l-276 676z" />
<glyph unicode="&#x411;" horiz-adv-x="1341" d="M215 0v1434h891v-144h-737v-430h399q190 0 320.5 -126t130.5 -304t-130.5 -304t-320.5 -126h-553zM369 143h399q129 0 213 82t84 205t-84 205t-213 82h-399v-574z" />
<glyph unicode="&#x412;" horiz-adv-x="1372" d="M215 0v1434h553q174 0 286.5 -106.5t112.5 -262.5q0 -63 -16 -116.5t-41 -85.5t-49.5 -54.5t-40.5 -30.5l-16 -10q10 -4 25 -11t56 -38t72 -68t56.5 -102.5t25.5 -138.5q0 -178 -122 -294t-318 -116h-584zM369 143h430q129 0 207.5 75t78.5 192q0 119 -79.5 202.5 t-206.5 83.5h-430v-553zM369 831h399q115 0 180.5 62.5t65.5 171.5q0 100 -65.5 162.5t-180.5 62.5h-399v-459z" />
<glyph unicode="&#x413;" horiz-adv-x="1126" d="M215 0v1434h891v-144h-737v-1290h-154z" />
<glyph unicode="&#x414;" horiz-adv-x="1454" d="M0 143h82q10 8 27.5 27.5t61.5 92.5t78 163t61.5 244.5t27.5 333.5v430h881v-1291h174v-450h-154v307h-1085v-307h-154v450zM246 143h819v1147h-573v-286q0 -174 -26 -328t-61.5 -247t-71.5 -161.5t-63 -95.5z" />
<glyph unicode="&#x415;" horiz-adv-x="1310" d="M215 0v1434h983v-144h-829v-471h665v-143h-665v-533h850v-143h-1004z" />
<glyph unicode="&#x416;" horiz-adv-x="1976" d="M20 0l594 840l-542 594h194l645 -705v705h154v-705l645 705h195l-543 -594l594 -840h-184l-512 727l-195 -205v-522h-154v522l-194 205l-512 -727h-185z" />
<glyph unicode="&#x417;" horiz-adv-x="1218" d="M61 205l103 102q6 -8 17.5 -20.5t50 -44t82.5 -56t115 -44t144 -19.5q170 0 269.5 82t99.5 194q0 121 -99.5 204t-269.5 83h-163v143h163q147 0 232.5 69t85.5 167q0 104 -85 175t-233 71q-100 0 -189 -41t-130 -82l-39 -41l-102 102q6 8 19 22.5t57 49.5t93.5 61.5 t128 49t162.5 22.5q215 0 343 -109.5t128 -269.5q0 -70 -25.5 -127t-61 -91t-71.5 -57.5t-63 -33.5l-24 -8q12 -2 31.5 -9.5t70.5 -35t91 -64.5t72 -103.5t32 -146.5q0 -168 -146.5 -293.5t-376.5 -125.5q-94 0 -182 23.5t-145.5 56t-101.5 65.5t-62 55z" />
<glyph unicode="&#x418;" horiz-adv-x="1597" d="M215 0v1434h154v-1158l880 1158h133v-1434h-153v1157l-881 -1157h-133z" />
<glyph unicode="&#x419;" horiz-adv-x="1597" d="M215 0v1434h154v-1158l880 1158h133v-1434h-153v1157l-881 -1157h-133zM522 1905h113q0 -70 47 -117t116.5 -47t117 47t47.5 117h112q0 -123 -76.5 -200t-199.5 -77t-200 77t-77 200z" />
<glyph unicode="&#x41a;" horiz-adv-x="1372" d="M215 0v1434h154v-809l737 809h194l-542 -594l594 -840h-185l-512 727l-286 -307v-420h-154z" />
<glyph unicode="&#x41b;" horiz-adv-x="1505" d="M-10 0v154q61 -20 112 -21q63 0 107.5 31t83.5 119t57.5 267t18.5 454v430h921v-1434h-153v1290h-615v-286q0 -317 -26.5 -525.5t-82 -315t-123 -145t-167.5 -38.5q-33 0 -65.5 5t-49.5 11z" />
<glyph unicode="&#x41c;" horiz-adv-x="1884" d="M215 0v1434h133l594 -779l594 779h133v-1434h-153v1167l-574 -757l-573 757v-1167h-154z" />
<glyph unicode="&#x41d;" horiz-adv-x="1536" d="M215 0v1434h154v-635h798v635h154v-1434h-154v655h-798v-655h-154z" />
<glyph unicode="&#x41e;" horiz-adv-x="1720" d="M123 717q0 307 215 522t522 215t522 -215t215 -522t-215 -522t-522 -215t-522 215t-215 522zM276 717q0 -252 169 -423t415 -171t415 171t169 423t-169 423t-415 171t-415 -171t-169 -423z" />
<glyph unicode="&#x41f;" horiz-adv-x="1536" d="M215 0v1434h1106v-1434h-154v1290h-798v-1290h-154z" />
<glyph unicode="&#x420;" horiz-adv-x="1331" d="M215 0v1434h543q199 0 330 -129t131 -321.5t-131.5 -322t-329.5 -129.5h-389v-532h-154zM369 676h389q139 0 223 84t84 223t-84 223t-223 84h-389v-614z" />
<glyph unicode="&#x421;" horiz-adv-x="1546" d="M123 717q0 307 215 522t522 215q109 0 209 -30.5t165.5 -73.5t115 -87t71.5 -75l23 -31l-103 -92q-6 10 -18 26.5t-56 58.5t-95.5 74.5t-135.5 59.5t-176 27q-246 0 -415 -171t-169 -423t169 -423t415 -171q92 0 176 25.5t139.5 61.5t97.5 71.5t60 62.5l19 25l102 -93 q-8 -12 -24.5 -31.5t-73 -70.5t-119.5 -91t-165.5 -71.5t-211.5 -31.5q-307 0 -522 215t-215 522z" />
<glyph unicode="&#x422;" horiz-adv-x="1136" d="M41 1290v144h1055v-144h-451v-1290h-153v1290h-451z" />
<glyph unicode="&#x423;" horiz-adv-x="1249" d="M51 1434h164l451 -840l389 840h164l-533 -1117q-88 -184 -179 -260.5t-241 -76.5q-33 0 -65.5 5t-48.5 11l-19 4v143q51 -20 123 -20q96 0 152.5 44t113.5 150l62 113q-66 125 -250 470t-283 534z" />
<glyph unicode="&#x424;" horiz-adv-x="1730" d="M113 737.5q0 243.5 184 409.5t491 174v154h154v-154q307 -8 491.5 -174t184.5 -409.5t-184.5 -409.5t-491.5 -174v-195h-154v195q-307 8 -491 174t-184 409.5zM266 737.5q0 -190.5 137.5 -311.5t384.5 -129v881q-248 -8 -385 -129t-137 -311.5zM942 297q248 8 385 129 t137 311.5t-137 311t-385 129.5v-881z" />
<glyph unicode="&#x425;" horiz-adv-x="1331" d="M41 0l532 748l-491 686h184l400 -564l399 564h184l-491 -686l532 -748h-184l-440 625l-441 -625h-184z" />
<glyph unicode="&#x426;" horiz-adv-x="1546" d="M215 0v1434h154v-1291h778v1291h153v-1291h185v-450h-154v307h-1116z" />
<glyph unicode="&#x427;" horiz-adv-x="1443" d="M195 1004v430h153v-430q0 -172 94.5 -265.5t264.5 -93.5q66 0 128 15.5t104 38t73.5 46t48.5 37.5l14 17v635h154v-1434h-154v625q-16 -14 -49 -35t-134 -54.5t-206 -33.5q-227 0 -359 134t-132 368z" />
<glyph unicode="&#x428;" horiz-adv-x="2078" d="M215 0v1434h154v-1291h594v1291h153v-1291h594v1291h154v-1434h-1649z" />
<glyph unicode="&#x429;" horiz-adv-x="2109" d="M215 0v1434h154v-1291h594v1291h153v-1291h594v1291h154v-1291h184v-450h-154v307h-1679z" />
<glyph unicode="&#x42a;" horiz-adv-x="1454" d="M0 1290v144h502v-533h368q199 0 330 -129t131 -321.5t-131 -321.5t-330 -129h-522v1290h-348zM502 143h368q137 0 222.5 84t85.5 223.5t-85 223.5t-223 84h-368v-615z" />
<glyph unicode="&#x42b;" horiz-adv-x="1812" d="M215 0v1434h154v-533h368q199 0 330 -129t131 -321.5t-131 -321.5t-330 -129h-522zM369 143h368q139 0 223 84t84 223.5t-83.5 223.5t-223.5 84h-368v-615zM1444 0v1434h153v-1434h-153z" />
<glyph unicode="&#x42c;" horiz-adv-x="1341" d="M215 0v1434h154v-533h389q199 0 330 -129t131 -321.5t-131 -321.5t-330 -129h-543zM369 143h389q139 0 223 84t84 223.5t-84 223.5t-223 84h-389v-615z" />
<glyph unicode="&#x42d;" horiz-adv-x="1536" d="M82 276l102 93q6 -10 19.5 -26.5t59.5 -58.5t98.5 -75t137.5 -59.5t177 -26.5q233 0 397 152.5t187 379.5h-758v144h758q-31 221 -191 366.5t-393 145.5q-92 0 -175 -25.5t-136.5 -61.5t-93.5 -72t-58 -62l-18 -25l-103 92q8 12 23.5 31.5t70 71t117 91.5t163.5 71.5 t210 31.5q307 0 522 -215t215 -522t-215 -522t-522 -215q-109 0 -210 30.5t-168 73.5t-118 87t-74 75z" />
<glyph unicode="&#x42e;" horiz-adv-x="2160" d="M215 0v1434h154v-635h276q31 274 227.5 464.5t468.5 190.5q287 0 492 -213t205 -524t-205 -524t-492 -213q-274 0 -473.5 194.5t-222.5 480.5h-276v-655h-154zM799 717q0 -258 157.5 -426t385 -168t385 168t157.5 426t-157.5 426t-385 168t-385 -168t-157.5 -426z" />
<glyph unicode="&#x42f;" horiz-adv-x="1372" d="M102 0l338 594q-12 4 -31.5 11t-70.5 39t-91 74t-72 117.5t-32 168.5q0 184 125.5 307t315.5 123h573v-1434h-153v573h-410l-318 -573h-174zM297 1003.5q0 -131.5 78 -209t209 -77.5h420v573h-420q-131 0 -209 -77.5t-78 -209z" />
<glyph unicode="&#x430;" horiz-adv-x="1064" d="M82 266q0 123 74 198.5t213 98.5l379 62q0 109 -69 177t-177 68q-78 0 -146.5 -35.5t-99.5 -72.5l-31 -35l-92 92q6 8 16.5 20.5t46 44t74.5 56.5t102.5 44.5t129.5 19.5q168 0 278.5 -109t110.5 -270v-625h-143v133q-4 -6 -12.5 -16.5t-38 -37t-63.5 -47t-89.5 -36.5 t-114.5 -16q-147 0 -247.5 87t-100.5 199zM225 266q0 -66 54.5 -109.5t150.5 -43.5q139 0 228.5 91t89.5 236v62l-338 -62q-184 -35 -185 -174z" />
<glyph unicode="&#x431;" horiz-adv-x="1198" d="M113 614q0 678 501 768q109 18 194 47t114 48l30 18l72 -113q-82 -72 -389 -133q-162 -33 -261.5 -153.5t-107.5 -327.5q4 8 13.5 21.5t41 46t69.5 58.5t98.5 47.5t125.5 21.5q195 0 333 -143.5t138 -348.5q0 -207 -140 -349t-341 -142q-217 0 -354 165.5t-137 468.5z M266 471q0 -152 99.5 -255t238.5 -103t238.5 103t99.5 255t-99.5 255t-238.5 103t-238.5 -103t-99.5 -255z" />
<glyph unicode="&#x432;" horiz-adv-x="1064" d="M154 0v983h450q135 0 216 -72.5t81 -183.5q0 -63 -30.5 -114.5t-61.5 -71.5l-31 -19q6 -2 17.5 -6t40 -21.5t50 -41t39 -67.5t17.5 -99q0 -133 -83 -210t-234 -77h-471zM297 133h328q84 0 129 43t45 121t-45 121t-129 43h-328v-328zM297 584h307q154 0 154 133t-154 133 h-307v-266z" />
<glyph unicode="&#x433;" horiz-adv-x="839" d="M154 0v983h655v-133h-512v-850h-143z" />
<glyph unicode="&#x434;" horiz-adv-x="1136" d="M-10 133h71q6 6 18.5 20.5t42.5 65.5t53.5 110.5t42 159t18.5 207.5v287h675v-850h154v-379h-143v246h-789v-246h-143v379zM215 133h553v717h-389v-154q0 -168 -41 -308t-82 -198z" />
<glyph unicode="&#x435;" horiz-adv-x="1136" d="M82 492q0 213 143.5 362.5t337.5 149.5q201 0 336 -139.5t135 -352.5l-10 -74l-799 2q8 -133 109.5 -230t238.5 -97q92 0 171 41t112 82l35 40l92 -92q-6 -8 -17.5 -22.5t-50 -49t-83 -61t-115 -49t-144.5 -22.5q-201 0 -346 149.5t-145 362.5zM225 563h666 q-16 133 -107.5 220t-220.5 87t-225 -91t-113 -216z" />
<glyph unicode="&#x436;" horiz-adv-x="1495" d="M10 0l420 584l-379 399h174l441 -471v471h143v-471l440 471h174l-379 -399l420 -584h-164l-348 481l-143 -153v-328h-143v328l-144 153l-348 -481h-164z" />
<glyph unicode="&#x437;" horiz-adv-x="901" d="M41 154l92 92q12 -14 33.5 -37t93.5 -59.5t150 -36.5q117 0 176 45t59 118.5t-59.5 118.5t-175.5 45h-113v133h113q88 0 141 45.5t53 109t-49 103t-145 39.5q-68 0 -129.5 -27.5t-87.5 -56.5l-29 -28l-103 102q14 16 41 40t117 64t191 40q150 0 244 -82t94 -195 q0 -49 -15.5 -89t-38 -62.5t-46 -38t-38.5 -21.5l-16 -4q8 -2 21.5 -5t46 -19.5t58 -40t47 -68.5t21.5 -103q0 -125 -98 -210.5t-280 -85.5q-70 0 -132.5 18t-104.5 43t-72.5 50.5t-45.5 43.5z" />
<glyph unicode="&#x438;" d="M154 0v983h143v-737l594 737h123v-983h-144v737l-594 -737h-122z" />
<glyph unicode="&#x439;" d="M154 0v983h143v-737l594 737h123v-983h-144v737l-594 -737h-122zM307 1434h113q0 -84 43 -129t121 -45t121 45t43 129h112q0 -123 -76.5 -200t-199.5 -77t-200 77t-77 200z" />
<glyph unicode="&#x43a;" horiz-adv-x="1034" d="M154 0v983h143v-522l491 522h175l-379 -399l420 -584h-164l-348 481l-195 -205v-276h-143z" />
<glyph unicode="&#x43b;" horiz-adv-x="1146" d="M-10 0v143q41 -20 82 -20q63 0 99 36t60.5 166t24.5 371v287h717v-983h-144v850h-430v-154q0 -217 -21.5 -361.5t-64.5 -220t-95 -105t-126 -29.5q-25 0 -50.5 5t-37.5 11z" />
<glyph unicode="&#x43c;" horiz-adv-x="1331" d="M154 0v983h112l389 -491l389 491h113v-983h-143v727l-359 -451l-358 451v-727h-143z" />
<glyph unicode="&#x43d;" horiz-adv-x="1177" d="M154 0v983h143v-420h563v420h144v-983h-144v430h-563v-430h-143z" />
<glyph unicode="&#x43e;" d="M82 491.5q0 215.5 146.5 364t355.5 148.5t355 -148.5t146 -364t-146 -363.5t-355 -148t-355.5 148t-146.5 363.5zM225 492q0 -158 105.5 -268.5t253 -110.5t253 109.5t105.5 269t-105.5 269t-253 109.5t-253 -109.5t-105.5 -268.5z" />
<glyph unicode="&#x43f;" horiz-adv-x="1177" d="M154 0v983h850v-983h-144v848h-563v-848h-143z" />
<glyph unicode="&#x440;" horiz-adv-x="1218" d="M154 -430v1413h143v-154q4 6 14.5 18.5t43 42.5t70.5 53.5t97.5 42t122.5 18.5q188 0 329.5 -151t141.5 -361.5t-141 -361t-330 -150.5q-63 0 -121.5 18t-98.5 43t-69.5 50.5t-44.5 43.5l-14 19v-584h-143zM297 491.5q0 -151.5 107.5 -265t240.5 -113.5 q127 0 227.5 110.5t100.5 268t-100.5 268t-227.5 110.5q-133 0 -240.5 -113.5t-107.5 -265z" />
<glyph unicode="&#x441;" horiz-adv-x="1054" d="M82 492q0 213 145.5 362.5t345.5 149.5q115 0 214.5 -49.5t142.5 -98.5l43 -47l-103 -102q-4 6 -12 17t-35.5 40t-59.5 50.5t-83 38.5t-107 17q-141 0 -244.5 -109.5t-103.5 -269t103.5 -269t244.5 -109.5q86 0 163 41t112 82l33 40l102 -92q-6 -8 -18.5 -22.5t-52.5 -49 t-84 -61t-113.5 -49t-141.5 -22.5q-201 0 -346 149.5t-145 362.5z" />
<glyph unicode="&#x442;" horiz-adv-x="921" d="M31 850v133h839v-133h-348v-850h-143v850h-348z" />
<glyph unicode="&#x443;" horiz-adv-x="1003" d="M20 983h154l318 -799l317 799h154l-451 -1126q-61 -156 -131 -221.5t-176 -65.5q-33 0 -63.5 5t-45.5 11l-14 4v134q51 -20 102 -21q130 0 185 154l51 143z" />
<glyph unicode="&#x444;" horiz-adv-x="1454" d="M82 491.5q0 219.5 156.5 366t406.5 146.5v430h143v-430q250 0 407 -146.5t157 -366t-157 -365.5t-407 -146v-410h-143v410q-250 0 -406.5 146t-156.5 365.5zM225 492q0 -166 116 -272.5t304 -106.5v757q-188 0 -304 -107t-116 -271zM788 113q188 0 304 106.5t116 272.5 q0 164 -115.5 271t-304.5 107v-757z" />
<glyph unicode="&#x445;" horiz-adv-x="983" d="M20 0l369 512l-338 471h174l256 -358l256 358h174l-338 -471l369 -512h-174l-287 399l-286 -399h-175z" />
<glyph unicode="&#x446;" horiz-adv-x="1208" d="M154 0v983h143v-850h543v850h143v-850h154v-379h-144v246h-839z" />
<glyph unicode="&#x447;" horiz-adv-x="1105" d="M133 696v287h143v-287q0 -106 69 -175.5t177 -69.5q74 0 140.5 22.5t95.5 46.5l30 23v440h144v-983h-144v399q-113 -82 -276 -82q-168 0 -273.5 105.5t-105.5 273.5z" />
<glyph unicode="&#x448;" horiz-adv-x="1597" d="M154 0v983h143v-850h420v850h145v-850h418v850h143v-983h-1269z" />
<glyph unicode="&#x449;" horiz-adv-x="1648" d="M154 0v983h143v-850h420v850h145v-850h418v850h143v-850h154v-379h-143v246h-1280z" />
<glyph unicode="&#x44a;" horiz-adv-x="1095" d="M-10 850v133h399v-328h246q166 0 262 -90t96 -237.5t-95 -237.5t-261 -90h-391v850h-256zM389 133h248q96 0 154.5 54.5t58.5 140.5t-58.5 140t-156.5 54h-246v-389z" />
<glyph unicode="&#x44b;" horiz-adv-x="1402" d="M154 0v983h143v-328h246q166 0 262 -90t96 -237.5t-95 -237.5t-261 -90h-391zM297 133h248q96 0 154.5 54.5t58.5 140.5t-58.5 140t-156.5 54h-246v-389zM1085 0v983h144v-983h-144z" />
<glyph unicode="&#x44c;" horiz-adv-x="1013" d="M154 0v983h143v-328h256q166 0 262 -90t96 -237.5t-95 -237.5t-261 -90h-401zM297 133h258q96 0 154.5 54.5t58.5 140.5t-58.5 140t-156.5 54h-256v-389z" />
<glyph unicode="&#x44d;" horiz-adv-x="1044" d="M41 184l102 92q4 -6 13.5 -17t39 -40t62.5 -50.5t85 -38.5t108 -17q129 0 230 97t118 230h-492v133h481q-16 119 -113 208t-224 89q-55 0 -105.5 -16t-84.5 -41t-59.5 -49.5t-37.5 -40.5l-10 -16l-103 102q6 8 17.5 21.5t49.5 46t81 58.5t111.5 47.5t140.5 21.5 q201 0 346 -149.5t145 -362.5t-145.5 -362.5t-345.5 -149.5q-72 0 -140.5 21.5t-116 51t-83 59t-54.5 52.5z" />
<glyph unicode="&#x44e;" horiz-adv-x="1597" d="M154 0v983h143v-420h215q25 180 164 310.5t328 130.5q201 0 346 -149.5t145 -362.5t-145.5 -362.5t-345.5 -149.5q-188 0 -328.5 131t-163.5 319h-215v-430h-143zM655 491.5q0 -159.5 103.5 -269t245 -109.5t245 109.5t103.5 269t-103.5 269t-245 109.5t-245 -109.5 t-103.5 -269z" />
<glyph unicode="&#x44f;" horiz-adv-x="1044" d="M72 0l225 358q-8 2 -22.5 7.5t-49.5 27t-61.5 52t-49 85.5t-22.5 125q0 141 99.5 234.5t259.5 93.5h419v-983h-143v328h-287l-204 -328h-164zM236 655q0 -86 58 -140t157 -54h276v389h-276q-98 0 -156.5 -54.5t-58.5 -140.5z" />
<glyph unicode="&#x451;" horiz-adv-x="1136" d="M82 492q0 213 143.5 362.5t337.5 149.5q201 0 336 -139.5t135 -352.5l-10 -74l-799 2q8 -133 109.5 -230t238.5 -97q92 0 171 41t112 82l35 40l92 -92q-6 -8 -17.5 -22.5t-50 -49t-83 -61t-115 -49t-144.5 -22.5q-201 0 -346 149.5t-145 362.5zM225 563h666 q-16 133 -107.5 220t-220.5 87t-225 -91t-113 -216zM274 1292q0 39 27 65.5t66 26.5t65.5 -26.5t26.5 -65.5t-26.5 -65.5t-65.5 -26.5t-66 26.5t-27 65.5zM664 1292q0 39 26.5 65.5t65.5 26.5t65.5 -26.5t26.5 -65.5t-26.5 -65.5t-65.5 -26.5t-65.5 26.5t-26.5 65.5z" />
<glyph unicode="&#x452;" d="M10 1116v133h174v185h144v-185h286v-133h-286v-338q4 6 12 17.5t38 40t63.5 50t89 39t114.5 17.5q180 0 300 -130t120 -341q0 -219 -128 -355t-323 -136v133q133 0 220.5 96t87.5 262q0 150 -84 244t-203 94q-131 0 -219 -92t-88 -236v-481h-144v1116h-174z" />
<glyph unicode="&#x453;" horiz-adv-x="839" d="M154 0v983h655v-133h-512v-850h-143zM410 1157l153 277h154l-195 -277h-112z" />
<glyph unicode="&#x454;" horiz-adv-x="1054" d="M82 492q0 213 145.5 362.5t345.5 149.5q115 0 214.5 -49.5t142.5 -98.5l43 -47l-103 -102q-4 6 -12 17t-35.5 40t-59.5 50.5t-83 38.5t-107 17q-127 0 -224 -89t-113 -208h481v-133h-492q16 -133 117.5 -230t230.5 -97q86 0 163 41t112 82l33 40l102 -92 q-6 -8 -18.5 -22.5t-52.5 -49t-84 -61t-113.5 -49t-141.5 -22.5q-201 0 -346 149.5t-145 362.5z" />
<glyph unicode="&#x455;" horiz-adv-x="880" d="M61 154l103 102q4 -6 11 -15.5t31.5 -34t52.5 -44t72 -34.5t89 -15q104 0 159.5 46t55.5 117q0 61 -55.5 99.5t-133 61t-155.5 50t-133.5 87t-55.5 153.5q0 111 93.5 194t234.5 83q57 0 111.5 -13.5t89.5 -33t62.5 -40t39.5 -32.5l15 -15l-103 -102q-8 12 -23.5 28.5 t-71.5 45t-120 28.5q-82 0 -133 -43t-51 -100q0 -59 55 -95t133 -57.5t156 -49t133 -90t55 -159.5q0 -127 -97 -211.5t-261 -84.5q-70 0 -131.5 18t-101.5 43t-69.5 50.5t-43.5 43.5z" />
<glyph unicode="&#x456;" horiz-adv-x="471" d="M133 1311q0 39 26.5 65.5t65.5 26.5t65.5 -26.5t26.5 -65.5t-26.5 -65.5t-65.5 -26.5t-65.5 26.5t-26.5 65.5zM154 0v983h143v-983h-143z" />
<glyph unicode="&#x457;" horiz-adv-x="471" d="M-61 1294q0 39 26.5 65.5t65.5 26.5t65.5 -26.5t26.5 -65.5t-26.5 -65.5t-65.5 -26.5t-65.5 26.5t-26.5 65.5zM154 0v983h143v-983h-143zM328 1294q0 39 26.5 65.5t65.5 26.5t65.5 -26.5t26.5 -65.5t-26.5 -65.5t-65.5 -26.5t-65.5 26.5t-26.5 65.5z" />
<glyph unicode="&#x458;" horiz-adv-x="471" d="M-92 -266q51 -31 112 -31q134 0 134 154v1126h143v-1126q0 -287 -266 -287q-33 0 -63.5 8t-45.5 16l-14 7v133zM133 1311q0 39 26.5 65.5t65.5 26.5t65.5 -26.5t26.5 -65.5t-26.5 -65.5t-65.5 -26.5t-65.5 26.5t-26.5 65.5z" />
<glyph unicode="&#x459;" horiz-adv-x="1648" d="M-10 0v143q41 -20 82 -20q63 0 99 36t60.5 166t24.5 371v287h686v-369h246q172 0 265 -82.5t93 -224t-92 -224.5t-264 -83h-391v850h-400v-154q0 -217 -21.5 -361.5t-64.5 -220t-95 -105t-126 -29.5q-25 0 -50.5 5t-37.5 11zM942 133h248q102 0 157.5 47t55.5 127 t-55.5 127t-159.5 47h-246v-348z" />
<glyph unicode="&#x45a;" horiz-adv-x="1669" d="M154 0v983h143v-369h522v369h144v-369h245q172 0 265.5 -82.5t93.5 -224t-92.5 -224.5t-264.5 -83h-391v481h-522v-481h-143zM963 133h247q102 0 157.5 47t55.5 127t-55 127t-160 47h-245v-348z" />
<glyph unicode="&#x45b;" horiz-adv-x="1218" d="M10 1116v133h174v185h144v-185h286v-133h-286v-338q4 6 12 17.5t38 40t63.5 50t89 39t114.5 17.5q178 0 288.5 -114.5t110.5 -305.5v-522h-143v522q0 129 -74.5 208t-191.5 79q-131 0 -219 -92t-88 -236v-481h-144v1116h-174z" />
<glyph unicode="&#x45c;" horiz-adv-x="1034" d="M154 0v983h143v-522l491 522h175l-379 -399l420 -584h-164l-348 481l-195 -205v-276h-143zM471 1157l154 277h153l-194 -277h-113z" />
<glyph unicode="&#x45e;" horiz-adv-x="1003" d="M20 983h154l318 -799l317 799h154l-451 -1126q-61 -156 -131 -221.5t-176 -65.5q-33 0 -63.5 5t-45.5 11l-14 4v134q51 -20 102 -21q130 0 185 154l51 143zM215 1434h113q0 -84 43 -129t120.5 -45t120.5 45t43 129h113q0 -123 -77 -200t-199.5 -77t-199.5 77t-77 200z " />
<glyph unicode="&#x45f;" horiz-adv-x="1167" d="M154 0v983h143v-850h553v850h143v-983h-348v-246h-143v246h-348z" />
<glyph unicode="&#x490;" horiz-adv-x="1126" d="M215 0v1434h748v286h143v-430h-737v-1290h-154z" />
<glyph unicode="&#x491;" horiz-adv-x="839" d="M154 0v983h520v246h135v-379h-512v-850h-143z" />
<glyph unicode="&#x2000;" horiz-adv-x="978" />
<glyph unicode="&#x2001;" horiz-adv-x="1956" />
<glyph unicode="&#x2002;" horiz-adv-x="978" />
<glyph unicode="&#x2003;" horiz-adv-x="1956" />
<glyph unicode="&#x2004;" horiz-adv-x="652" />
<glyph unicode="&#x2005;" horiz-adv-x="489" />
<glyph unicode="&#x2006;" horiz-adv-x="326" />
<glyph unicode="&#x2007;" horiz-adv-x="326" />
<glyph unicode="&#x2008;" horiz-adv-x="244" />
<glyph unicode="&#x2009;" horiz-adv-x="391" />
<glyph unicode="&#x200a;" horiz-adv-x="108" />
<glyph unicode="&#x2010;" horiz-adv-x="870" d="M92 543v133h686v-133h-686z" />
<glyph unicode="&#x2011;" horiz-adv-x="870" d="M92 543v133h686v-133h-686z" />
<glyph unicode="&#x2012;" horiz-adv-x="870" d="M92 543v133h686v-133h-686z" />
<glyph unicode="&#x2013;" horiz-adv-x="983" d="M92 532v134h799v-134h-799z" />
<glyph unicode="&#x2014;" horiz-adv-x="1474" d="M92 532v134h1290v-134h-1290z" />
<glyph unicode="&#x2018;" horiz-adv-x="430" d="M51 1106l236 369l92 -52l-195 -399z" />
<glyph unicode="&#x2019;" horiz-adv-x="430" d="M51 1075l195 400l133 -82l-236 -369z" />
<glyph unicode="&#x201a;" horiz-adv-x="440" d="M0 -215l184 399l144 -82l-236 -358z" />
<glyph unicode="&#x201c;" horiz-adv-x="747" d="M51 1106l236 369l92 -52l-195 -399zM369 1106l235 369l92 -52l-194 -399z" />
<glyph unicode="&#x201d;" horiz-adv-x="747" d="M51 1075l195 400l133 -82l-236 -369zM369 1075l194 400l133 -82l-235 -369z" />
<glyph unicode="&#x201e;" horiz-adv-x="757" d="M0 -215l184 399l144 -82l-236 -358zM317 -215l185 399l143 -82l-235 -358z" />
<glyph unicode="&#x2022;" horiz-adv-x="819" d="M215 491.5q0 77.5 58.5 136t136 58.5t136 -58.5t58.5 -136t-58.5 -136t-136 -58.5t-136 58.5t-58.5 136z" />
<glyph unicode="&#x2026;" horiz-adv-x="1372" d="M123 82q0 45 28.5 73.5t73.5 28.5t74 -28.5t29 -73.5t-29 -73.5t-74 -28.5t-73.5 28.5t-28.5 73.5zM584 82q0 45 27.5 73.5t74.5 28.5t74.5 -28.5t27.5 -73.5t-27.5 -73.5t-74.5 -28.5t-74.5 28.5t-27.5 73.5zM1044 82q0 45 29 73.5t74 28.5t73.5 -28.5t28.5 -73.5 t-28.5 -73.5t-73.5 -28.5t-74 28.5t-29 73.5z" />
<glyph unicode="&#x202f;" horiz-adv-x="391" />
<glyph unicode="&#x2039;" horiz-adv-x="573" d="M92 492l246 337h143l-235 -337l235 -338h-143z" />
<glyph unicode="&#x203a;" horiz-adv-x="573" d="M92 154l236 338l-236 337h144l245 -337l-245 -338h-144z" />
<glyph unicode="&#x205f;" horiz-adv-x="489" />
<glyph unicode="&#x20ac;" horiz-adv-x="1515" d="M82 481v133h184v205h-184v133h205q66 207 244 354.5t411 147.5q88 0 170 -23.5t136.5 -56.5t95 -65.5t61.5 -55.5l18 -24l-102 -103q-6 8 -16.5 20.5t-47 44.5t-77.5 56.5t-105.5 44t-132.5 19.5q-172 0 -314.5 -116t-176.5 -243h471v-133h-502v-205h502v-133h-471 q35 -127 177 -242.5t314 -115.5q106 0 203.5 46t140.5 93l45 45l103 -102q-8 -8 -21.5 -23.5t-60.5 -54.5t-100.5 -68.5t-137.5 -54t-172 -24.5q-233 0 -411.5 147t-243.5 354h-205z" />
<glyph unicode="&#x2122;" horiz-adv-x="1361" d="M20 1331v103h482v-103h-185v-512h-112v512h-185zM614 819v615h103l215 -287l215 287h102v-615h-112v410l-205 -266l-205 266v-410h-113z" />
<glyph unicode="&#x25fc;" horiz-adv-x="985" d="M0 0v985h985v-985h-985z" />
</font>
</defs>
</svg>
